<svg width="700" height="190" viewBox="0 0 700 190" fill="none" xmlns="http://www.w3.org/2000/svg">
<path d="M3.18 188L1.31015 187.29L0.281682 190H3.18V188ZM73.64 2.35999V0.359988H72.2599L71.7702 1.65028L73.64 2.35999ZM115.5 2.35999L117.373 1.65947L116.887 0.359988H115.5V2.35999ZM184.92 188V190H187.803L186.793 187.299L184.92 188ZM142.54 188L140.646 188.643L141.107 190H142.54V188ZM128.5 146.66L130.394 146.017L129.933 144.66H128.5V146.66ZM59.08 146.66V144.66H57.664L57.1936 145.996L59.08 146.66ZM44.52 188V190H45.936L46.4064 188.664L44.52 188ZM93.92 48.12V46.12H92.5077L92.0352 47.451L93.92 48.12ZM69.74 116.24L67.8552 115.571L66.9078 118.24H69.74V116.24ZM117.84 116.24V118.24H120.642L119.732 115.59L117.84 116.24ZM94.44 48.12L96.3315 47.4702L95.8677 46.12H94.44V48.12ZM5.04985 188.71L75.5098 3.06969L71.7702 1.65028L1.31015 187.29L5.04985 188.71ZM73.64 4.35999H115.5V0.359988H73.64V4.35999ZM113.627 3.06051L183.047 188.701L186.793 187.299L117.373 1.65947L113.627 3.06051ZM184.92 186H142.54V190H184.92V186ZM144.434 187.357L130.394 146.017L126.606 147.303L140.646 188.643L144.434 187.357ZM128.5 144.66H59.08V148.66H128.5V144.66ZM57.1936 145.996L42.6336 187.336L46.4064 188.664L60.9664 147.324L57.1936 145.996ZM44.52 186H3.18V190H44.52V186ZM92.0352 47.451L67.8552 115.571L71.6248 116.909L95.8048 48.789L92.0352 47.451ZM69.74 118.24H117.84V114.24H69.74V118.24ZM119.732 115.59L96.3315 47.4702L92.5485 48.7697L115.948 116.89L119.732 115.59ZM94.44 46.12H93.92V50.12H94.44V46.12ZM210.028 188H208.028V190H210.028V188ZM210.028 2.35999V0.359988H208.028V2.35999H210.028ZM250.588 2.35999L252.286 1.3035L251.699 0.359988H250.588V2.35999ZM328.068 126.9L326.37 127.956L326.957 128.9H328.068V126.9ZM328.588 126.9V128.9H330.588V126.9H328.588ZM328.588 2.35999V0.359988H326.588V2.35999H328.588ZM366.808 2.35999H368.808V0.359988H366.808V2.35999ZM366.808 188V190H368.808V188H366.808ZM325.988 188L324.29 189.056L324.876 190H325.988V188ZM248.768 63.72L250.467 62.6645L249.88 61.72H248.768V63.72ZM248.248 63.72V61.72H246.248V63.72H248.248ZM248.248 188V190H250.248V188H248.248ZM212.028 188V2.35999H208.028V188H212.028ZM210.028 4.35999H250.588V0.359988H210.028V4.35999ZM248.89 3.41648L326.37 127.956L329.766 125.844L252.286 1.3035L248.89 3.41648ZM328.068 128.9H328.588V124.9H328.068V128.9ZM330.588 126.9V2.35999H326.588V126.9H330.588ZM328.588 4.35999H366.808V0.359988H328.588V4.35999ZM364.808 2.35999V188H368.808V2.35999H364.808ZM366.808 186H325.988V190H366.808V186ZM327.687 186.944L250.467 62.6645L247.07 64.7755L324.29 189.056L327.687 186.944ZM248.768 61.72H248.248V65.72H248.768V61.72ZM246.248 63.72V188H250.248V63.72H246.248ZM248.248 186H210.028V190H248.248V186ZM411.843 188H409.843V190H411.843V188ZM411.843 2.35999V0.359988H409.843V2.35999H411.843ZM452.663 2.35999H454.663V0.359988H452.663V2.35999ZM452.663 188V190H454.663V188H452.663ZM413.843 188V2.35999H409.843V188H413.843ZM411.843 4.35999H452.663V0.359988H411.843V4.35999ZM450.663 2.35999V188H454.663V2.35999H450.663ZM452.663 186H411.843V190H452.663V186ZM497.623 188H495.623V190H497.623V188ZM497.623 2.35999V0.359988H495.623V2.35999H497.623ZM555.083 2.35999L556.976 1.71598L556.515 0.359988H555.083V2.35999ZM598.503 130.02L596.609 130.664L597.071 132.02H598.503V130.02ZM599.023 130.02V132.02H600.48L600.927 130.633L599.023 130.02ZM640.103 2.35999V0.359988H638.645L638.199 1.74734L640.103 2.35999ZM697.563 2.35999H699.563V0.359988H697.563V2.35999ZM697.563 188V190H699.563V188H697.563ZM659.343 188H657.343V190H659.343V188ZM659.343 56.44H661.343V54.44H659.343V56.44ZM658.823 56.44V54.44H657.398L656.933 55.7863L658.823 56.44ZM613.323 188V190H614.747L615.213 188.654L613.323 188ZM581.863 188L579.975 188.66L580.443 190H581.863V188ZM536.363 57.74L538.251 57.0805L537.783 55.74H536.363V57.74ZM535.843 57.74V55.74H533.843V57.74H535.843ZM535.843 188V190H537.843V188H535.843ZM499.623 188V2.35999H495.623V188H499.623ZM497.623 4.35999H555.083V0.359988H497.623V4.35999ZM553.189 3.004L596.609 130.664L600.396 129.376L556.976 1.71598L553.189 3.004ZM598.503 132.02H599.023V128.02H598.503V132.02ZM600.927 130.633L642.007 2.97263L638.199 1.74734L597.119 129.407L600.927 130.633ZM640.103 4.35999H697.563V0.359988H640.103V4.35999ZM695.563 2.35999V188H699.563V2.35999H695.563ZM697.563 186H659.343V190H697.563V186ZM661.343 188V56.44H657.343V188H661.343ZM659.343 54.44H658.823V58.44H659.343V54.44ZM656.933 55.7863L611.433 187.346L615.213 188.654L660.713 57.0937L656.933 55.7863ZM613.323 186H581.863V190H613.323V186ZM583.751 187.34L538.251 57.0805L534.475 58.3995L579.975 188.66L583.751 187.34ZM536.363 55.74H535.843V59.74H536.363V55.74ZM533.843 57.74V188H537.843V57.74H533.843ZM535.843 186H497.623V190H535.843V186Z" fill="black"/>
</svg>
