<svg width="558" height="200" viewBox="0 0 558 200" fill="none" xmlns="http://www.w3.org/2000/svg">
<path d="M174.22 69.76V71.76H176.467L176.207 69.5282L174.22 69.76ZM134.7 69.76L132.717 70.0219L132.947 71.76H134.7V69.76ZM121.18 46.62L122.429 45.0583L121.18 46.62ZM55.14 57.02L56.7962 58.1411L56.8007 58.1344L55.14 57.02ZM55.14 143.6L53.4919 144.733L53.4964 144.74L55.14 143.6ZM123.52 151.4L124.966 152.782L124.968 152.779L123.52 151.4ZM136.26 121.5V119.5H134.491L134.275 121.255L136.26 121.5ZM175.78 121.5L177.772 121.68L177.969 119.5H175.78V121.5ZM150.3 176.88L151.662 178.345L151.662 178.344L150.3 176.88ZM27.06 169.34L28.548 168.004L28.5444 168L27.06 169.34ZM27.06 31.28L28.5509 32.6132L28.5559 32.6075L28.5609 32.6019L27.06 31.28ZM147.7 20.36L146.453 21.9235L146.455 21.9252L147.7 20.36ZM174.22 67.76H134.7V71.76H174.22V67.76ZM136.683 69.4981C135.396 59.7576 130.598 51.5931 122.429 45.0583L119.931 48.1817C127.362 54.1269 131.577 61.3891 132.717 70.0219L136.683 69.4981ZM122.429 45.0583C114.266 38.5273 104.809 35.26 94.14 35.26V39.26C103.924 39.26 112.494 42.2327 119.931 48.1817L122.429 45.0583ZM94.14 35.26C76.3779 35.26 62.7252 42.1273 53.4793 55.9056L56.8007 58.1344C65.2348 45.566 77.5821 39.26 94.14 39.26V35.26ZM53.4838 55.8989C45.5708 67.5885 41.7 82.6614 41.7 100.96H45.7C45.7 83.2052 49.4559 68.9848 56.7962 58.1411L53.4838 55.8989ZM41.7 100.96C41.7 118.582 45.5782 133.222 53.4919 144.733L56.7881 142.467C49.4485 131.791 45.7 118.005 45.7 100.96H41.7ZM53.4964 144.74C62.9148 158.324 76.5546 165.1 94.14 165.1V161.1C77.7521 161.1 65.3919 154.876 56.7836 142.46L53.4964 144.74ZM94.14 165.1C106.745 165.1 117.087 161.028 124.966 152.782L122.074 150.018C115.047 157.372 105.802 161.1 94.14 161.1V165.1ZM124.968 152.779C132.269 145.114 136.647 134.709 138.245 121.745L134.275 121.255C132.753 133.598 128.638 143.126 122.072 150.021L124.968 152.779ZM136.26 123.5H175.78V119.5H136.26V123.5ZM173.788 121.32C171.746 143.954 163.434 161.931 148.938 175.416L151.662 178.344C166.98 164.096 175.654 145.152 177.772 121.68L173.788 121.32ZM148.938 175.415C134.624 188.719 116.412 195.42 94.14 195.42V199.42C117.282 199.42 136.51 192.427 151.662 178.345L148.938 175.415ZM94.14 195.42C66.732 195.42 44.9381 186.252 28.548 168.004L25.572 170.676C42.8085 189.868 65.7347 199.42 94.14 199.42V195.42ZM28.5444 168C12.8067 150.57 4.88 128.279 4.88 100.96H0.880001C0.880001 129.108 9.07326 152.404 25.5756 170.68L28.5444 168ZM4.88 100.96C4.88 72.9338 12.815 50.2103 28.5509 32.6132L25.5691 29.9468C9.06504 48.403 0.880001 72.1329 0.880001 100.96H4.88ZM28.5609 32.6019C44.7749 14.1922 66.5604 4.94 94.14 4.94V0.939998C65.5596 0.939998 42.6251 10.5811 25.5591 29.9581L28.5609 32.6019ZM94.14 4.94C114.898 4.94 132.295 10.6306 146.453 21.9235L148.947 18.7964C133.985 6.86269 115.675 0.939998 94.14 0.939998V4.94ZM146.455 21.9252C161.262 33.7034 169.863 49.6736 172.233 69.9918L176.207 69.5282C173.724 48.2464 164.645 31.2833 148.945 18.7948L146.455 21.9252ZM228.875 31.28L230.366 32.6132L230.371 32.6075L230.376 32.6019L228.875 31.28ZM363.035 31.28L361.534 32.6019L361.539 32.6075L361.544 32.6132L363.035 31.28ZM363.035 169.34L361.55 168L361.547 168.004L363.035 169.34ZM228.875 169.34L230.363 168.004L230.359 168L228.875 169.34ZM256.955 143.6L255.307 144.733L255.311 144.74L256.955 143.6ZM334.955 143.6L336.598 144.74L336.603 144.733L334.955 143.6ZM334.955 57.02L333.294 58.1344L333.299 58.1411L334.955 57.02ZM256.955 57.02L258.611 58.1411L258.616 58.1344L256.955 57.02ZM206.695 100.96C206.695 72.9338 214.63 50.2103 230.366 32.6132L227.384 29.9468C210.88 48.403 202.695 72.1329 202.695 100.96H206.695ZM230.376 32.6019C246.59 14.1922 268.375 4.94 295.955 4.94V0.939998C267.374 0.939998 244.44 10.5811 227.374 29.9581L230.376 32.6019ZM295.955 4.94C323.534 4.94 345.32 14.1922 361.534 32.6019L364.536 29.9581C347.47 10.5811 324.535 0.939998 295.955 0.939998V4.94ZM361.544 32.6132C377.28 50.2103 385.215 72.9338 385.215 100.96H389.215C389.215 72.1329 381.03 48.403 364.526 29.9468L361.544 32.6132ZM385.215 100.96C385.215 128.279 377.288 150.57 361.55 168L364.519 170.68C381.022 152.404 389.215 129.108 389.215 100.96H385.215ZM361.547 168.004C345.157 186.252 323.363 195.42 295.955 195.42V199.42C324.36 199.42 347.286 189.868 364.523 170.676L361.547 168.004ZM295.955 195.42C268.547 195.42 246.753 186.252 230.363 168.004L227.387 170.676C244.623 189.868 267.55 199.42 295.955 199.42V195.42ZM230.359 168C214.622 150.57 206.695 128.279 206.695 100.96H202.695C202.695 129.108 210.888 152.404 227.39 170.68L230.359 168ZM243.515 100.96C243.515 118.582 247.393 133.222 255.307 144.733L258.603 142.467C251.263 131.791 247.515 118.005 247.515 100.96H243.515ZM255.311 144.74C264.73 158.324 278.369 165.1 295.955 165.1V161.1C279.567 161.1 267.207 154.876 258.598 142.46L255.311 144.74ZM295.955 165.1C313.54 165.1 327.18 158.324 336.598 144.74L333.311 142.46C324.703 154.876 312.343 161.1 295.955 161.1V165.1ZM336.603 144.733C344.517 133.222 348.395 118.582 348.395 100.96H344.395C344.395 118.005 340.646 131.791 333.307 142.467L336.603 144.733ZM348.395 100.96C348.395 82.6614 344.524 67.5885 336.611 55.8989L333.299 58.1411C340.639 68.9848 344.395 83.2052 344.395 100.96H348.395ZM336.616 55.9056C327.37 42.1273 313.717 35.26 295.955 35.26V39.26C312.513 39.26 324.86 45.566 333.294 58.1344L336.616 55.9056ZM295.955 35.26C278.193 35.26 264.54 42.1273 255.294 55.9056L258.616 58.1344C267.05 45.566 279.397 39.26 295.955 39.26V35.26ZM255.299 55.8989C247.386 67.5885 243.515 82.6614 243.515 100.96H247.515C247.515 83.2052 251.271 68.9848 258.611 58.1411L255.299 55.8989ZM424.218 193H422.218V195H424.218V193ZM424.218 7.35999V5.35999H422.218V7.35999H424.218ZM465.038 7.35999H467.038V5.35999H465.038V7.35999ZM465.038 158.68H463.038V160.68H465.038V158.68ZM555.518 158.68H557.518V156.68H555.518V158.68ZM555.518 193V195H557.518V193H555.518ZM426.218 193V7.35999H422.218V193H426.218ZM424.218 9.35999H465.038V5.35999H424.218V9.35999ZM463.038 7.35999V158.68H467.038V7.35999H463.038ZM465.038 160.68H555.518V156.68H465.038V160.68ZM553.518 158.68V193H557.518V158.68H553.518ZM555.518 191H424.218V195H555.518V191Z" fill="black"/>
</svg>
