<svg width="285" height="53" viewBox="0 0 285 53" fill="none" xmlns="http://www.w3.org/2000/svg">
<path d="M44.608 18.664V20.664H46.8549L46.5945 18.4322L44.608 18.664ZM34.88 18.664L32.8972 18.9259L33.1268 20.664H34.88V18.664ZM31.552 12.968L32.8014 11.4063L31.552 12.968ZM15.296 15.528L16.9522 16.6491L16.9567 16.6424L15.296 15.528ZM15.296 36.84L13.6479 37.9731L13.6524 37.9796L15.296 36.84ZM32.128 38.76L33.574 40.1417L33.5763 40.1393L32.128 38.76ZM35.264 31.4V29.4H33.4954L33.279 31.1553L35.264 31.4ZM44.992 31.4L46.9839 31.5797L47.1806 29.4H44.992V31.4ZM38.72 45.032L40.0816 46.497L40.0822 46.4964L38.72 45.032ZM8.384 43.176L9.87196 41.8396L9.86844 41.8357L8.384 43.176ZM8.384 9.192L9.87486 10.5252L9.87989 10.5195L9.88488 10.5139L8.384 9.192ZM38.08 6.504L36.8329 8.06755L36.835 8.0692L38.08 6.504ZM44.608 16.664H34.88V20.664H44.608V16.664ZM36.8628 18.4021C36.491 15.5869 35.0899 13.2371 32.8014 11.4063L30.3026 14.5297C31.8541 15.7709 32.6717 17.2184 32.8972 18.9259L36.8628 18.4021ZM32.8014 11.4063C30.5177 9.57932 27.8557 8.664 24.896 8.664V12.664C26.9709 12.664 28.7463 13.2847 30.3026 14.5297L32.8014 11.4063ZM24.896 8.664C20.0699 8.664 16.2172 10.566 13.6353 14.4136L16.9567 16.6424C18.7268 14.0047 21.2741 12.664 24.896 12.664V8.664ZM13.6398 14.4069C11.4761 17.6032 10.48 21.6348 10.48 26.344H14.48C14.48 22.1786 15.3612 18.9995 16.9522 16.6491L13.6398 14.4069ZM10.48 26.344C10.48 30.8995 11.4835 34.8249 13.6479 37.9731L16.9441 35.7069C15.3538 33.3938 14.48 30.3219 14.48 26.344H10.48ZM13.6524 37.9796C16.2761 41.7638 20.1159 43.64 24.896 43.64V39.64C21.3134 39.64 18.7532 38.3162 16.9396 35.7004L13.6524 37.9796ZM24.896 43.64C28.354 43.64 31.3132 42.5077 33.574 40.1417L30.682 37.3783C29.2735 38.8523 27.4113 39.64 24.896 39.64V43.64ZM33.5763 40.1393C35.6501 37.9618 36.8267 35.0701 37.249 31.6447L33.279 31.1553C32.9333 33.9592 32.0192 35.9742 30.6797 37.3807L33.5763 40.1393ZM35.264 33.4H44.992V29.4H35.264V33.4ZM43.0001 31.2203C42.5259 36.4757 40.6164 40.5364 37.3578 43.5676L40.0822 46.4964C44.1623 42.7009 46.4341 37.6736 46.9839 31.5797L43.0001 31.2203ZM37.3584 43.567C34.1502 46.5488 30.0504 48.088 24.896 48.088V52.088C30.9203 52.088 36.0365 50.2565 40.0816 46.497L37.3584 43.567ZM24.896 48.088C18.5253 48.088 13.5875 45.9765 9.87196 41.8396L6.89604 44.5124C11.4579 49.5916 17.5281 52.088 24.896 52.088V48.088ZM9.86844 41.8357C6.28274 37.8644 4.432 32.7563 4.432 26.344H0.432C0.432 33.585 2.54926 39.6982 6.89956 44.5163L9.86844 41.8357ZM4.432 26.344C4.432 19.7471 6.29096 14.533 9.87486 10.5252L6.89314 7.85883C2.54104 12.7257 0.432 18.9462 0.432 26.344H4.432ZM9.88488 10.5139C13.5549 6.34692 18.4844 4.216 24.896 4.216V0.216C17.4836 0.216 11.4051 2.73575 6.88312 7.87012L9.88488 10.5139ZM24.896 4.216C29.7129 4.216 33.6506 5.5293 36.8329 8.06755L39.3271 4.94044C35.3414 1.76136 30.4898 0.216 24.896 0.216V4.216ZM36.835 8.0692C40.1432 10.7007 42.0804 14.2576 42.6215 18.8958L46.5945 18.4322C45.941 12.8304 43.5262 8.28061 39.3251 4.9388L36.835 8.0692ZM58.0615 9.192L59.5524 10.5252L59.5574 10.5195L59.5624 10.5139L58.0615 9.192ZM91.0855 9.192L89.5846 10.5139L89.5896 10.5195L89.5946 10.5252L91.0855 9.192ZM91.0855 43.176L89.6011 41.8357L89.5975 41.8396L91.0855 43.176ZM58.0615 43.176L59.5495 41.8396L59.5459 41.8357L58.0615 43.176ZM64.9735 36.84L63.3254 37.9731L63.3299 37.9796L64.9735 36.84ZM84.1735 36.84L85.8171 37.9796L85.8216 37.9731L84.1735 36.84ZM84.1735 15.528L82.5128 16.6424L82.5173 16.6491L84.1735 15.528ZM64.9735 15.528L66.6297 16.6491L66.6342 16.6424L64.9735 15.528ZM54.1095 26.344C54.1095 19.7471 55.9685 14.533 59.5524 10.5252L56.5706 7.85883C52.2185 12.7257 50.1095 18.9462 50.1095 26.344H54.1095ZM59.5624 10.5139C63.2324 6.34692 68.1619 4.216 74.5735 4.216V0.216C67.1611 0.216 61.0826 2.73575 56.5606 7.87012L59.5624 10.5139ZM74.5735 4.216C80.9851 4.216 85.9146 6.34692 89.5846 10.5139L92.5864 7.87012C88.0644 2.73575 81.9859 0.216 74.5735 0.216V4.216ZM89.5946 10.5252C93.1785 14.533 95.0375 19.7471 95.0375 26.344H99.0375C99.0375 18.9462 96.9285 12.7257 92.5764 7.85883L89.5946 10.5252ZM95.0375 26.344C95.0375 32.7563 93.1868 37.8644 89.6011 41.8357L92.5699 44.5163C96.9202 39.6982 99.0375 33.585 99.0375 26.344H95.0375ZM89.5975 41.8396C85.882 45.9765 80.9442 48.088 74.5735 48.088V52.088C81.9415 52.088 88.0116 49.5916 92.5735 44.5124L89.5975 41.8396ZM74.5735 48.088C68.2028 48.088 63.265 45.9765 59.5495 41.8396L56.5735 44.5124C61.1354 49.5916 67.2056 52.088 74.5735 52.088V48.088ZM59.5459 41.8357C55.9602 37.8644 54.1095 32.7563 54.1095 26.344H50.1095C50.1095 33.585 52.2268 39.6982 56.5771 44.5163L59.5459 41.8357ZM60.1575 26.344C60.1575 30.8995 61.161 34.8249 63.3254 37.9731L66.6216 35.7069C65.0313 33.3938 64.1575 30.3219 64.1575 26.344H60.1575ZM63.3299 37.9796C65.9536 41.7638 69.7934 43.64 74.5735 43.64V39.64C70.9909 39.64 68.4307 38.3162 66.6171 35.7004L63.3299 37.9796ZM74.5735 43.64C79.3536 43.64 83.1934 41.7638 85.8171 37.9796L82.5299 35.7004C80.7163 38.3162 78.1561 39.64 74.5735 39.64V43.64ZM85.8216 37.9731C87.986 34.8249 88.9895 30.8995 88.9895 26.344H84.9895C84.9895 30.3219 84.1157 33.3938 82.5254 35.7069L85.8216 37.9731ZM88.9895 26.344C88.9895 21.6348 87.9934 17.6032 85.8297 14.4069L82.5173 16.6491C84.1083 18.9995 84.9895 22.1786 84.9895 26.344H88.9895ZM85.8342 14.4136C83.2523 10.566 79.3996 8.664 74.5735 8.664V12.664C78.1954 12.664 80.7427 14.0047 82.5128 16.6424L85.8342 14.4136ZM74.5735 8.664C69.7474 8.664 65.8947 10.566 63.3128 14.4136L66.6342 16.6424C68.4043 14.0047 70.9516 12.664 74.5735 12.664V8.664ZM63.3173 14.4069C61.1536 17.6032 60.1575 21.6348 60.1575 26.344H64.1575C64.1575 22.1786 65.0387 18.9995 66.6297 16.6491L63.3173 14.4069ZM106.146 49H104.146V51H106.146V49ZM106.146 3.304V1.304H104.146V3.304H106.146ZM116.194 3.304H118.194V1.304H116.194V3.304ZM116.194 40.552H114.194V42.552H116.194V40.552ZM138.466 40.552H140.466V38.552H138.466V40.552ZM138.466 49V51H140.466V49H138.466ZM108.146 49V3.304H104.146V49H108.146ZM106.146 5.304H116.194V1.304H106.146V5.304ZM114.194 3.304V40.552H118.194V3.304H114.194ZM116.194 42.552H138.466V38.552H116.194V42.552ZM136.466 40.552V49H140.466V40.552H136.466ZM138.466 47H106.146V51H138.466V47ZM150.292 9.192L151.782 10.5252L151.787 10.5195L151.792 10.5139L150.292 9.192ZM183.316 9.192L181.815 10.5139L181.82 10.5195L181.825 10.5252L183.316 9.192ZM183.316 43.176L181.831 41.8357L181.828 41.8396L183.316 43.176ZM150.292 43.176L151.779 41.8396L151.776 41.8357L150.292 43.176ZM157.204 36.84L155.555 37.9731L155.56 37.9796L157.204 36.84ZM176.404 36.84L178.047 37.9796L178.052 37.9731L176.404 36.84ZM176.404 15.528L174.743 16.6424L174.747 16.6491L176.404 15.528ZM157.204 15.528L158.86 16.6491L158.864 16.6424L157.204 15.528ZM146.34 26.344C146.34 19.7471 148.198 14.533 151.782 10.5252L148.801 7.85883C144.449 12.7257 142.34 18.9462 142.34 26.344H146.34ZM151.792 10.5139C155.462 6.34692 160.392 4.216 166.803 4.216V0.216C159.391 0.216 153.313 2.73575 148.791 7.87012L151.792 10.5139ZM166.803 4.216C173.215 4.216 178.145 6.34692 181.815 10.5139L184.816 7.87012C180.294 2.73575 174.216 0.216 166.803 0.216V4.216ZM181.825 10.5252C185.409 14.533 187.268 19.7471 187.268 26.344H191.268C191.268 18.9462 189.158 12.7257 184.806 7.85883L181.825 10.5252ZM187.268 26.344C187.268 32.7563 185.417 37.8644 181.831 41.8357L184.8 44.5163C189.15 39.6982 191.268 33.585 191.268 26.344H187.268ZM181.828 41.8396C178.112 45.9765 173.174 48.088 166.803 48.088V52.088C174.171 52.088 180.242 49.5916 184.803 44.5124L181.828 41.8396ZM166.803 48.088C160.433 48.088 155.495 45.9765 151.779 41.8396L148.804 44.5124C153.365 49.5916 159.436 52.088 166.803 52.088V48.088ZM151.776 41.8357C148.19 37.8644 146.34 32.7563 146.34 26.344H142.34C142.34 33.585 144.457 39.6982 148.807 44.5163L151.776 41.8357ZM152.387 26.344C152.387 30.8995 153.391 34.8249 155.555 37.9731L158.852 35.7069C157.261 33.3938 156.387 30.3219 156.387 26.344H152.387ZM155.56 37.9796C158.184 41.7638 162.023 43.64 166.803 43.64V39.64C163.221 39.64 160.661 38.3162 158.847 35.7004L155.56 37.9796ZM166.803 43.64C171.584 43.64 175.423 41.7638 178.047 37.9796L174.76 35.7004C172.946 38.3162 170.386 39.64 166.803 39.64V43.64ZM178.052 37.9731C180.216 34.8249 181.219 30.8995 181.219 26.344H177.219C177.219 30.3219 176.346 33.3938 174.755 35.7069L178.052 37.9731ZM181.219 26.344C181.219 21.6348 180.223 17.6032 178.06 14.4069L174.747 16.6491C176.338 18.9995 177.219 22.1786 177.219 26.344H181.219ZM178.064 14.4136C175.482 10.566 171.63 8.664 166.803 8.664V12.664C170.425 12.664 172.973 14.0047 174.743 16.6424L178.064 14.4136ZM166.803 8.664C161.977 8.664 158.125 10.566 155.543 14.4136L158.864 16.6424C160.634 14.0047 163.182 12.664 166.803 12.664V8.664ZM155.547 14.4069C153.384 17.6032 152.387 21.6348 152.387 26.344H156.387C156.387 22.1786 157.269 18.9995 158.86 16.6491L155.547 14.4069ZM198.376 49H196.376V51H198.376V49ZM198.376 3.304V1.304H196.376V3.304H198.376ZM232.808 7.016L234.222 5.60179L234.216 5.59574L234.21 5.58975L232.808 7.016ZM229.16 27.368L228.406 25.5156L227.16 26.0228V27.368H229.16ZM229.16 27.496H227.16V29.0495L228.665 29.4338L229.16 27.496ZM235.816 38.184L237.811 38.0448L237.811 38.0445L235.816 38.184ZM236.2 43.688L234.205 43.8272L234.207 43.8605L234.211 43.8938L236.2 43.688ZM237.736 49V51H241.64L239.359 47.8314L237.736 49ZM227.688 49L225.836 49.7546L226.343 51H227.688V49ZM226.6 43.816L224.608 43.9931L224.61 44.015L224.612 44.0369L226.6 43.816ZM226.088 38.056L228.08 37.8789L228.076 37.8307L228.069 37.7827L226.088 38.056ZM223.848 32.744L222.462 34.1857L222.475 34.1987L222.489 34.2115L223.848 32.744ZM208.424 31.144V29.144H206.424V31.144H208.424ZM208.424 49V51H210.424V49H208.424ZM208.424 11.112V9.112H206.424V11.112H208.424ZM208.424 23.976H206.424V25.976H208.424V23.976ZM200.376 49V3.304H196.376V49H200.376ZM198.376 5.304H223.016V1.304H198.376V5.304ZM223.016 5.304C226.58 5.304 229.315 6.38627 231.406 8.44225L234.21 5.58975C231.267 2.69639 227.474 1.304 223.016 1.304V5.304ZM231.394 8.43021C233.388 10.4249 234.392 12.8727 234.392 15.912H238.392C238.392 11.8686 237.006 8.38579 234.222 5.60179L231.394 8.43021ZM234.392 15.912C234.392 18.4679 233.85 20.4474 232.893 21.9644C231.943 23.4687 230.491 24.6668 228.406 25.5156L229.914 29.2204C232.65 28.1066 234.814 26.4139 236.275 24.0996C237.728 21.798 238.392 19.0308 238.392 15.912H234.392ZM227.16 27.368V27.496H231.16V27.368H227.16ZM228.665 29.4338C230.163 29.8163 231.293 30.6427 232.134 31.9933C233.01 33.3998 233.621 35.46 233.821 38.3235L237.811 38.0445C237.585 34.8066 236.872 32.0349 235.53 29.8787C234.152 27.6666 232.167 26.1997 229.655 25.5582L228.665 29.4338ZM233.821 38.3232C233.949 40.1579 234.077 41.9925 234.205 43.8272L238.195 43.5488C238.067 41.7141 237.939 39.8795 237.811 38.0448L233.821 38.3232ZM234.211 43.8938C234.476 46.4562 235.029 48.6632 236.113 50.1686L239.359 47.8314C238.907 47.2035 238.436 45.8692 238.189 43.4822L234.211 43.8938ZM237.736 47H227.688V51H237.736V47ZM229.54 48.2454C229.177 47.3529 228.838 45.8448 228.588 43.5951L224.612 44.0369C224.874 46.3952 225.261 48.3431 225.836 49.7546L229.54 48.2454ZM228.592 43.6389C228.581 43.518 228.539 43.0398 228.528 42.9189C228.517 42.798 228.475 42.3198 228.464 42.1989C228.453 42.078 228.411 41.5998 228.4 41.4789C228.39 41.3652 228.346 40.8727 228.336 40.7589C228.333 40.7225 228.331 40.7054 228.328 40.6689C228.325 40.6325 228.323 40.6154 228.32 40.5789C228.317 40.5425 228.315 40.5254 228.312 40.4889C228.309 40.4525 228.307 40.4354 228.304 40.3989C228.301 40.3625 228.299 40.3454 228.296 40.3089C228.293 40.2725 228.291 40.2554 228.288 40.2189C228.285 40.1825 228.283 40.1654 228.28 40.1289C228.277 40.0925 228.275 40.0754 228.272 40.0389C228.269 40.0025 228.267 39.9854 228.264 39.9489C228.261 39.9125 228.259 39.8954 228.256 39.8589C228.253 39.8225 228.251 39.8054 228.248 39.7689C228.245 39.7325 228.243 39.7154 228.24 39.6789C228.237 39.6425 228.235 39.6254 228.232 39.5889C228.229 39.5525 228.227 39.5354 228.224 39.4989C228.221 39.4625 228.219 39.4454 228.216 39.4089C228.213 39.3725 228.211 39.3554 228.208 39.3189C228.205 39.2825 228.203 39.2654 228.2 39.2289C228.197 39.1925 228.195 39.1754 228.192 39.1389C228.189 39.1025 228.187 39.0854 228.184 39.0489C228.181 39.0125 228.179 38.9954 228.176 38.9589C228.173 38.9225 228.171 38.9054 228.168 38.8689C228.165 38.8325 228.163 38.8154 228.16 38.7789C228.157 38.7425 228.155 38.7254 228.152 38.6889C228.149 38.6525 228.147 38.6354 228.144 38.5989C228.141 38.5625 228.139 38.5454 228.136 38.5089C228.133 38.4725 228.131 38.4554 228.128 38.4189C228.125 38.3825 228.123 38.3654 228.12 38.3289C228.117 38.2925 228.115 38.2754 228.112 38.2389C228.109 38.2025 228.107 38.1854 228.104 38.1489C228.101 38.1125 228.099 38.0954 228.096 38.0589C228.093 38.0225 228.091 38.0054 228.088 37.9689C228.085 37.9325 228.083 37.9154 228.08 37.8789L224.096 38.2331C224.105 38.3397 224.15 38.8464 224.16 38.9531C224.169 39.0597 224.214 39.5664 224.224 39.6731C224.233 39.7797 224.278 40.2864 224.288 40.3931C224.298 40.5033 224.342 41.0029 224.352 41.1131C224.355 41.1504 224.381 41.4357 224.384 41.4731C224.387 41.5104 224.413 41.7957 224.416 41.8331C224.419 41.8704 224.445 42.1558 224.448 42.1931C224.451 42.2304 224.477 42.5158 224.48 42.5531C224.483 42.5904 224.509 42.8757 224.512 42.9131C224.515 42.9504 224.541 43.2357 224.544 43.2731C224.547 43.3104 224.573 43.5957 224.576 43.6331C224.579 43.6704 224.605 43.9557 224.608 43.9931L228.592 43.6389ZM228.069 37.7827C227.7 35.1041 226.848 32.7959 225.207 31.2765L222.489 34.2115C223.152 34.8254 223.794 36.0586 224.107 38.3293L228.069 37.7827ZM225.234 31.3023C223.581 29.7128 221.164 29.144 218.472 29.144V33.144C220.73 33.144 221.896 33.6419 222.462 34.1857L225.234 31.3023ZM218.472 29.144H208.424V33.144H218.472V29.144ZM206.424 31.144V49H210.424V31.144H206.424ZM208.424 47H198.376V51H208.424V47ZM206.424 11.112V23.976H210.424V11.112H206.424ZM208.424 25.976H219.432V21.976H208.424V25.976ZM219.432 25.976C222.017 25.976 224.327 25.3679 225.989 23.798C227.673 22.2079 228.344 19.9624 228.344 17.448H224.344C224.344 19.2856 223.863 20.3041 223.243 20.89C222.601 21.4961 221.455 21.976 219.432 21.976V25.976ZM228.344 17.448C228.344 14.9808 227.663 12.776 225.967 11.2217C224.305 9.69756 222.003 9.112 219.432 9.112V13.112C221.469 13.112 222.623 13.5824 223.265 14.1703C223.873 14.728 224.344 15.6912 224.344 17.448H228.344ZM219.432 9.112H208.424V13.112H219.432V9.112ZM243.923 33.832V31.832H241.94L241.924 33.8159L243.923 33.832ZM253.652 33.832H255.652V31.832H253.652V33.832ZM256.724 40.36L257.905 38.7459L257.902 38.744L256.724 40.36ZM269.523 41.192L268.674 39.3815L268.669 39.3835L269.523 41.192ZM265.62 30.696L265.073 32.6198L265.077 32.621L265.62 30.696ZM252.499 26.728L253.441 24.9633L253.405 24.944L253.368 24.9262L252.499 26.728ZM250.899 5.608L249.755 3.96748L249.746 3.97406L250.899 5.608ZM275.284 5.608L276.432 3.97041L276.428 3.96751L275.284 5.608ZM280.852 16.936V18.936H282.852V16.936H280.852ZM271.124 16.936L269.127 17.0469L269.232 18.936H271.124V16.936ZM257.427 11.176L256.398 9.46101L256.381 9.47169L256.363 9.48273L257.427 11.176ZM257.684 18.856L258.529 17.0436L258.522 17.0401L257.684 18.856ZM268.819 22.12L268.322 24.0571L268.334 24.0603L268.819 22.12ZM276.819 25.192L275.72 26.8623L275.728 26.8681L275.737 26.8737L276.819 25.192ZM277.523 45.928L278.785 47.4802L278.788 47.4777L277.523 45.928ZM249.811 46.184L248.62 47.7902L248.627 47.7956L249.811 46.184ZM243.923 35.832H253.652V31.832H243.923V35.832ZM251.652 33.832C251.652 37.2356 252.909 40.054 255.545 41.976L257.902 38.744C256.442 37.6793 255.652 36.1458 255.652 33.832H251.652ZM255.542 41.9741C257.738 43.5807 260.544 44.28 263.763 44.28V40.28C261.095 40.28 259.207 39.6993 257.905 38.7459L255.542 41.9741ZM263.763 44.28C266.263 44.28 268.497 43.8885 270.378 43.0005L268.669 39.3835C267.478 39.9462 265.872 40.28 263.763 40.28V44.28ZM270.373 43.0025C271.665 42.3962 272.761 41.5576 273.529 40.4292C274.305 39.2888 274.659 37.9786 274.659 36.584H270.659C270.659 37.2801 270.491 37.7832 270.222 38.1788C269.945 38.5864 269.473 39.0064 268.674 39.3815L270.373 43.0025ZM274.659 36.584C274.659 34.584 273.722 32.9132 272.183 31.6258C270.702 30.3876 268.637 29.4685 266.162 28.771L265.077 32.621C267.295 33.2461 268.75 33.9698 269.616 34.6942C270.424 35.3695 270.659 35.9813 270.659 36.584H274.659ZM266.166 28.7722C262.116 27.6212 259.009 26.7181 256.838 26.0616C255.752 25.733 254.911 25.4696 254.31 25.2698C253.633 25.0452 253.419 24.9519 253.441 24.9633L251.558 28.4927C251.9 28.6748 252.473 28.8748 253.049 29.0662C253.701 29.2824 254.58 29.5577 255.681 29.8904C257.883 30.5566 261.016 31.4668 265.073 32.6198L266.166 28.7722ZM253.368 24.9262C251.275 23.9179 249.824 22.6787 248.89 21.2598C247.961 19.8492 247.46 18.1374 247.46 16.04H243.46C243.46 18.8066 244.132 21.3081 245.549 23.4601C246.961 25.604 249.031 27.2768 251.631 28.5298L253.368 24.9262ZM247.46 16.04C247.46 12.303 248.951 9.43171 252.053 7.24193L249.746 3.97406C245.595 6.90428 243.46 10.9877 243.46 16.04H247.46ZM252.044 7.24849C254.904 5.2538 258.373 4.216 262.547 4.216V0.216C257.677 0.216 253.38 1.43953 249.755 3.96751L252.044 7.24849ZM262.547 4.216C267.519 4.216 271.327 5.28685 274.139 7.24849L276.428 3.96751C272.755 1.40648 268.072 0.216 262.547 0.216V4.216ZM274.135 7.24558C277.259 9.4354 278.852 12.5687 278.852 16.936H282.852C282.852 11.4046 280.732 6.98593 276.432 3.97042L274.135 7.24558ZM280.852 14.936H271.124V18.936H280.852V14.936ZM273.12 16.8251C272.968 14.0772 271.959 11.7476 269.892 10.1642C267.899 8.6377 265.202 8.024 262.099 8.024V12.024C264.757 12.024 266.444 12.5623 267.459 13.3398C268.4 14.0604 269.023 15.1868 269.127 17.0469L273.12 16.8251ZM262.099 8.024C259.985 8.024 258.053 8.46809 256.398 9.46101L258.456 12.891C259.362 12.3479 260.545 12.024 262.099 12.024V8.024ZM256.363 9.48273C254.293 10.7837 253.188 12.764 253.188 15.208H257.188C257.188 14.1534 257.575 13.4456 258.492 12.8693L256.363 9.48273ZM253.188 15.208C253.188 16.389 253.489 17.5147 254.161 18.4974C254.825 19.4681 255.765 20.1732 256.845 20.6719L258.522 17.0401C257.938 16.7708 257.63 16.4839 257.462 16.2386C257.302 16.0053 257.188 15.691 257.188 15.208H253.188ZM256.838 20.6684C257.635 21.0404 259.024 21.4995 260.865 22.0393C262.752 22.5922 265.24 23.2652 268.322 24.0571L269.317 20.1829C266.255 19.3961 263.815 18.7358 261.99 18.2007C260.119 17.6525 259.012 17.2689 258.529 17.0436L256.838 20.6684ZM268.334 24.0603C271.84 24.9367 274.25 25.8946 275.72 26.8623L277.919 23.5217C275.89 22.1854 272.967 21.0953 269.305 20.1797L268.334 24.0603ZM275.737 26.8737C278.874 28.8926 280.388 31.6705 280.388 35.432H284.388C284.388 30.3188 282.189 26.27 277.902 23.5103L275.737 26.8737ZM280.388 35.432C280.388 39.2108 279.015 42.1299 276.259 44.3783L278.788 47.4777C282.517 44.4354 284.388 40.3572 284.388 35.432H280.388ZM276.262 44.3758C273.317 46.7688 269.104 48.088 263.379 48.088V52.088C269.687 52.088 274.903 50.6339 278.785 47.4802L276.262 44.3758ZM263.379 48.088C258.193 48.088 254.116 46.8651 250.996 44.5724L248.627 47.7956C252.59 50.7082 257.558 52.088 263.379 52.088V48.088ZM251.003 44.5778C247.589 42.0449 245.885 38.5529 245.923 33.8481L241.924 33.8159C241.876 39.6925 244.098 44.4351 248.62 47.7902L251.003 44.5778Z" fill="black"/>
</svg>
