<svg width="50" height="50" viewBox="0 0 50 50" fill="none" xmlns="http://www.w3.org/2000/svg">
<mask id="path-1-inside-1" fill="white">
<path d="M30.1415 43.7556C26.0826 44.9249 21.757 44.7724 17.7905 43.3203C13.8241 41.8681 10.4225 39.1916 8.07814 35.678C5.73374 32.1644 4.56808 27.996 4.74985 23.776C4.93162 19.5559 6.45138 15.5032 9.08922 12.2042C11.7271 8.90521 15.3461 6.53107 19.4228 5.42535C23.4994 4.31962 27.8221 4.53966 31.7654 6.05362C35.7087 7.56759 39.068 10.2969 41.3572 13.8467C43.6465 17.3965 44.7468 21.5826 44.4992 25.7993L43.2273 25.7246C43.4591 21.7779 42.4291 17.8598 40.2865 14.5373C38.1438 11.2147 34.9996 8.66009 31.3088 7.24306C27.6179 5.82602 23.572 5.62007 19.7563 6.65501C15.9407 7.68994 12.5533 9.91209 10.0843 12.9999C7.61536 16.0877 6.19289 19.8809 6.02276 23.8308C5.85263 27.7806 6.94366 31.6822 9.13797 34.9708C11.3323 38.2595 14.516 40.7647 18.2286 42.1239C21.9411 43.483 25.9898 43.6258 29.7888 42.5313L30.1415 43.7556Z"/>
</mask>
<path d="M30.1415 43.7556C26.0826 44.9249 21.757 44.7724 17.7905 43.3203C13.8241 41.8681 10.4225 39.1916 8.07814 35.678C5.73374 32.1644 4.56808 27.996 4.74985 23.776C4.93162 19.5559 6.45138 15.5032 9.08922 12.2042C11.7271 8.90521 15.3461 6.53107 19.4228 5.42535C23.4994 4.31962 27.8221 4.53966 31.7654 6.05362C35.7087 7.56759 39.068 10.2969 41.3572 13.8467C43.6465 17.3965 44.7468 21.5826 44.4992 25.7993L43.2273 25.7246C43.4591 21.7779 42.4291 17.8598 40.2865 14.5373C38.1438 11.2147 34.9996 8.66009 31.3088 7.24306C27.6179 5.82602 23.572 5.62007 19.7563 6.65501C15.9407 7.68994 12.5533 9.91209 10.0843 12.9999C7.61536 16.0877 6.19289 19.8809 6.02276 23.8308C5.85263 27.7806 6.94366 31.6822 9.13797 34.9708C11.3323 38.2595 14.516 40.7647 18.2286 42.1239C21.9411 43.483 25.9898 43.6258 29.7888 42.5313L30.1415 43.7556Z" fill="white" stroke="black" stroke-width="2" mask="url(#path-1-inside-1)"/>
<rect x="14.1055" y="16.6719" width="1.50501" height="17.3076" rx="0.752506" fill="black"/>
<rect x="21.5103" y="18.6045" width="1.50501" height="14.8089" rx="0.752506" transform="rotate(43.244 21.5103 18.6045)" fill="black"/>
<rect x="23.3701" y="34.413" width="1.50501" height="11.7037" rx="0.752506" transform="rotate(135.434 23.3701 34.413)" fill="black"/>
<rect x="23.6279" y="17.6396" width="1.50501" height="18.4364" rx="0.752506" fill="black"/>
<rect x="34.7998" y="17.6125" width="1.50501" height="14.862" rx="0.752506" fill="black"/>
<rect x="37.8994" y="33.4378" width="0.485125" height="4.79061" rx="0.242563" transform="rotate(90.27 37.8994 33.4378)" fill="black"/>
<rect x="37.8994" y="34.5665" width="0.485125" height="4.79061" rx="0.242563" transform="rotate(90.27 37.8994 34.5665)" fill="black"/>
<rect x="23.3237" y="18.2384" width="1.50501" height="12.2421" rx="0.752506" transform="rotate(-32.7396 23.3237 18.2384)" fill="black"/>
<rect x="35.3066" y="17.3096" width="1.50501" height="12.2421" rx="0.752506" transform="rotate(30.1604 35.3066 17.3096)" fill="black"/>
</svg>
