<svg width="1016" height="200" viewBox="0 0 1016 200" fill="none" xmlns="http://www.w3.org/2000/svg">
<path d="M2.94 193H0.940001V195H2.94V193ZM2.94 7.35999V5.35999H0.940001V7.35999H2.94ZM60.4 7.35999L62.2935 6.71598L61.8323 5.35999H60.4V7.35999ZM103.82 135.02L101.927 135.664L102.388 137.02H103.82V135.02ZM104.34 135.02V137.02H105.797L106.244 135.633L104.34 135.02ZM145.42 7.35999V5.35999H143.963L143.516 6.74734L145.42 7.35999ZM202.88 7.35999H204.88V5.35999H202.88V7.35999ZM202.88 193V195H204.88V193H202.88ZM164.66 193H162.66V195H164.66V193ZM164.66 61.44H166.66V59.44H164.66V61.44ZM164.14 61.44V59.44H162.715L162.25 60.7863L164.14 61.44ZM118.64 193V195H120.065L120.53 193.654L118.64 193ZM87.18 193L85.2919 193.66L85.7601 195H87.18V193ZM41.68 62.74L43.5681 62.0805L43.0999 60.74H41.68V62.74ZM41.16 62.74V60.74H39.16V62.74H41.16ZM41.16 193V195H43.16V193H41.16ZM4.94 193V7.35999H0.940001V193H4.94ZM2.94 9.35999H60.4V5.35999H2.94V9.35999ZM58.5065 8.004L101.927 135.664L105.713 134.376L62.2935 6.71598L58.5065 8.004ZM103.82 137.02H104.34V133.02H103.82V137.02ZM106.244 135.633L147.324 7.97263L143.516 6.74734L102.436 134.407L106.244 135.633ZM145.42 9.35999H202.88V5.35999H145.42V9.35999ZM200.88 7.35999V193H204.88V7.35999H200.88ZM202.88 191H164.66V195H202.88V191ZM166.66 193V61.44H162.66V193H166.66ZM164.66 59.44H164.14V63.44H164.66V59.44ZM162.25 60.7863L116.75 192.346L120.53 193.654L166.03 62.0937L162.25 60.7863ZM118.64 191H87.18V195H118.64V191ZM89.0681 192.34L43.5681 62.0805L39.7919 63.3995L85.2919 193.66L89.0681 192.34ZM41.68 60.74H41.16V64.74H41.68V60.74ZM39.16 62.74V193H43.16V62.74H39.16ZM41.16 191H2.94V195H41.16V191ZM264.039 31.28L265.53 32.6132L265.535 32.6075L265.54 32.6019L264.039 31.28ZM398.199 31.28L396.698 32.6019L396.703 32.6075L396.708 32.6132L398.199 31.28ZM398.199 169.34L396.714 168L396.711 168.004L398.199 169.34ZM264.039 169.34L265.527 168.004L265.523 168L264.039 169.34ZM292.119 143.6L290.471 144.733L290.475 144.74L292.119 143.6ZM370.119 143.6L371.763 144.74L371.767 144.733L370.119 143.6ZM370.119 57.02L368.458 58.1344L368.463 58.1411L370.119 57.02ZM292.119 57.02L293.775 58.1411L293.78 58.1344L292.119 57.02ZM241.859 100.96C241.859 72.9338 249.794 50.2103 265.53 32.6132L262.548 29.9468C246.044 48.403 237.859 72.1329 237.859 100.96H241.859ZM265.54 32.6019C281.754 14.1922 303.539 4.94 331.119 4.94V0.939998C302.538 0.939998 279.604 10.5811 262.538 29.9581L265.54 32.6019ZM331.119 4.94C358.698 4.94 380.484 14.1922 396.698 32.6019L399.7 29.9581C382.634 10.5811 359.699 0.939998 331.119 0.939998V4.94ZM396.708 32.6132C412.444 50.2103 420.379 72.9338 420.379 100.96H424.379C424.379 72.1329 416.194 48.403 399.69 29.9468L396.708 32.6132ZM420.379 100.96C420.379 128.279 412.452 150.57 396.714 168L399.683 170.68C416.186 152.404 424.379 129.108 424.379 100.96H420.379ZM396.711 168.004C380.321 186.252 358.527 195.42 331.119 195.42V199.42C359.524 199.42 382.45 189.868 399.687 170.676L396.711 168.004ZM331.119 195.42C303.711 195.42 281.917 186.252 265.527 168.004L262.551 170.676C279.787 189.868 302.714 199.42 331.119 199.42V195.42ZM265.523 168C249.786 150.57 241.859 128.279 241.859 100.96H237.859C237.859 129.108 246.052 152.404 262.554 170.68L265.523 168ZM278.679 100.96C278.679 118.582 282.557 133.222 290.471 144.733L293.767 142.467C286.427 131.791 282.679 118.005 282.679 100.96H278.679ZM290.475 144.74C299.894 158.324 313.534 165.1 331.119 165.1V161.1C314.731 161.1 302.371 154.876 293.763 142.46L290.475 144.74ZM331.119 165.1C348.704 165.1 362.344 158.324 371.763 144.74L368.475 142.46C359.867 154.876 347.507 161.1 331.119 161.1V165.1ZM371.767 144.733C379.681 133.222 383.559 118.582 383.559 100.96H379.559C379.559 118.005 375.81 131.791 368.471 142.467L371.767 144.733ZM383.559 100.96C383.559 82.6614 379.688 67.5885 371.775 55.8989L368.463 58.1411C375.803 68.9848 379.559 83.2052 379.559 100.96H383.559ZM371.78 55.9056C362.534 42.1273 348.881 35.26 331.119 35.26V39.26C347.677 39.26 360.024 45.566 368.458 58.1344L371.78 55.9056ZM331.119 35.26C313.357 35.26 299.704 42.1273 290.458 55.9056L293.78 58.1344C302.214 45.566 314.561 39.26 331.119 39.26V35.26ZM290.463 55.8989C282.55 67.5885 278.679 82.6614 278.679 100.96H282.679C282.679 83.2052 286.435 68.9848 293.775 58.1411L290.463 55.8989ZM475.502 31.28L476.993 32.6132L476.998 32.6075L477.003 32.6019L475.502 31.28ZM609.662 31.28L608.161 32.6019L608.166 32.6075L608.171 32.6132L609.662 31.28ZM609.662 169.34L608.178 168L608.174 168.004L609.662 169.34ZM475.502 169.34L476.99 168.004L476.987 168L475.502 169.34ZM503.582 143.6L501.934 144.733L501.939 144.74L503.582 143.6ZM581.582 143.6L583.226 144.74L583.23 144.733L581.582 143.6ZM581.582 57.02L579.921 58.1344L579.926 58.1411L581.582 57.02ZM503.582 57.02L505.238 58.1411L505.243 58.1344L503.582 57.02ZM453.322 100.96C453.322 72.9338 461.257 50.2103 476.993 32.6132L474.011 29.9468C457.507 48.403 449.322 72.1329 449.322 100.96H453.322ZM477.003 32.6019C493.217 14.1922 515.003 4.94 542.582 4.94V0.939998C514.002 0.939998 491.067 10.5811 474.001 29.9581L477.003 32.6019ZM542.582 4.94C570.162 4.94 591.947 14.1922 608.161 32.6019L611.163 29.9581C594.097 10.5811 571.163 0.939998 542.582 0.939998V4.94ZM608.171 32.6132C623.907 50.2103 631.842 72.9338 631.842 100.96H635.842C635.842 72.1329 627.657 48.403 611.153 29.9468L608.171 32.6132ZM631.842 100.96C631.842 128.279 623.915 150.57 608.178 168L611.147 170.68C627.649 152.404 635.842 129.108 635.842 100.96H631.842ZM608.174 168.004C591.784 186.252 569.99 195.42 542.582 195.42V199.42C570.987 199.42 593.914 189.868 611.15 170.676L608.174 168.004ZM542.582 195.42C515.174 195.42 493.38 186.252 476.99 168.004L474.014 170.676C491.251 189.868 514.177 199.42 542.582 199.42V195.42ZM476.987 168C461.249 150.57 453.322 128.279 453.322 100.96H449.322C449.322 129.108 457.515 152.404 474.018 170.68L476.987 168ZM490.142 100.96C490.142 118.582 494.02 133.222 501.934 144.733L505.23 142.467C497.891 131.791 494.142 118.005 494.142 100.96H490.142ZM501.939 144.74C511.357 158.324 524.997 165.1 542.582 165.1V161.1C526.194 161.1 513.834 154.876 505.226 142.46L501.939 144.74ZM542.582 165.1C560.168 165.1 573.807 158.324 583.226 144.74L579.939 142.46C571.33 154.876 558.97 161.1 542.582 161.1V165.1ZM583.23 144.733C591.144 133.222 595.022 118.582 595.022 100.96H591.022C591.022 118.005 587.274 131.791 579.934 142.467L583.23 144.733ZM595.022 100.96C595.022 82.6614 591.151 67.5885 583.238 55.8989L579.926 58.1411C587.266 68.9848 591.022 83.2052 591.022 100.96H595.022ZM583.243 55.9056C573.997 42.1273 560.344 35.26 542.582 35.26V39.26C559.14 39.26 571.487 45.566 579.921 58.1344L583.243 55.9056ZM542.582 35.26C524.82 35.26 511.167 42.1273 501.921 55.9056L505.243 58.1344C513.677 45.566 526.024 39.26 542.582 39.26V35.26ZM501.926 55.8989C494.013 67.5885 490.142 82.6614 490.142 100.96H494.142C494.142 83.2052 497.898 68.9848 505.238 58.1411L501.926 55.8989ZM670.845 193H668.845V195H670.845V193ZM670.845 7.35999V5.35999H668.845V7.35999H670.845ZM810.985 30.24L809.555 31.6379L809.563 31.6461L809.571 31.6542L810.985 30.24ZM814.365 166.22L815.901 167.502L815.902 167.5L814.365 166.22ZM711.665 41.68V39.68H709.665V41.68H711.665ZM711.665 158.68H709.665V160.68H711.665V158.68ZM780.045 146.2L778.619 144.799L778.616 144.801L780.045 146.2ZM782.905 58.32L784.489 57.0979L784.482 57.0887L782.905 58.32ZM672.845 193V7.35999H668.845V193H672.845ZM670.845 9.35999H750.925V5.35999H670.845V9.35999ZM750.925 9.35999C775.624 9.35999 795.092 16.838 809.555 31.6379L812.416 28.8421C797.066 13.1353 776.493 5.35999 750.925 5.35999V9.35999ZM809.571 31.6542C825.211 47.2941 833.165 69.6873 833.165 99.14H837.165C837.165 68.966 829 45.4259 812.4 28.8258L809.571 31.6542ZM833.165 99.14C833.165 126.893 826.317 148.754 812.829 164.94L815.902 167.5C830.147 150.406 837.165 127.547 837.165 99.14H833.165ZM812.83 164.938C798.373 182.254 777.836 191 750.925 191V195C778.788 195 800.545 185.893 815.901 167.502L812.83 164.938ZM750.925 191H670.845V195H750.925V191ZM709.665 41.68V158.68H713.665V41.68H709.665ZM711.665 160.68H748.065V156.68H711.665V160.68ZM748.065 160.68C761.699 160.68 772.901 156.355 781.474 147.599L778.616 144.801C770.897 152.685 760.778 156.68 748.065 156.68V160.68ZM781.472 147.601C791.499 137.392 796.345 122.418 796.345 103.04H792.345C792.345 121.795 787.658 135.594 778.619 144.799L781.472 147.601ZM796.345 103.04C796.345 82.9099 792.505 67.4823 784.489 57.0979L781.322 59.5421C788.56 68.9177 792.345 83.3034 792.345 103.04H796.345ZM784.482 57.0887C775.306 45.3435 760.566 39.68 740.785 39.68V43.68C759.831 43.68 773.172 49.1098 781.329 59.5513L784.482 57.0887ZM740.785 39.68H711.665V43.68H740.785V39.68ZM872.66 193H870.66V195H872.66V193ZM872.66 7.35999V5.35999H870.66V7.35999H872.66ZM1011.5 7.35999H1013.5V5.35999H1011.5V7.35999ZM1011.5 41.68V43.68H1013.5V41.68H1011.5ZM913.48 41.68V39.68H911.48V41.68H913.48ZM913.48 81.46H911.48V83.46H913.48V81.46ZM1003.44 81.46H1005.44V79.46H1003.44V81.46ZM1003.44 113.18V115.18H1005.44V113.18H1003.44ZM913.48 113.18V111.18H911.48V113.18H913.48ZM913.48 158.68H911.48V160.68H913.48V158.68ZM1013.58 158.68H1015.58V156.68H1013.58V158.68ZM1013.58 193V195H1015.58V193H1013.58ZM874.66 193V7.35999H870.66V193H874.66ZM872.66 9.35999H1011.5V5.35999H872.66V9.35999ZM1009.5 7.35999V41.68H1013.5V7.35999H1009.5ZM1011.5 39.68H913.48V43.68H1011.5V39.68ZM911.48 41.68V81.46H915.48V41.68H911.48ZM913.48 83.46H1003.44V79.46H913.48V83.46ZM1001.44 81.46V113.18H1005.44V81.46H1001.44ZM1003.44 111.18H913.48V115.18H1003.44V111.18ZM911.48 113.18V158.68H915.48V113.18H911.48ZM913.48 160.68H1013.58V156.68H913.48V160.68ZM1011.58 158.68V193H1015.58V158.68H1011.58ZM1013.58 191H872.66V195H1013.58V191Z" fill="black"/>
</svg>
