<svg width="254" height="53" viewBox="0 0 254 53" fill="none" xmlns="http://www.w3.org/2000/svg">
<path d="M2.416 49H0.416V51H2.416V49ZM2.416 3.304V1.304H0.416V3.304H2.416ZM16.56 3.304L18.4535 2.65998L17.9923 1.304H16.56V3.304ZM27.248 34.728L25.3545 35.372L25.8157 36.728H27.248V34.728ZM27.376 34.728V36.728H28.8334L29.2799 35.3406L27.376 34.728ZM37.488 3.304V1.304H36.0306L35.5841 2.69135L37.488 3.304ZM51.632 3.304H53.632V1.304H51.632V3.304ZM51.632 49V51H53.632V49H51.632ZM42.224 49H40.224V51H42.224V49ZM42.224 16.616H44.224V14.616H42.224V16.616ZM42.096 16.616V14.616H40.6715L40.2059 15.9623L42.096 16.616ZM30.896 49V51H32.3205L32.7861 49.6537L30.896 49ZM23.152 49L21.2639 49.6595L21.7321 51H23.152V49ZM11.952 16.936L13.8401 16.2765L13.3719 14.936H11.952V16.936ZM11.824 16.936V14.936H9.824V16.936H11.824ZM11.824 49V51H13.824V49H11.824ZM4.416 49V3.304H0.416V49H4.416ZM2.416 5.304H16.56V1.304H2.416V5.304ZM14.6665 3.94801L25.3545 35.372L29.1415 34.084L18.4535 2.65998L14.6665 3.94801ZM27.248 36.728H27.376V32.728H27.248V36.728ZM29.2799 35.3406L39.3919 3.91664L35.5841 2.69135L25.4721 34.1154L29.2799 35.3406ZM37.488 5.304H51.632V1.304H37.488V5.304ZM49.632 3.304V49H53.632V3.304H49.632ZM51.632 47H42.224V51H51.632V47ZM44.224 49V16.616H40.224V49H44.224ZM42.224 14.616H42.096V18.616H42.224V14.616ZM40.2059 15.9623L29.0058 48.3463L32.7861 49.6537L43.9861 17.2697L40.2059 15.9623ZM30.896 47H23.152V51H30.896V47ZM25.0401 48.3405L13.8401 16.2765L10.0639 17.5955L21.2639 49.6595L25.0401 48.3405ZM11.952 14.936H11.824V18.936H11.952V14.936ZM9.824 16.936V49H13.824V16.936H9.824ZM11.824 47H2.416V51H11.824V47ZM66.6865 9.192L68.1774 10.5252L68.1824 10.5195L68.1874 10.5139L66.6865 9.192ZM99.7105 9.192L98.2096 10.5139L98.2146 10.5195L98.2196 10.5252L99.7105 9.192ZM99.7105 43.176L98.2261 41.8357L98.2225 41.8396L99.7105 43.176ZM66.6865 43.176L68.1745 41.8396L68.1709 41.8357L66.6865 43.176ZM73.5985 36.84L71.9504 37.9731L71.9549 37.9796L73.5985 36.84ZM92.7985 36.84L94.4421 37.9796L94.4466 37.9731L92.7985 36.84ZM92.7985 15.528L91.1378 16.6424L91.1423 16.6491L92.7985 15.528ZM73.5985 15.528L75.2547 16.6491L75.2592 16.6424L73.5985 15.528ZM62.7345 26.344C62.7345 19.7471 64.5935 14.533 68.1774 10.5252L65.1956 7.85883C60.8435 12.7257 58.7345 18.9462 58.7345 26.344H62.7345ZM68.1874 10.5139C71.8574 6.34692 76.7869 4.216 83.1985 4.216V0.216C75.7861 0.216 69.7076 2.73575 65.1856 7.87012L68.1874 10.5139ZM83.1985 4.216C89.6101 4.216 94.5396 6.34692 98.2096 10.5139L101.211 7.87012C96.6894 2.73575 90.6109 0.216 83.1985 0.216V4.216ZM98.2196 10.5252C101.804 14.533 103.663 19.7471 103.663 26.344H107.663C107.663 18.9462 105.553 12.7257 101.201 7.85883L98.2196 10.5252ZM103.663 26.344C103.663 32.7563 101.812 37.8644 98.2261 41.8357L101.195 44.5163C105.545 39.6982 107.663 33.585 107.663 26.344H103.663ZM98.2225 41.8396C94.507 45.9765 89.5692 48.088 83.1985 48.088V52.088C90.5665 52.088 96.6366 49.5916 101.198 44.5124L98.2225 41.8396ZM83.1985 48.088C76.8278 48.088 71.89 45.9765 68.1745 41.8396L65.1985 44.5124C69.7604 49.5916 75.8306 52.088 83.1985 52.088V48.088ZM68.1709 41.8357C64.5852 37.8644 62.7345 32.7563 62.7345 26.344H58.7345C58.7345 33.585 60.8518 39.6982 65.2021 44.5163L68.1709 41.8357ZM68.7825 26.344C68.7825 30.8995 69.786 34.8249 71.9504 37.9731L75.2466 35.7069C73.6563 33.3938 72.7825 30.3219 72.7825 26.344H68.7825ZM71.9549 37.9796C74.5786 41.7638 78.4184 43.64 83.1985 43.64V39.64C79.6159 39.64 77.0557 38.3162 75.2421 35.7004L71.9549 37.9796ZM83.1985 43.64C87.9786 43.64 91.8184 41.7638 94.4421 37.9796L91.1549 35.7004C89.3413 38.3162 86.7811 39.64 83.1985 39.64V43.64ZM94.4466 37.9731C96.611 34.8249 97.6145 30.8995 97.6145 26.344H93.6145C93.6145 30.3219 92.7407 33.3938 91.1504 35.7069L94.4466 37.9731ZM97.6145 26.344C97.6145 21.6348 96.6184 17.6032 94.4547 14.4069L91.1423 16.6491C92.7333 18.9995 93.6145 22.1786 93.6145 26.344H97.6145ZM94.4592 14.4136C91.8773 10.566 88.0246 8.664 83.1985 8.664V12.664C86.8204 12.664 89.3677 14.0047 91.1378 16.6424L94.4592 14.4136ZM83.1985 8.664C78.3724 8.664 74.5197 10.566 71.9378 14.4136L75.2592 16.6424C77.0293 14.0047 79.5766 12.664 83.1985 12.664V8.664ZM71.9423 14.4069C69.7786 17.6032 68.7825 21.6348 68.7825 26.344H72.7825C72.7825 22.1786 73.6637 18.9995 75.2547 16.6491L71.9423 14.4069ZM118.739 9.192L120.23 10.5252L120.235 10.5195L120.24 10.5139L118.739 9.192ZM151.763 9.192L150.262 10.5139L150.267 10.5195L150.272 10.5252L151.763 9.192ZM151.763 43.176L150.279 41.8357L150.275 41.8396L151.763 43.176ZM118.739 43.176L120.227 41.8396L120.223 41.8357L118.739 43.176ZM125.651 36.84L124.003 37.9731L124.007 37.9796L125.651 36.84ZM144.851 36.84L146.495 37.9796L146.499 37.9731L144.851 36.84ZM144.851 15.528L143.19 16.6424L143.195 16.6491L144.851 15.528ZM125.651 15.528L127.307 16.6491L127.312 16.6424L125.651 15.528ZM114.787 26.344C114.787 19.7471 116.646 14.533 120.23 10.5252L117.248 7.85883C112.896 12.7257 110.787 18.9462 110.787 26.344H114.787ZM120.24 10.5139C123.91 6.34692 128.839 4.216 135.251 4.216V0.216C127.839 0.216 121.76 2.73575 117.238 7.87012L120.24 10.5139ZM135.251 4.216C141.663 4.216 146.592 6.34692 150.262 10.5139L153.264 7.87012C148.742 2.73575 142.663 0.216 135.251 0.216V4.216ZM150.272 10.5252C153.856 14.533 155.715 19.7471 155.715 26.344H159.715C159.715 18.9462 157.606 12.7257 153.254 7.85883L150.272 10.5252ZM155.715 26.344C155.715 32.7563 153.864 37.8644 150.279 41.8357L153.247 44.5163C157.598 39.6982 159.715 33.585 159.715 26.344H155.715ZM150.275 41.8396C146.56 45.9765 141.622 48.088 135.251 48.088V52.088C142.619 52.088 148.689 49.5916 153.251 44.5124L150.275 41.8396ZM135.251 48.088C128.88 48.088 123.942 45.9765 120.227 41.8396L117.251 44.5124C121.813 49.5916 127.883 52.088 135.251 52.088V48.088ZM120.223 41.8357C116.638 37.8644 114.787 32.7563 114.787 26.344H110.787C110.787 33.585 112.904 39.6982 117.255 44.5163L120.223 41.8357ZM120.835 26.344C120.835 30.8995 121.839 34.8249 124.003 37.9731L127.299 35.7069C125.709 33.3938 124.835 30.3219 124.835 26.344H120.835ZM124.007 37.9796C126.631 41.7638 130.471 43.64 135.251 43.64V39.64C131.668 39.64 129.108 38.3162 127.295 35.7004L124.007 37.9796ZM135.251 43.64C140.031 43.64 143.871 41.7638 146.495 37.9796L143.207 35.7004C141.394 38.3162 138.834 39.64 135.251 39.64V43.64ZM146.499 37.9731C148.663 34.8249 149.667 30.8995 149.667 26.344H145.667C145.667 30.3219 144.793 33.3938 143.203 35.7069L146.499 37.9731ZM149.667 26.344C149.667 21.6348 148.671 17.6032 146.507 14.4069L143.195 16.6491C144.786 18.9995 145.667 22.1786 145.667 26.344H149.667ZM146.512 14.4136C143.93 10.566 140.077 8.664 135.251 8.664V12.664C138.873 12.664 141.42 14.0047 143.19 16.6424L146.512 14.4136ZM135.251 8.664C130.425 8.664 126.572 10.566 123.99 14.4136L127.312 16.6424C129.082 14.0047 131.629 12.664 135.251 12.664V8.664ZM123.995 14.4069C121.831 17.6032 120.835 21.6348 120.835 26.344H124.835C124.835 22.1786 125.716 18.9995 127.307 16.6491L123.995 14.4069ZM166.824 49H164.824V51H166.824V49ZM166.824 3.304V1.304H164.824V3.304H166.824ZM201.32 8.936L199.889 10.3339L199.897 10.3421L199.905 10.3502L201.32 8.936ZM202.152 42.408L203.687 43.6898L203.688 43.6884L202.152 42.408ZM176.872 11.752V9.752H174.872V11.752H176.872ZM176.872 40.552H174.872V42.552H176.872V40.552ZM193.704 37.48L192.277 36.0786L192.274 36.0807L193.704 37.48ZM194.408 15.848L195.991 14.6259L195.984 14.6167L194.408 15.848ZM168.824 49V3.304H164.824V49H168.824ZM166.824 5.304H186.536V1.304H166.824V5.304ZM186.536 5.304C192.288 5.304 196.663 7.03264 199.889 10.3339L202.75 7.53813C198.637 3.33002 193.157 1.304 186.536 1.304V5.304ZM199.905 10.3502C203.393 13.8381 205.271 18.918 205.271 25.896H209.271C209.271 18.1967 207.182 11.9699 202.734 7.52178L199.905 10.3502ZM205.271 25.896C205.271 32.481 203.65 37.4862 200.615 41.1276L203.688 43.6884C207.48 39.1378 209.271 33.135 209.271 25.896H205.271ZM200.616 41.1262C197.396 44.9831 192.801 47 186.536 47V51C193.753 51 199.568 48.6222 203.687 43.6898L200.616 41.1262ZM186.536 47H166.824V51H186.536V47ZM174.872 11.752V40.552H178.872V11.752H174.872ZM176.872 42.552H185.831V38.552H176.872V42.552ZM185.831 42.552C189.535 42.552 192.7 41.3633 195.133 38.8792L192.274 36.0807C190.696 37.6927 188.614 38.552 185.831 38.552V42.552ZM195.13 38.8814C197.971 35.9896 199.224 31.8606 199.224 26.856H195.224C195.224 31.238 194.13 34.1917 192.277 36.0786L195.13 38.8814ZM199.224 26.856C199.224 21.7526 198.257 17.5623 195.991 14.6259L192.824 17.0701C194.312 18.9977 195.224 22.1461 195.224 26.856H199.224ZM195.984 14.6167C193.341 11.2342 189.186 9.752 184.04 9.752V13.752C188.451 13.752 191.207 15.0005 192.831 17.0793L195.984 14.6167ZM184.04 9.752H176.872V13.752H184.04V9.752ZM216.501 49H214.501V51H216.501V49ZM216.501 3.304V1.304H214.501V3.304H216.501ZM250.677 3.304H252.677V1.304H250.677V3.304ZM250.677 11.752V13.752H252.677V11.752H250.677ZM226.549 11.752V9.752H224.549V11.752H226.549ZM226.549 21.544H224.549V23.544H226.549V21.544ZM248.693 21.544H250.693V19.544H248.693V21.544ZM248.693 29.352V31.352H250.693V29.352H248.693ZM226.549 29.352V27.352H224.549V29.352H226.549ZM226.549 40.552H224.549V42.552H226.549V40.552ZM251.189 40.552H253.189V38.552H251.189V40.552ZM251.189 49V51H253.189V49H251.189ZM218.501 49V3.304H214.501V49H218.501ZM216.501 5.304H250.677V1.304H216.501V5.304ZM248.677 3.304V11.752H252.677V3.304H248.677ZM250.677 9.752H226.549V13.752H250.677V9.752ZM224.549 11.752V21.544H228.549V11.752H224.549ZM226.549 23.544H248.693V19.544H226.549V23.544ZM246.693 21.544V29.352H250.693V21.544H246.693ZM248.693 27.352H226.549V31.352H248.693V27.352ZM224.549 29.352V40.552H228.549V29.352H224.549ZM226.549 42.552H251.189V38.552H226.549V42.552ZM249.189 40.552V49H253.189V40.552H249.189ZM251.189 47H216.501V51H251.189V47Z" fill="black"/>
</svg>
