<svg width="740" height="190" viewBox="0 0 740 190" fill="none" xmlns="http://www.w3.org/2000/svg">
<path d="M2.94 188H0.940001V190H2.94V188ZM2.94 2.35999V0.359988H0.940001V2.35999H2.94ZM43.5 2.35999L45.1982 1.3035L44.6112 0.359988H43.5V2.35999ZM120.98 126.9L119.282 127.956L119.869 128.9H120.98V126.9ZM121.5 126.9V128.9H123.5V126.9H121.5ZM121.5 2.35999V0.359988H119.5V2.35999H121.5ZM159.72 2.35999H161.72V0.359988H159.72V2.35999ZM159.72 188V190H161.72V188H159.72ZM118.9 188L117.201 189.056L117.788 190H118.9V188ZM41.68 63.72L43.3788 62.6645L42.7919 61.72H41.68V63.72ZM41.16 63.72V61.72H39.16V63.72H41.16ZM41.16 188V190H43.16V188H41.16ZM4.94 188V2.35999H0.940001V188H4.94ZM2.94 4.35999H43.5V0.359988H2.94V4.35999ZM41.8018 3.41648L119.282 127.956L122.678 125.844L45.1982 1.3035L41.8018 3.41648ZM120.98 128.9H121.5V124.9H120.98V128.9ZM123.5 126.9V2.35999H119.5V126.9H123.5ZM121.5 4.35999H159.72V0.359988H121.5V4.35999ZM157.72 2.35999V188H161.72V2.35999H157.72ZM159.72 186H118.9V190H159.72V186ZM120.599 186.944L43.3788 62.6645L39.9812 64.7755L117.201 189.056L120.599 186.944ZM41.68 61.72H41.16V65.72H41.68V61.72ZM39.16 63.72V188H43.16V63.72H39.16ZM41.16 186H2.94V190H41.16V186ZM241.155 188H239.155V190H241.155V188ZM241.155 2.35999V0.359988H239.155V2.35999H241.155ZM281.975 2.35999H283.975V0.359988H281.975V2.35999ZM281.975 188V190H283.975V188H281.975ZM243.155 188V2.35999H239.155V188H243.155ZM241.155 4.35999H281.975V0.359988H241.155V4.35999ZM279.975 2.35999V188H283.975V2.35999H279.975ZM281.975 186H241.155V190H281.975V186ZM363.335 188H361.335V190H363.335V188ZM363.335 2.35999V0.359988H361.335V2.35999H363.335ZM404.155 2.35999H406.155V0.359988H404.155V2.35999ZM404.155 79.32H402.155V84.3577L405.61 80.6918L404.155 79.32ZM476.695 2.35999V0.359988H475.831L475.239 0.988185L476.695 2.35999ZM527.655 2.35999L529.076 3.76662L532.447 0.359988H527.655V2.35999ZM455.115 75.68L453.693 74.2734L452.512 75.4665L453.482 76.836L455.115 75.68ZM534.675 188V190H538.542L536.307 186.844L534.675 188ZM483.455 188L481.793 189.113L482.387 190H483.455V188ZM427.555 104.54L429.216 103.427L427.854 101.393L426.133 103.134L427.555 104.54ZM404.155 128.2L402.733 126.794L402.155 127.378V128.2H404.155ZM404.155 188V190H406.155V188H404.155ZM365.335 188V2.35999H361.335V188H365.335ZM363.335 4.35999H404.155V0.359988H363.335V4.35999ZM402.155 2.35999V79.32H406.155V2.35999H402.155ZM405.61 80.6918L478.15 3.73179L475.239 0.988185L402.699 77.9482L405.61 80.6918ZM476.695 4.35999H527.655V0.359988H476.695V4.35999ZM526.233 0.953357L453.693 74.2734L456.536 77.0866L529.076 3.76662L526.233 0.953357ZM453.482 76.836L533.042 189.156L536.307 186.844L456.747 74.524L453.482 76.836ZM534.675 186H483.455V190H534.675V186ZM485.116 186.887L429.216 103.427L425.893 105.653L481.793 189.113L485.116 186.887ZM426.133 103.134L402.733 126.794L405.577 129.606L428.977 105.946L426.133 103.134ZM402.155 128.2V188H406.155V128.2H402.155ZM404.155 186H363.335V190H404.155V186ZM596.471 188H594.471V190H596.471V188ZM596.471 2.35999V0.359988H594.471V2.35999H596.471ZM735.311 2.35999H737.311V0.359988H735.311V2.35999ZM735.311 36.68V38.68H737.311V36.68H735.311ZM637.291 36.68V34.68H635.291V36.68H637.291ZM637.291 76.46H635.291V78.46H637.291V76.46ZM727.251 76.46H729.251V74.46H727.251V76.46ZM727.251 108.18V110.18H729.251V108.18H727.251ZM637.291 108.18V106.18H635.291V108.18H637.291ZM637.291 153.68H635.291V155.68H637.291V153.68ZM737.391 153.68H739.391V151.68H737.391V153.68ZM737.391 188V190H739.391V188H737.391ZM598.471 188V2.35999H594.471V188H598.471ZM596.471 4.35999H735.311V0.359988H596.471V4.35999ZM733.311 2.35999V36.68H737.311V2.35999H733.311ZM735.311 34.68H637.291V38.68H735.311V34.68ZM635.291 36.68V76.46H639.291V36.68H635.291ZM637.291 78.46H727.251V74.46H637.291V78.46ZM725.251 76.46V108.18H729.251V76.46H725.251ZM727.251 106.18H637.291V110.18H727.251V106.18ZM635.291 108.18V153.68H639.291V108.18H635.291ZM637.291 155.68H737.391V151.68H637.291V155.68ZM735.391 153.68V188H739.391V153.68H735.391ZM737.391 186H596.471V190H737.391V186Z" fill="black"/>
</svg>
