<svg width="566" height="200" viewBox="0 0 566 200" fill="none" xmlns="http://www.w3.org/2000/svg">
<path d="M27.06 31.28L28.5509 32.6132L28.5559 32.6075L28.5609 32.6019L27.06 31.28ZM161.22 31.28L159.719 32.6019L159.724 32.6075L159.729 32.6132L161.22 31.28ZM161.22 169.34L159.736 168L159.732 168.004L161.22 169.34ZM27.06 169.34L28.548 168.004L28.5444 168L27.06 169.34ZM55.14 143.6L53.4919 144.733L53.4964 144.74L55.14 143.6ZM133.14 143.6L134.784 144.74L134.788 144.733L133.14 143.6ZM133.14 57.02L131.479 58.1344L131.484 58.1411L133.14 57.02ZM55.14 57.02L56.7962 58.1411L56.8007 58.1344L55.14 57.02ZM4.88 100.96C4.88 72.9338 12.815 50.2103 28.5509 32.6132L25.5691 29.9468C9.06504 48.403 0.880001 72.1329 0.880001 100.96H4.88ZM28.5609 32.6019C44.7749 14.1922 66.5604 4.94 94.14 4.94V0.939998C65.5596 0.939998 42.6251 10.5811 25.5591 29.9581L28.5609 32.6019ZM94.14 4.94C121.72 4.94 143.505 14.1922 159.719 32.6019L162.721 29.9581C145.655 10.5811 122.72 0.939998 94.14 0.939998V4.94ZM159.729 32.6132C175.465 50.2103 183.4 72.9338 183.4 100.96H187.4C187.4 72.1329 179.215 48.403 162.711 29.9468L159.729 32.6132ZM183.4 100.96C183.4 128.279 175.473 150.57 159.736 168L162.704 170.68C179.207 152.404 187.4 129.108 187.4 100.96H183.4ZM159.732 168.004C143.342 186.252 121.548 195.42 94.14 195.42V199.42C122.545 199.42 145.471 189.868 162.708 170.676L159.732 168.004ZM94.14 195.42C66.732 195.42 44.9381 186.252 28.548 168.004L25.572 170.676C42.8085 189.868 65.7347 199.42 94.14 199.42V195.42ZM28.5444 168C12.8067 150.57 4.88 128.279 4.88 100.96H0.880001C0.880001 129.108 9.07326 152.404 25.5756 170.68L28.5444 168ZM41.7 100.96C41.7 118.582 45.5782 133.222 53.4919 144.733L56.7881 142.467C49.4485 131.791 45.7 118.005 45.7 100.96H41.7ZM53.4964 144.74C62.9148 158.324 76.5546 165.1 94.14 165.1V161.1C77.7521 161.1 65.3919 154.876 56.7836 142.46L53.4964 144.74ZM94.14 165.1C111.725 165.1 125.365 158.324 134.784 144.74L131.496 142.46C122.888 154.876 110.528 161.1 94.14 161.1V165.1ZM134.788 144.733C142.702 133.222 146.58 118.582 146.58 100.96H142.58C142.58 118.005 138.832 131.791 131.492 142.467L134.788 144.733ZM146.58 100.96C146.58 82.6614 142.709 67.5885 134.796 55.8989L131.484 58.1411C138.824 68.9848 142.58 83.2052 142.58 100.96H146.58ZM134.801 55.9056C125.555 42.1273 111.902 35.26 94.14 35.26V39.26C110.698 39.26 123.045 45.566 131.479 58.1344L134.801 55.9056ZM94.14 35.26C76.3779 35.26 62.7252 42.1273 53.4793 55.9056L56.8007 58.1344C65.2348 45.566 77.5821 39.26 94.14 39.26V35.26ZM53.4838 55.8989C45.5708 67.5885 41.7 82.6614 41.7 100.96H45.7C45.7 83.2052 49.4559 68.9848 56.7962 58.1411L53.4838 55.8989ZM222.403 193H220.403V195H222.403V193ZM222.403 7.35999V5.35999H220.403V7.35999H222.403ZM362.283 22.44L363.698 21.0258L363.691 21.0197L363.685 21.0137L362.283 22.44ZM347.463 105.12L346.709 103.268L345.463 103.775V105.12H347.463ZM347.463 105.64H345.463V107.194L346.969 107.578L347.463 105.64ZM374.503 149.06L376.498 148.921L376.498 148.92L374.503 149.06ZM376.063 171.42L374.068 171.559L374.07 171.593L374.074 171.626L376.063 171.42ZM382.303 193V195H386.208L383.926 191.831L382.303 193ZM341.483 193L339.631 193.755L340.138 195H341.483V193ZM337.063 171.94L335.071 172.117L335.073 172.139L335.076 172.161L337.063 171.94ZM334.983 148.54L336.975 148.363L336.971 148.315L336.965 148.267L334.983 148.54ZM325.883 126.96L324.497 128.402L324.511 128.415L324.524 128.428L325.883 126.96ZM263.223 120.46V118.46H261.223V120.46H263.223ZM263.223 193V195H265.223V193H263.223ZM263.223 39.08V37.08H261.223V39.08H263.223ZM263.223 91.34H261.223V93.34H263.223V91.34ZM224.403 193V7.35999H220.403V193H224.403ZM222.403 9.35999H322.503V5.35999H222.403V9.35999ZM322.503 9.35999C338.35 9.35999 351.08 14.2316 360.881 23.8662L363.685 21.0137C353.033 10.5417 339.244 5.35999 322.503 5.35999V9.35999ZM360.869 23.8542C370.181 33.1662 374.843 44.6954 374.843 58.58H378.843C378.843 43.6913 373.799 31.1271 363.698 21.0258L360.869 23.8542ZM374.843 58.58C374.843 69.8252 372.456 79.073 367.807 86.4374C363.166 93.7891 356.177 99.4134 346.709 103.268L348.217 106.972C358.336 102.853 366.037 96.7343 371.189 88.5726C376.334 80.4236 378.843 70.3881 378.843 58.58H374.843ZM345.463 105.12V105.64H349.463V105.12H345.463ZM346.969 107.578C354.608 109.528 360.507 113.866 364.746 120.672C369.019 127.534 371.655 136.993 372.508 149.2L376.498 148.92C375.619 136.34 372.881 126.169 368.141 118.558C363.366 110.89 356.612 105.912 347.958 103.702L346.969 107.578ZM372.508 149.199C373.028 156.653 373.548 164.106 374.068 171.559L378.058 171.281C377.538 163.827 377.018 156.374 376.498 148.921L372.508 149.199ZM374.074 171.626C375.123 181.767 377.244 189.397 380.68 194.169L383.926 191.831C381.122 187.937 379.084 181.18 378.053 171.214L374.074 171.626ZM382.303 191H341.483V195H382.303V191ZM343.335 192.245C341.535 187.825 340.085 181.025 339.051 171.719L335.076 172.161C336.122 181.575 337.619 188.815 339.631 193.755L343.335 192.245ZM339.055 171.763C339.037 171.557 339.009 171.238 338.99 171.032C338.972 170.826 338.944 170.506 338.925 170.3C338.907 170.095 338.879 169.775 338.86 169.569C338.842 169.363 338.814 169.044 338.795 168.838C338.777 168.632 338.749 168.313 338.73 168.107C338.712 167.901 338.684 167.581 338.665 167.375C338.647 167.17 338.619 166.85 338.6 166.644C338.582 166.438 338.554 166.119 338.535 165.913C338.517 165.707 338.489 165.388 338.47 165.182C338.452 164.976 338.424 164.656 338.405 164.45C338.387 164.245 338.359 163.925 338.34 163.719C338.322 163.513 338.294 163.194 338.275 162.988C338.257 162.782 338.229 162.463 338.21 162.257C338.192 162.051 338.164 161.731 338.145 161.525C338.127 161.323 338.098 160.996 338.08 160.794C338.062 160.592 338.033 160.265 338.015 160.063C337.969 159.543 337.932 159.12 337.885 158.6C337.839 158.08 337.802 157.658 337.755 157.138C337.709 156.618 337.672 156.195 337.625 155.675C337.579 155.155 337.542 154.733 337.495 154.213C337.449 153.693 337.412 153.27 337.365 152.75C337.319 152.23 337.282 151.808 337.235 151.288C337.189 150.768 337.152 150.345 337.105 149.825C337.059 149.305 337.022 148.883 336.975 148.363L332.991 148.717C333.009 148.919 333.038 149.246 333.056 149.448C333.074 149.651 333.103 149.977 333.121 150.18C333.139 150.382 333.168 150.709 333.186 150.911C333.204 151.113 333.233 151.44 333.251 151.642C333.269 151.844 333.298 152.171 333.316 152.373C333.334 152.576 333.363 152.902 333.381 153.105C333.399 153.307 333.428 153.634 333.446 153.836C333.464 154.038 333.493 154.365 333.511 154.567C333.529 154.769 333.558 155.096 333.576 155.298C333.594 155.501 333.623 155.827 333.641 156.03C333.659 156.232 333.688 156.559 333.706 156.761C333.724 156.963 333.753 157.29 333.771 157.492C333.789 157.694 333.818 158.021 333.836 158.223C333.854 158.426 333.883 158.752 333.901 158.955C333.919 159.157 333.948 159.484 333.966 159.686C333.984 159.888 334.013 160.215 334.031 160.417C334.079 160.959 334.113 161.338 334.161 161.88C334.209 162.414 334.244 162.808 334.291 163.342C334.339 163.876 334.374 164.27 334.421 164.805C334.469 165.339 334.504 165.733 334.551 166.267C334.599 166.802 334.634 167.195 334.681 167.73C334.729 168.264 334.764 168.658 334.811 169.192C334.859 169.727 334.894 170.12 334.941 170.655C334.989 171.189 335.024 171.583 335.071 172.117L339.055 171.763ZM336.965 148.267C335.55 138.009 332.411 130.279 327.242 125.492L324.524 128.428C328.715 132.308 331.644 138.964 333.002 148.813L336.965 148.267ZM327.27 125.518C322.219 120.662 314.313 118.46 304.043 118.46V122.46C313.88 122.46 320.534 124.591 324.497 128.402L327.27 125.518ZM304.043 118.46H263.223V122.46H304.043V118.46ZM261.223 120.46V193H265.223V120.46H261.223ZM263.223 191H222.403V195H263.223V191ZM261.223 39.08V91.34H265.223V39.08H261.223ZM263.223 93.34H307.943V89.34H263.223V93.34ZM307.943 93.34C317.584 93.34 325.186 91.0658 330.377 86.164C335.588 81.2419 338.023 73.9984 338.023 64.82H334.023C334.023 73.3216 331.778 79.3381 327.63 83.256C323.46 87.1941 317.023 89.34 307.943 89.34V93.34ZM338.023 64.82C338.023 55.8848 335.578 48.829 330.355 44.0407C325.164 39.2826 317.571 37.08 307.943 37.08V41.08C317.036 41.08 323.483 43.1674 327.652 46.9893C331.788 50.781 334.023 56.5952 334.023 64.82H338.023ZM307.943 37.08H263.223V41.08H307.943V37.08ZM407.44 131.38V129.38H405.456L405.44 131.364L407.44 131.38ZM446.96 131.38H448.96V129.38H446.96V131.38ZM459.44 157.9L460.621 156.286L460.618 156.284L459.44 157.9ZM511.44 161.28L510.59 159.47L510.586 159.472L511.44 161.28ZM495.58 118.64L495.033 120.564L495.038 120.565L495.58 118.64ZM442.28 102.52L443.221 100.755L443.185 100.736L443.148 100.718L442.28 102.52ZM435.78 16.72L434.636 15.0795L434.627 15.0861L435.78 16.72ZM534.84 16.72L535.988 15.0824L535.984 15.0795L534.84 16.72ZM557.46 62.74V64.74H559.46V62.74H557.46ZM517.94 62.74L515.943 62.8509L516.048 64.74H517.94V62.74ZM462.3 39.34L461.271 37.625L461.253 37.6357L461.236 37.6467L462.3 39.34ZM463.34 70.54L464.186 68.7276L464.178 68.7241L463.34 70.54ZM508.58 83.8L508.082 85.7371L508.095 85.7403L508.58 83.8ZM541.08 96.28L539.98 97.9503L539.989 97.9561L539.998 97.9617L541.08 96.28ZM543.94 180.52L545.201 182.072L545.204 182.07L543.94 180.52ZM431.36 181.56L430.168 183.166L430.176 183.172L431.36 181.56ZM407.44 133.38H446.96V129.38H407.44V133.38ZM444.96 131.38C444.96 143.538 449.354 153.021 458.262 159.516L460.618 156.284C452.886 150.646 448.96 142.448 448.96 131.38H444.96ZM458.259 159.514C465.812 165.041 475.805 167.7 488.04 167.7V163.7C476.355 163.7 467.281 161.159 460.621 156.286L458.259 159.514ZM488.04 167.7C497.596 167.7 505.71 166.198 512.294 163.088L510.586 159.472C504.69 162.256 497.204 163.7 488.04 163.7V167.7ZM512.29 163.09C516.783 160.982 520.28 158.216 522.648 154.735C525.025 151.243 526.18 147.156 526.18 142.56H522.18C522.18 146.457 521.211 149.737 519.342 152.485C517.464 155.244 514.591 157.592 510.59 159.47L512.29 163.09ZM526.18 142.56C526.18 136.575 523.446 131.409 518.313 127.116C513.239 122.872 505.784 119.438 496.123 116.715L495.038 120.565C504.442 123.215 511.287 126.454 515.747 130.184C520.148 133.865 522.18 137.972 522.18 142.56H526.18ZM496.127 116.716C479.664 112.037 467.001 108.357 458.134 105.676C453.699 104.334 450.225 103.246 447.704 102.409C445.108 101.548 443.69 101.005 443.221 100.755L441.339 104.285C442.17 104.728 443.948 105.377 446.444 106.206C449.014 107.059 452.528 108.159 456.976 109.504C465.875 112.196 478.563 115.883 495.033 120.564L496.127 116.716ZM443.148 100.718C433.869 96.2472 427.028 90.549 422.5 83.6748C417.978 76.8089 415.68 68.6453 415.68 59.1H411.68C411.68 69.3146 414.149 78.2678 419.16 85.8751C424.165 93.4743 431.625 99.6061 441.412 104.322L443.148 100.718ZM415.68 59.1C415.68 41.9043 422.725 28.3837 436.933 18.3539L434.627 15.0861C419.369 25.8563 411.68 40.589 411.68 59.1H415.68ZM436.924 18.3605C449.715 9.44046 465.075 4.94 483.1 4.94V0.939998C464.379 0.939998 448.192 5.6262 434.636 15.0795L436.924 18.3605ZM483.1 4.94C504.143 4.94 520.952 9.47352 533.696 18.3605L535.984 15.0795C522.381 5.59314 504.697 0.939998 483.1 0.939998V4.94ZM533.692 18.3576C548.183 28.5181 555.46 43.2154 555.46 62.74H559.46C559.46 42.0513 551.657 26.0686 535.988 15.0824L533.692 18.3576ZM557.46 60.74H517.94V64.74H557.46V60.74ZM519.937 62.629C519.392 52.8252 515.884 45.2036 509.211 40.0922C502.612 35.0377 493.203 32.66 481.28 32.66V36.66C492.757 36.66 501.158 38.9623 506.779 43.2677C512.326 47.5163 515.448 53.9348 515.943 62.8509L519.937 62.629ZM481.28 32.66C473.547 32.66 466.846 34.2801 461.271 37.625L463.329 41.055C468.154 38.1599 474.106 36.66 481.28 36.66V32.66ZM461.236 37.6467C454.593 41.8224 451.2 47.9186 451.2 55.72H455.2C455.2 49.308 457.874 44.4843 463.364 41.0333L461.236 37.6467ZM451.2 55.72C451.2 59.449 452.138 62.7797 454.084 65.6244C456.023 68.4571 458.873 70.6812 462.502 72.3559L464.178 68.7241C461.047 67.2788 458.827 65.4729 457.386 63.3656C455.952 61.2703 455.2 58.751 455.2 55.72H451.2ZM462.494 72.3524C465.251 73.639 470.462 75.3885 477.987 77.5943C485.558 79.8132 495.592 82.5279 508.082 85.7371L509.078 81.8629C496.608 78.6588 486.622 75.9567 479.113 73.7557C471.558 71.5415 466.629 69.8676 464.186 68.7276L462.494 72.3524ZM508.095 85.7403C522.577 89.3607 533.153 93.4546 539.98 97.9503L542.18 94.6097C534.794 89.7454 523.703 85.5193 509.065 81.8597L508.095 85.7403ZM539.998 97.9617C554.502 107.298 561.7 120.529 561.7 137.88H565.7C565.7 119.177 557.818 104.675 542.163 94.5983L539.998 97.9617ZM561.7 137.88C561.7 154.987 555.362 168.621 542.676 178.97L545.204 182.07C558.864 170.926 565.7 156.133 565.7 137.88H561.7ZM542.679 178.968C529.28 189.854 510.629 195.42 486.48 195.42V199.42C511.211 199.42 530.866 193.719 545.201 182.072L542.679 178.968ZM486.48 195.42C464.437 195.42 446.509 190.212 432.544 179.948L430.176 183.172C444.984 194.055 463.803 199.42 486.48 199.42V195.42ZM432.552 179.954C416.986 168.405 409.271 152.304 409.44 131.396L405.44 131.364C405.262 153.443 413.494 170.795 430.168 183.166L432.552 179.954Z" fill="black"/>
</svg>
