<svg width="583" height="155" viewBox="0 0 583 155" fill="none" xmlns="http://www.w3.org/2000/svg">
<path d="M2.8 149H0.800001V151H2.8V149ZM2.8 6.19999V4.19999H0.800001V6.19999H2.8ZM103.2 6.19999H105.2V4.19999H103.2V6.19999ZM103.2 32.6V34.6H105.2V32.6H103.2ZM34.2 32.6V30.6H32.2V32.6H34.2ZM34.2 65.6H32.2V67.6H34.2V65.6ZM94 65.6H96V63.6H94V65.6ZM94 90V92H96V90H94ZM34.2 90V88H32.2V90H34.2ZM34.2 149V151H36.2V149H34.2ZM4.8 149V6.19999H0.800001V149H4.8ZM2.8 8.19999H103.2V4.19999H2.8V8.19999ZM101.2 6.19999V32.6H105.2V6.19999H101.2ZM103.2 30.6H34.2V34.6H103.2V30.6ZM32.2 32.6V65.6H36.2V32.6H32.2ZM34.2 67.6H94V63.6H34.2V67.6ZM92 65.6V90H96V65.6H92ZM94 88H34.2V92H94V88ZM32.2 90V149H36.2V90H32.2ZM34.2 147H2.8V151H34.2V147ZM140.755 24.6L142.246 25.9332L142.251 25.9275L142.256 25.9219L140.755 24.6ZM243.955 24.6L242.454 25.9219L242.459 25.9275L242.464 25.9332L243.955 24.6ZM243.955 130.8L242.47 129.46L242.467 129.464L243.955 130.8ZM140.755 130.8L142.243 129.464L142.239 129.46L140.755 130.8ZM162.355 111L160.707 112.133L160.711 112.14L162.355 111ZM222.355 111L223.998 112.14L224.003 112.133L222.355 111ZM222.355 44.4L220.694 45.5144L220.698 45.5211L222.355 44.4ZM162.355 44.4L164.011 45.5211L164.015 45.5144L162.355 44.4ZM124.155 78.2C124.155 56.7338 130.23 39.3703 142.246 25.9332L139.264 23.2668C126.48 37.563 120.155 55.9329 120.155 78.2H124.155ZM142.256 25.9219C154.63 11.8722 171.255 4.8 192.355 4.8V0.799999C170.254 0.799999 152.48 8.26108 139.254 23.2781L142.256 25.9219ZM192.355 4.8C213.454 4.8 230.08 11.8722 242.454 25.9219L245.456 23.2781C232.23 8.26108 214.455 0.799999 192.355 0.799999V4.8ZM242.464 25.9332C254.48 39.3703 260.555 56.7338 260.555 78.2H264.555C264.555 55.9329 258.23 37.563 245.446 23.2668L242.464 25.9332ZM260.555 78.2C260.555 99.119 254.488 116.15 242.47 129.46L245.439 132.14C258.221 117.984 264.555 99.9477 264.555 78.2H260.555ZM242.467 129.464C229.957 143.392 213.323 150.4 192.355 150.4V154.4C214.32 154.4 232.086 147.008 245.443 132.136L242.467 129.464ZM192.355 150.4C171.387 150.4 154.753 143.392 142.243 129.464L139.267 132.136C152.623 147.008 170.389 154.4 192.355 154.4V150.4ZM142.239 129.46C130.221 116.15 124.155 99.119 124.155 78.2H120.155C120.155 99.9477 126.488 117.984 139.27 132.14L142.239 129.46ZM151.555 78.2C151.555 91.8221 154.553 103.182 160.707 112.133L164.003 109.867C158.423 101.751 155.555 91.2445 155.555 78.2H151.555ZM160.711 112.14C168.049 122.724 178.689 128 192.355 128V124C179.887 124 170.527 119.276 163.998 109.86L160.711 112.14ZM192.355 128C206.02 128 216.66 122.724 223.998 112.14L220.711 109.86C214.183 119.276 204.823 124 192.355 124V128ZM224.003 112.133C230.156 103.182 233.155 91.8221 233.155 78.2H229.155C229.155 91.2445 226.286 101.751 220.707 109.867L224.003 112.133ZM233.155 78.2C233.155 64.0614 230.164 52.3685 224.011 43.2789L220.698 45.5211C226.279 53.7648 229.155 64.6052 229.155 78.2H233.155ZM224.015 43.2856C216.809 32.5473 206.157 27.2 192.355 27.2V31.2C204.953 31.2 214.3 35.986 220.694 45.5144L224.015 43.2856ZM192.355 27.2C178.553 27.2 167.9 32.5473 160.694 43.2856L164.015 45.5144C170.409 35.986 179.757 31.2 192.355 31.2V27.2ZM160.698 43.2789C154.545 52.3685 151.555 64.0614 151.555 78.2H155.555C155.555 64.6052 158.431 53.7648 164.011 45.5211L160.698 43.2789ZM303.419 24.6L304.91 25.9332L304.915 25.9275L304.92 25.9219L303.419 24.6ZM406.619 24.6L405.118 25.9219L405.123 25.9275L405.128 25.9332L406.619 24.6ZM406.619 130.8L405.134 129.46L405.131 129.464L406.619 130.8ZM303.419 130.8L304.907 129.464L304.903 129.46L303.419 130.8ZM325.019 111L323.371 112.133L323.375 112.14L325.019 111ZM385.019 111L386.662 112.14L386.667 112.133L385.019 111ZM385.019 44.4L383.358 45.5144L383.363 45.5211L385.019 44.4ZM325.019 44.4L326.675 45.5211L326.679 45.5144L325.019 44.4ZM286.819 78.2C286.819 56.7338 292.894 39.3703 304.91 25.9332L301.928 23.2668C289.144 37.563 282.819 55.9329 282.819 78.2H286.819ZM304.92 25.9219C317.294 11.8722 333.919 4.8 355.019 4.8V0.799999C332.918 0.799999 315.144 8.26108 301.918 23.2781L304.92 25.9219ZM355.019 4.8C376.118 4.8 392.744 11.8722 405.118 25.9219L408.12 23.2781C394.894 8.26108 377.119 0.799999 355.019 0.799999V4.8ZM405.128 25.9332C417.144 39.3703 423.219 56.7338 423.219 78.2H427.219C427.219 55.9329 420.894 37.563 408.11 23.2668L405.128 25.9332ZM423.219 78.2C423.219 99.119 417.152 116.15 405.134 129.46L408.103 132.14C420.885 117.984 427.219 99.9477 427.219 78.2H423.219ZM405.131 129.464C392.621 143.392 375.987 150.4 355.019 150.4V154.4C376.984 154.4 394.75 147.008 408.107 132.136L405.131 129.464ZM355.019 150.4C334.051 150.4 317.417 143.392 304.907 129.464L301.931 132.136C315.287 147.008 333.053 154.4 355.019 154.4V150.4ZM304.903 129.46C292.885 116.15 286.819 99.119 286.819 78.2H282.819C282.819 99.9477 289.152 117.984 301.934 132.14L304.903 129.46ZM314.219 78.2C314.219 91.8221 317.217 103.182 323.371 112.133L326.667 109.867C321.087 101.751 318.219 91.2445 318.219 78.2H314.219ZM323.375 112.14C330.714 122.724 341.353 128 355.019 128V124C342.551 124 333.191 119.276 326.662 109.86L323.375 112.14ZM355.019 128C368.684 128 379.324 122.724 386.662 112.14L383.375 109.86C376.847 119.276 367.487 124 355.019 124V128ZM386.667 112.133C392.821 103.182 395.819 91.8221 395.819 78.2H391.819C391.819 91.2445 388.95 101.751 383.371 109.867L386.667 112.133ZM395.819 78.2C395.819 64.0614 392.828 52.3685 386.675 43.2789L383.363 45.5211C388.943 53.7648 391.819 64.6052 391.819 78.2H395.819ZM386.679 43.2856C379.474 32.5473 368.821 27.2 355.019 27.2V31.2C367.617 31.2 376.964 35.986 383.358 45.5144L386.679 43.2856ZM355.019 27.2C341.217 27.2 330.564 32.5473 323.358 43.2856L326.679 45.5144C333.074 35.986 342.421 31.2 355.019 31.2V27.2ZM323.363 43.2789C317.21 52.3685 314.219 64.0614 314.219 78.2H318.219C318.219 64.6052 321.095 53.7648 326.675 45.5211L323.363 43.2789ZM453.683 149H451.683V151H453.683V149ZM453.683 6.19999V4.19999H451.683V6.19999H453.683ZM561.483 23.8L560.052 25.1979L560.06 25.2061L560.069 25.2142L561.483 23.8ZM564.083 128.4L565.618 129.682L565.619 129.68L564.083 128.4ZM485.083 32.6V30.6H483.083V32.6H485.083ZM485.083 122.6H483.083V124.6H485.083V122.6ZM537.683 113L536.256 111.599L536.254 111.601L537.683 113ZM539.883 45.4L541.466 44.1779L541.459 44.1687L539.883 45.4ZM455.683 149V6.19999H451.683V149H455.683ZM453.683 8.19999H515.283V4.19999H453.683V8.19999ZM515.283 8.19999C534.182 8.19999 549.029 13.918 560.052 25.1979L562.913 22.4021C551.003 10.2153 535.051 4.19999 515.283 4.19999V8.19999ZM560.069 25.2142C571.988 37.1341 578.083 54.2273 578.083 76.8H582.083C582.083 53.506 575.777 35.2659 562.897 22.3858L560.069 25.2142ZM578.083 76.8C578.083 98.073 572.834 114.774 562.546 127.12L565.619 129.68C576.665 116.426 582.083 98.727 582.083 76.8H578.083ZM562.548 127.118C551.53 140.314 535.873 147 515.283 147V151C536.826 151 553.702 143.953 565.618 129.682L562.548 127.118ZM515.283 147H453.683V151H515.283V147ZM483.083 32.6V122.6H487.083V32.6H483.083ZM485.083 124.6H513.083V120.6H485.083V124.6ZM513.083 124.6C523.677 124.6 532.418 121.235 539.112 114.399L536.254 111.601C530.414 117.565 522.756 120.6 513.083 120.6V124.6ZM539.11 114.401C546.937 106.432 550.683 94.778 550.683 79.8H546.683C546.683 94.1554 543.096 104.634 536.256 111.599L539.11 114.401ZM550.683 79.8C550.683 64.2699 547.722 52.2823 541.466 44.1779L538.3 46.6221C543.777 53.7177 546.683 64.6634 546.683 79.8H550.683ZM541.459 44.1687C534.283 34.9835 522.784 30.6 507.483 30.6V34.6C522.049 34.6 532.149 38.7498 538.307 46.6313L541.459 44.1687ZM507.483 30.6H485.083V34.6H507.483V30.6Z" fill="black"/>
</svg>
