<svg width="811" height="155" viewBox="0 0 811 155" fill="none" xmlns="http://www.w3.org/2000/svg">
<path d="M2.8 101.6V99.6H0.816064L0.800065 101.584L2.8 101.6ZM33.2 101.6H35.2V99.6H33.2V101.6ZM42.8 122L43.981 120.386L43.9783 120.384L42.8 122ZM82.8 124.6L81.9502 122.79L81.946 122.792L82.8 124.6ZM70.6 91.8L70.0532 93.7238L70.0575 93.725L70.6 91.8ZM29.6 79.4L30.5412 77.6353L30.505 77.616L30.4681 77.5982L29.6 79.4ZM24.6 13.4L23.456 11.7595L23.4466 11.7661L24.6 13.4ZM100.8 13.4L101.948 11.7624L101.944 11.7595L100.8 13.4ZM118.2 48.8V50.8H120.2V48.8H118.2ZM87.8 48.8L85.8031 48.9109L85.908 50.8H87.8V48.8ZM45 30.8L43.971 29.085L43.9532 29.0957L43.9357 29.1067L45 30.8ZM45.8 54.8L46.6458 52.9876L46.6381 52.9841L45.8 54.8ZM80.6 65L80.1023 66.9371L80.1149 66.9403L80.6 65ZM105.6 74.6L104.5 76.2703L104.509 76.2761L104.518 76.2817L105.6 74.6ZM107.8 139.4L109.061 140.952L109.064 140.95L107.8 139.4ZM21.2 140.2L20.0083 141.806L20.0156 141.812L21.2 140.2ZM2.8 103.6H33.2V99.6H2.8V103.6ZM31.2 101.6C31.2 111.078 34.6338 118.521 41.6217 123.616L43.9783 120.384C38.1663 116.146 35.2 109.988 35.2 101.6H31.2ZM41.619 123.614C47.5321 127.941 55.325 130 64.8 130V126C55.875 126 49.0013 124.059 43.981 120.386L41.619 123.614ZM64.8 130C72.1957 130 78.5095 128.838 83.654 126.408L81.946 122.792C77.4905 124.896 71.8043 126 64.8 126V130ZM83.6498 126.41C87.1627 124.762 89.9248 122.586 91.8034 119.825C93.6902 117.053 94.6 113.816 94.6 110.2H90.6C90.6 113.117 89.8764 115.547 88.4966 117.575C87.1085 119.614 84.9707 121.372 81.9502 122.79L83.6498 126.41ZM94.6 110.2C94.6 105.435 92.4157 101.339 88.3831 97.9658C84.4092 94.6422 78.6043 91.9778 71.1425 89.875L70.0575 93.725C77.2624 95.7555 82.4575 98.2244 85.8169 101.034C89.1177 103.795 90.6 106.832 90.6 110.2H94.6ZM71.1468 89.8762C58.4835 86.2772 48.7462 83.4474 41.929 81.3856C38.519 80.3543 35.8511 79.5186 33.9175 78.8768C31.909 78.2102 30.8598 77.8052 30.5412 77.6353L28.6588 81.1647C29.3402 81.5281 30.7494 82.0398 32.6575 82.6732C34.6406 83.3314 37.3476 84.179 40.771 85.2144C47.6205 87.2859 57.3831 90.1228 70.0532 93.7238L71.1468 89.8762ZM30.4681 77.5982C23.3887 74.1872 18.1981 69.854 14.7702 64.6498C11.3478 59.4539 9.6 53.2653 9.6 46H5.6C5.6 53.9346 7.51891 60.9128 11.4298 66.8501C15.3352 72.7793 21.1446 77.5461 28.7319 81.2018L30.4681 77.5982ZM9.6 46C9.6 32.9243 14.9445 22.6637 25.7534 15.0339L23.4466 11.7661C11.5888 20.1363 5.6 31.609 5.6 46H9.6ZM25.744 15.0405C35.495 8.24046 47.2148 4.8 61 4.8V0.799999C46.5185 0.799999 33.9717 4.4262 23.456 11.7595L25.744 15.0405ZM61 4.8C77.123 4.8 89.9524 8.27352 99.656 15.0405L101.944 11.7595C91.3809 4.39314 77.677 0.799999 61 0.799999V4.8ZM99.6518 15.0376C110.663 22.7581 116.2 33.9154 116.2 48.8H120.2C120.2 32.7513 114.137 20.3086 101.948 11.7624L99.6518 15.0376ZM118.2 46.8H87.8V50.8H118.2V46.8ZM89.7969 48.6891C89.3723 41.0452 86.6294 35.0436 81.3662 31.0122C76.1772 27.0377 68.8229 25.2 59.6 25.2V29.2C68.3771 29.2 74.7228 30.9623 78.9339 34.1877C83.0706 37.3563 85.4277 42.1548 85.8031 48.9109L89.7969 48.6891ZM59.6 25.2C53.587 25.2 48.3459 26.4601 43.971 29.085L46.029 32.515C49.6541 30.3399 54.1464 29.2 59.6 29.2V25.2ZM43.9357 29.1067C38.6926 32.4024 36 37.2386 36 43.4H40C40 38.628 41.9741 35.0643 46.0643 32.4933L43.9357 29.1067ZM36 43.4C36 46.349 36.7431 49.0047 38.2994 51.2794C39.8475 53.5421 42.1134 55.3012 44.9619 56.6159L46.6381 52.9841C44.2866 51.8988 42.6525 50.5579 41.6006 49.0206C40.5569 47.4953 40 45.651 40 43.4H36ZM44.9542 56.6124C47.1114 57.6191 51.1521 58.9735 56.9375 60.6693C62.7681 62.3782 70.4924 64.4679 80.1023 66.9371L81.0977 63.0629C71.5076 60.5988 63.8319 58.5218 58.0625 56.8307C52.248 55.1265 48.4886 53.8476 46.6458 52.9876L44.9542 56.6124ZM80.1149 66.9403C91.2366 69.7207 99.3132 72.8546 104.5 76.2703L106.7 72.9297C100.953 69.1454 92.3634 65.8793 81.0851 63.0597L80.1149 66.9403ZM104.518 76.2817C115.542 83.378 121 93.4092 121 106.6H125C125 92.0575 118.858 80.7554 106.683 72.9183L104.518 76.2817ZM121 106.6C121 119.627 116.182 129.981 106.536 137.85L109.064 140.95C119.684 132.286 125 120.773 125 106.6H121ZM106.539 137.848C96.3402 146.134 82.1086 150.4 63.6 150.4V154.4C82.6914 154.4 97.9264 149.999 109.061 140.952L106.539 137.848ZM63.6 150.4C46.7173 150.4 33.0293 146.412 22.3844 138.588L20.0156 141.812C31.504 150.255 46.0827 154.4 63.6 154.4V150.4ZM22.3917 138.594C10.5458 129.805 4.67133 117.564 4.79994 101.616L0.800065 101.584C0.662007 118.703 7.0542 132.195 20.0083 141.806L22.3917 138.594ZM180.283 149H178.283V151H180.283V149ZM180.283 32.6H182.283V30.6H180.283V32.6ZM137.483 32.6H135.483V34.6H137.483V32.6ZM137.483 6.19999V4.19999H135.483V6.19999H137.483ZM254.483 6.19999H256.483V4.19999H254.483V6.19999ZM254.483 32.6V34.6H256.483V32.6H254.483ZM211.683 32.6V30.6H209.683V32.6H211.683ZM211.683 149V151H213.683V149H211.683ZM182.283 149V32.6H178.283V149H182.283ZM180.283 30.6H137.483V34.6H180.283V30.6ZM139.483 32.6V6.19999H135.483V32.6H139.483ZM137.483 8.19999H254.483V4.19999H137.483V8.19999ZM252.483 6.19999V32.6H256.483V6.19999H252.483ZM254.483 30.6H211.683V34.6H254.483V30.6ZM209.683 32.6V149H213.683V32.6H209.683ZM211.683 147H180.283V151H211.683V147ZM277.948 149H275.948V151H277.948V149ZM277.948 6.19999V4.19999H275.948V6.19999H277.948ZM385.548 17.8L386.963 16.3858L386.957 16.3797L386.951 16.3737L385.548 17.8ZM374.148 81.4L373.394 79.5476L372.148 80.0548V81.4H374.148ZM374.148 81.8H372.148V83.3535L373.654 83.7378L374.148 81.8ZM394.948 115.2L396.944 115.061L396.944 115.06L394.948 115.2ZM396.148 132.4L394.153 132.539L394.156 132.573L394.159 132.606L396.148 132.4ZM400.948 149V151H404.853L402.572 147.831L400.948 149ZM369.548 149L367.696 149.755L368.204 151H369.548V149ZM366.148 132.8L364.156 132.977L364.158 132.999L364.161 133.021L366.148 132.8ZM364.548 114.8L366.541 114.623L366.536 114.575L366.53 114.527L364.548 114.8ZM357.548 98.2L356.162 99.6417L356.176 99.6547L356.19 99.6675L357.548 98.2ZM309.348 93.2V91.2H307.348V93.2H309.348ZM309.348 149V151H311.348V149H309.348ZM309.348 30.6V28.6H307.348V30.6H309.348ZM309.348 70.8H307.348V72.8H309.348V70.8ZM279.948 149V6.19999H275.948V149H279.948ZM277.948 8.19999H354.948V4.19999H277.948V8.19999ZM354.948 8.19999C367.035 8.19999 376.706 11.9116 384.146 19.2262L386.951 16.3737C378.658 8.22172 367.929 4.19999 354.948 4.19999V8.19999ZM384.134 19.2142C391.206 26.2862 394.748 35.0354 394.748 45.6H398.748C398.748 34.0313 394.824 24.2471 386.963 16.3858L384.134 19.2142ZM394.748 45.6C394.748 54.1852 392.926 61.208 389.407 66.7824C385.896 72.3441 380.602 76.6134 373.394 79.5476L374.903 83.2524C382.761 80.0532 388.767 75.2893 392.79 68.9176C396.804 62.5586 398.748 54.7481 398.748 45.6H394.748ZM372.148 81.4V81.8H376.148V81.4H372.148ZM373.654 83.7378C379.413 85.2083 383.852 88.4714 387.051 93.6073C390.284 98.7991 392.3 105.993 392.953 115.34L396.944 115.06C396.264 105.34 394.146 97.4342 390.446 91.4927C386.711 85.4953 381.417 81.5917 374.643 79.8622L373.654 83.7378ZM392.953 115.339C393.353 121.073 393.753 126.806 394.153 132.539L398.144 132.261C397.744 126.527 397.344 120.794 396.944 115.061L392.953 115.339ZM394.159 132.606C394.968 140.427 396.609 146.397 399.325 150.169L402.572 147.831C400.487 144.937 398.929 139.84 398.138 132.194L394.159 132.606ZM400.948 147H369.548V151H400.948V147ZM371.401 148.245C370.04 144.905 368.93 139.725 368.136 132.579L364.161 133.021C364.967 140.275 366.124 145.895 367.696 149.755L371.401 148.245ZM368.141 132.623C368.136 132.57 368.133 132.535 368.128 132.482C368.123 132.43 368.12 132.394 368.116 132.342C368.111 132.289 368.108 132.254 368.103 132.201C368.098 132.148 368.095 132.113 368.091 132.06C368.086 132.008 368.083 131.973 368.078 131.92C368.073 131.867 368.07 131.832 368.066 131.779C368.061 131.726 368.058 131.691 368.053 131.639C368.048 131.586 368.045 131.551 368.041 131.498C368.036 131.445 368.033 131.41 368.028 131.357C368.023 131.305 368.02 131.269 368.016 131.217C368.011 131.164 368.008 131.129 368.003 131.076C367.998 131.023 367.995 130.988 367.991 130.935C367.986 130.883 367.983 130.848 367.978 130.795C367.973 130.742 367.97 130.707 367.966 130.654C367.961 130.601 367.958 130.566 367.953 130.514C367.948 130.461 367.945 130.426 367.941 130.373C367.936 130.32 367.933 130.285 367.928 130.232C367.923 130.18 367.92 130.144 367.916 130.092C367.911 130.039 367.908 130.004 367.903 129.951C367.898 129.898 367.895 129.863 367.891 129.81C367.886 129.758 367.883 129.723 367.878 129.67C367.873 129.617 367.87 129.582 367.866 129.529C367.861 129.476 367.858 129.441 367.853 129.389C367.848 129.336 367.845 129.301 367.841 129.248C367.836 129.195 367.833 129.16 367.828 129.107C367.823 129.055 367.82 129.019 367.816 128.967C367.811 128.914 367.808 128.879 367.803 128.826C367.798 128.773 367.795 128.738 367.791 128.685C367.786 128.633 367.783 128.598 367.778 128.545C367.773 128.492 367.77 128.457 367.766 128.404C367.761 128.351 367.758 128.316 367.753 128.264C367.748 128.211 367.745 128.176 367.741 128.123C367.736 128.07 367.733 128.035 367.728 127.982C367.723 127.93 367.72 127.894 367.716 127.842C367.711 127.789 367.708 127.754 367.703 127.701C367.698 127.648 367.695 127.613 367.691 127.56C367.686 127.508 367.683 127.473 367.678 127.42C367.673 127.367 367.67 127.332 367.666 127.279C367.661 127.226 367.658 127.191 367.653 127.139C367.648 127.086 367.645 127.051 367.641 126.998C367.636 126.945 367.633 126.91 367.628 126.857C367.623 126.805 367.62 126.769 367.616 126.717C367.611 126.664 367.608 126.629 367.603 126.576C367.598 126.523 367.595 126.488 367.591 126.435C367.586 126.383 367.583 126.348 367.578 126.295C367.573 126.242 367.57 126.207 367.566 126.154C367.561 126.101 367.558 126.066 367.553 126.014C367.548 125.961 367.545 125.926 367.541 125.873C367.536 125.82 367.533 125.785 367.528 125.732C367.523 125.68 367.52 125.644 367.516 125.592C367.511 125.539 367.508 125.504 367.503 125.451C367.498 125.398 367.495 125.363 367.491 125.31C367.486 125.258 367.483 125.223 367.478 125.17C367.473 125.117 367.47 125.082 367.466 125.029C367.461 124.976 367.458 124.941 367.453 124.889C367.448 124.836 367.445 124.801 367.441 124.748C367.436 124.695 367.433 124.66 367.428 124.607C367.423 124.555 367.42 124.519 367.416 124.467C367.411 124.414 367.408 124.379 367.403 124.326C367.398 124.273 367.395 124.238 367.391 124.185C367.386 124.133 367.383 124.098 367.378 124.045C367.373 123.992 367.37 123.957 367.366 123.904C367.361 123.851 367.358 123.816 367.353 123.764C367.348 123.711 367.345 123.676 367.341 123.623C367.329 123.495 367.302 123.188 367.291 123.06C367.279 122.933 367.252 122.626 367.241 122.498C367.229 122.37 367.202 122.063 367.191 121.935C367.179 121.808 367.152 121.501 367.141 121.373C367.129 121.245 367.102 120.938 367.091 120.81C367.079 120.683 367.052 120.376 367.041 120.248C367.029 120.12 367.002 119.813 366.991 119.685C366.979 119.558 366.952 119.251 366.941 119.123C366.929 118.995 366.902 118.688 366.891 118.56C366.879 118.433 366.852 118.126 366.841 117.998C366.829 117.87 366.802 117.563 366.791 117.435C366.779 117.308 366.752 117.001 366.741 116.873C366.729 116.745 366.702 116.438 366.691 116.31C366.679 116.183 366.652 115.876 366.641 115.748C366.629 115.62 366.602 115.313 366.591 115.185C366.579 115.058 366.552 114.751 366.541 114.623L362.556 114.977C362.561 115.031 362.564 115.064 362.569 115.118C362.574 115.172 362.576 115.204 362.581 115.258C362.586 115.312 362.589 115.345 362.594 115.399C362.599 115.453 362.601 115.485 362.606 115.54C362.611 115.594 362.614 115.626 362.619 115.68C362.624 115.734 362.626 115.767 362.631 115.821C362.636 115.875 362.639 115.907 362.644 115.961C362.649 116.016 362.651 116.048 362.656 116.102C362.661 116.156 362.664 116.189 362.669 116.243C362.674 116.297 362.676 116.329 362.681 116.383C362.686 116.437 362.689 116.47 362.694 116.524C362.699 116.578 362.701 116.61 362.706 116.665C362.711 116.719 362.714 116.751 362.719 116.805C362.724 116.859 362.726 116.892 362.731 116.946C362.736 116.999 362.739 117.034 362.744 117.086C362.748 117.139 362.752 117.174 362.756 117.227C362.761 117.28 362.764 117.315 362.769 117.368C362.773 117.42 362.777 117.456 362.781 117.508C362.786 117.561 362.789 117.596 362.794 117.649C362.798 117.702 362.802 117.737 362.806 117.79C362.811 117.842 362.814 117.877 362.819 117.93C362.823 117.983 362.827 118.018 362.831 118.071C362.836 118.124 362.839 118.159 362.844 118.211C362.848 118.264 362.852 118.299 362.856 118.352C362.861 118.405 362.864 118.44 362.869 118.493C362.873 118.545 362.877 118.581 362.881 118.633C362.886 118.686 362.889 118.721 362.894 118.774C362.898 118.827 362.902 118.862 362.906 118.915C362.911 118.967 362.914 119.002 362.919 119.055C362.923 119.108 362.927 119.143 362.931 119.196C362.936 119.249 362.939 119.284 362.944 119.336C362.948 119.389 362.952 119.424 362.956 119.477C362.961 119.53 362.964 119.565 362.969 119.618C362.973 119.67 362.977 119.706 362.981 119.758C362.986 119.811 362.989 119.846 362.994 119.899C362.998 119.952 363.002 119.987 363.006 120.04C363.011 120.092 363.014 120.127 363.019 120.18C363.023 120.233 363.027 120.268 363.031 120.321C363.036 120.374 363.039 120.409 363.044 120.461C363.048 120.514 363.052 120.549 363.056 120.602C363.061 120.655 363.064 120.69 363.069 120.743C363.073 120.795 363.077 120.831 363.081 120.883C363.086 120.936 363.089 120.971 363.094 121.024C363.098 121.077 363.102 121.112 363.106 121.165C363.111 121.217 363.114 121.252 363.119 121.305C363.123 121.358 363.127 121.393 363.131 121.446C363.136 121.499 363.139 121.534 363.144 121.586C363.148 121.639 363.152 121.674 363.156 121.727C363.161 121.78 363.164 121.815 363.169 121.868C363.173 121.92 363.177 121.956 363.181 122.008C363.186 122.061 363.189 122.096 363.194 122.149C363.198 122.202 363.202 122.237 363.206 122.29C363.211 122.342 363.214 122.377 363.219 122.43C363.223 122.483 363.227 122.518 363.231 122.571C363.236 122.624 363.239 122.659 363.244 122.711C363.248 122.764 363.252 122.799 363.256 122.852C363.261 122.905 363.264 122.94 363.269 122.993C363.273 123.045 363.277 123.081 363.281 123.133C363.286 123.186 363.289 123.221 363.294 123.274C363.298 123.327 363.302 123.362 363.306 123.415C363.311 123.467 363.314 123.502 363.319 123.555C363.323 123.608 363.327 123.643 363.331 123.696C363.336 123.749 363.339 123.784 363.344 123.836C363.348 123.889 363.352 123.924 363.356 123.977C363.368 124.105 363.395 124.412 363.406 124.54C363.418 124.667 363.445 124.974 363.456 125.102C363.468 125.23 363.495 125.537 363.506 125.665C363.518 125.792 363.545 126.099 363.556 126.227C363.568 126.355 363.595 126.662 363.606 126.79C363.618 126.917 363.645 127.224 363.656 127.352C363.668 127.48 363.695 127.787 363.706 127.915C363.718 128.042 363.745 128.349 363.756 128.477C363.768 128.605 363.795 128.912 363.806 129.04C363.818 129.167 363.845 129.474 363.856 129.602C363.868 129.73 363.895 130.037 363.906 130.165C363.918 130.292 363.945 130.599 363.956 130.727C363.968 130.855 363.995 131.162 364.006 131.29C364.018 131.417 364.045 131.724 364.056 131.852C364.068 131.98 364.095 132.287 364.106 132.415C364.118 132.542 364.145 132.849 364.156 132.977L368.141 132.623ZM366.53 114.527C365.435 106.589 362.996 100.519 358.907 96.7325L356.19 99.6675C359.301 102.548 361.529 107.544 362.567 115.073L366.53 114.527ZM358.935 96.7583C354.924 92.9021 348.699 91.2 340.748 91.2V95.2C348.265 95.2 353.239 96.8312 356.162 99.6417L358.935 96.7583ZM340.748 91.2H309.348V95.2H340.748V91.2ZM307.348 93.2V149H311.348V93.2H307.348ZM309.348 147H277.948V151H309.348V147ZM307.348 30.6V70.8H311.348V30.6H307.348ZM309.348 72.8H343.748V68.8H309.348V72.8ZM343.748 72.8C351.229 72.8 357.212 71.0358 361.322 67.154C365.453 63.2519 367.348 57.5384 367.348 50.4H363.348C363.348 56.8616 361.644 61.3481 358.575 64.246C355.485 67.1641 350.668 68.8 343.748 68.8V72.8ZM367.348 50.4C367.348 43.4448 365.444 37.874 361.3 34.0757C357.189 30.3076 351.216 28.6 343.748 28.6V32.6C350.681 32.6 355.508 34.1924 358.597 37.0243C361.653 39.826 363.348 44.1552 363.348 50.4H367.348ZM343.748 28.6H309.348V32.6H343.748V28.6ZM429.284 149H427.284V151H429.284V149ZM429.284 6.19999V4.19999H427.284V6.19999H429.284ZM536.084 6.19999H538.084V4.19999H536.084V6.19999ZM536.084 32.6V34.6H538.084V32.6H536.084ZM460.684 32.6V30.6H458.684V32.6H460.684ZM460.684 63.2H458.684V65.2H460.684V63.2ZM529.884 63.2H531.884V61.2H529.884V63.2ZM529.884 87.6V89.6H531.884V87.6H529.884ZM460.684 87.6V85.6H458.684V87.6H460.684ZM460.684 122.6H458.684V124.6H460.684V122.6ZM537.684 122.6H539.684V120.6H537.684V122.6ZM537.684 149V151H539.684V149H537.684ZM431.284 149V6.19999H427.284V149H431.284ZM429.284 8.19999H536.084V4.19999H429.284V8.19999ZM534.084 6.19999V32.6H538.084V6.19999H534.084ZM536.084 30.6H460.684V34.6H536.084V30.6ZM458.684 32.6V63.2H462.684V32.6H458.684ZM460.684 65.2H529.884V61.2H460.684V65.2ZM527.884 63.2V87.6H531.884V63.2H527.884ZM529.884 85.6H460.684V89.6H529.884V85.6ZM458.684 87.6V122.6H462.684V87.6H458.684ZM460.684 124.6H537.684V120.6H460.684V124.6ZM535.684 122.6V149H539.684V122.6H535.684ZM537.684 147H429.284V151H537.684V147ZM565.972 149H563.972V151H565.972V149ZM565.972 6.19999V4.19999H563.972V6.19999H565.972ZM672.772 6.19999H674.772V4.19999H672.772V6.19999ZM672.772 32.6V34.6H674.772V32.6H672.772ZM597.372 32.6V30.6H595.372V32.6H597.372ZM597.372 63.2H595.372V65.2H597.372V63.2ZM666.572 63.2H668.572V61.2H666.572V63.2ZM666.572 87.6V89.6H668.572V87.6H666.572ZM597.372 87.6V85.6H595.372V87.6H597.372ZM597.372 122.6H595.372V124.6H597.372V122.6ZM674.372 122.6H676.372V120.6H674.372V122.6ZM674.372 149V151H676.372V149H674.372ZM567.972 149V6.19999H563.972V149H567.972ZM565.972 8.19999H672.772V4.19999H565.972V8.19999ZM670.772 6.19999V32.6H674.772V6.19999H670.772ZM672.772 30.6H597.372V34.6H672.772V30.6ZM595.372 32.6V63.2H599.372V32.6H595.372ZM597.372 65.2H666.572V61.2H597.372V65.2ZM664.572 63.2V87.6H668.572V63.2H664.572ZM666.572 85.6H597.372V89.6H666.572V85.6ZM595.372 87.6V122.6H599.372V87.6H595.372ZM597.372 124.6H674.372V120.6H597.372V124.6ZM672.372 122.6V149H676.372V122.6H672.372ZM674.372 147H565.972V151H674.372V147ZM734.259 149H732.259V151H734.259V149ZM734.259 32.6H736.259V30.6H734.259V32.6ZM691.459 32.6H689.459V34.6H691.459V32.6ZM691.459 6.19999V4.19999H689.459V6.19999H691.459ZM808.459 6.19999H810.459V4.19999H808.459V6.19999ZM808.459 32.6V34.6H810.459V32.6H808.459ZM765.659 32.6V30.6H763.659V32.6H765.659ZM765.659 149V151H767.659V149H765.659ZM736.259 149V32.6H732.259V149H736.259ZM734.259 30.6H691.459V34.6H734.259V30.6ZM693.459 32.6V6.19999H689.459V32.6H693.459ZM691.459 8.19999H808.459V4.19999H691.459V8.19999ZM806.459 6.19999V32.6H810.459V6.19999H806.459ZM808.459 30.6H765.659V34.6H808.459V30.6ZM763.659 32.6V149H767.659V32.6H763.659ZM765.659 147H734.259V151H765.659V147Z" fill="black"/>
</svg>
