<svg width="568" height="200" viewBox="0 0 568 200" fill="none" xmlns="http://www.w3.org/2000/svg">
<path d="M2.24 131.38V129.38H0.256064L0.240065 131.364L2.24 131.38ZM41.76 131.38H43.76V129.38H41.76V131.38ZM54.24 157.9L55.421 156.286L55.4183 156.284L54.24 157.9ZM106.24 161.28L105.39 159.47L105.386 159.472L106.24 161.28ZM90.38 118.64L89.8332 120.564L89.8375 120.565L90.38 118.64ZM37.08 102.52L38.0212 100.755L37.985 100.736L37.9481 100.718L37.08 102.52ZM30.58 16.72L29.436 15.0795L29.4266 15.0861L30.58 16.72ZM129.64 16.72L130.788 15.0824L130.784 15.0795L129.64 16.72ZM152.26 62.74V64.74H154.26V62.74H152.26ZM112.74 62.74L110.743 62.8509L110.848 64.74H112.74V62.74ZM57.1 39.34L56.071 37.625L56.0532 37.6357L56.0357 37.6467L57.1 39.34ZM58.14 70.54L58.9858 68.7276L58.9781 68.7241L58.14 70.54ZM103.38 83.8L102.882 85.7371L102.895 85.7403L103.38 83.8ZM135.88 96.28L134.78 97.9503L134.789 97.9561L134.798 97.9617L135.88 96.28ZM138.74 180.52L140.001 182.072L140.004 182.07L138.74 180.52ZM26.16 181.56L24.9683 183.166L24.9756 183.172L26.16 181.56ZM2.24 133.38H41.76V129.38H2.24V133.38ZM39.76 131.38C39.76 143.538 44.1538 153.021 53.0617 159.516L55.4183 156.284C47.6863 150.646 43.76 142.448 43.76 131.38H39.76ZM53.059 159.514C60.6121 165.041 70.605 167.7 82.84 167.7V163.7C71.155 163.7 62.0813 161.159 55.421 156.286L53.059 159.514ZM82.84 167.7C92.3957 167.7 100.51 166.198 107.094 163.088L105.386 159.472C99.4905 162.256 92.0043 163.7 82.84 163.7V167.7ZM107.09 163.09C111.583 160.982 115.08 158.216 117.448 154.735C119.825 151.243 120.98 147.156 120.98 142.56H116.98C116.98 146.457 116.011 149.737 114.142 152.485C112.264 155.244 109.391 157.592 105.39 159.47L107.09 163.09ZM120.98 142.56C120.98 136.575 118.246 131.409 113.113 127.116C108.039 122.872 100.584 119.438 90.9225 116.715L89.8375 120.565C99.2424 123.215 106.087 126.454 110.547 130.184C114.948 133.865 116.98 137.972 116.98 142.56H120.98ZM90.9268 116.716C74.4635 112.037 61.8012 108.357 52.934 105.676C48.499 104.334 45.0248 103.246 42.5038 102.409C39.9077 101.548 38.4898 101.005 38.0212 100.755L36.1388 104.285C36.9702 104.728 38.7481 105.377 41.2437 106.206C43.8143 107.059 47.3276 108.159 51.776 109.504C60.6755 112.196 73.3631 115.883 89.8332 120.564L90.9268 116.716ZM37.9481 100.718C28.6687 96.2472 21.8281 90.549 17.3002 83.6748C12.7778 76.8089 10.48 68.6453 10.48 59.1H6.48C6.48 69.3146 8.94891 78.2678 13.9598 85.8751C18.9652 93.4743 26.4246 99.6061 36.2119 104.322L37.9481 100.718ZM10.48 59.1C10.48 41.9043 17.5245 28.3837 31.7334 18.3539L29.4266 15.0861C14.1688 25.8563 6.48 40.589 6.48 59.1H10.48ZM31.724 18.3605C44.515 9.44046 59.8748 4.94 77.9 4.94V0.939998C59.1785 0.939998 42.9917 5.6262 29.436 15.0795L31.724 18.3605ZM77.9 4.94C98.943 4.94 115.752 9.47352 128.496 18.3605L130.784 15.0795C117.181 5.59314 99.497 0.939998 77.9 0.939998V4.94ZM128.492 18.3576C142.983 28.5181 150.26 43.2154 150.26 62.74H154.26C154.26 42.0513 146.457 26.0686 130.788 15.0824L128.492 18.3576ZM152.26 60.74H112.74V64.74H152.26V60.74ZM114.737 62.629C114.192 52.8252 110.684 45.2036 104.011 40.0922C97.4122 35.0377 88.0029 32.66 76.08 32.66V36.66C87.5571 36.66 95.9578 38.9623 101.579 43.2677C107.126 47.5163 110.248 53.9348 110.743 62.8509L114.737 62.629ZM76.08 32.66C68.347 32.66 61.6459 34.2801 56.071 37.625L58.129 41.055C62.9541 38.1599 68.9064 36.66 76.08 36.66V32.66ZM56.0357 37.6467C49.3926 41.8224 46 47.9186 46 55.72H50C50 49.308 52.6741 44.4843 58.1643 41.0333L56.0357 37.6467ZM46 55.72C46 59.449 46.9381 62.7797 48.8844 65.6244C50.8225 68.4571 53.6734 70.6812 57.3019 72.3559L58.9781 68.7241C55.8466 67.2788 53.6275 65.4729 52.1856 63.3656C50.7519 61.2703 50 58.751 50 55.72H46ZM57.2942 72.3524C60.0514 73.639 65.2621 75.3885 72.7875 77.5943C80.3581 79.8132 90.3924 82.5279 102.882 85.7371L103.878 81.8629C91.4076 78.6588 81.4219 75.9567 73.9125 73.7557C66.358 71.5415 61.4286 69.8676 58.9858 68.7276L57.2942 72.3524ZM102.895 85.7403C117.377 89.3607 127.953 93.4546 134.78 97.9503L136.98 94.6097C129.593 89.7454 118.503 85.5193 103.865 81.8597L102.895 85.7403ZM134.798 97.9617C149.302 107.298 156.5 120.529 156.5 137.88H160.5C160.5 119.177 152.618 104.675 136.963 94.5983L134.798 97.9617ZM156.5 137.88C156.5 154.987 150.162 168.621 137.476 178.97L140.004 182.07C153.664 170.926 160.5 156.133 160.5 137.88H156.5ZM137.479 178.968C124.08 189.854 105.429 195.42 81.28 195.42V199.42C106.011 199.42 125.666 193.719 140.001 182.072L137.479 178.968ZM81.28 195.42C59.2373 195.42 41.3093 190.212 27.3444 179.948L24.9756 183.172C39.784 194.055 58.6027 199.42 81.28 199.42V195.42ZM27.3517 179.954C11.7858 168.405 4.07133 152.304 4.23994 131.396L0.240065 131.364C0.0620068 153.443 8.2942 170.795 24.9683 183.166L27.3517 179.954ZM208.008 31.28L209.499 32.6132L209.504 32.6075L209.509 32.6019L208.008 31.28ZM342.168 31.28L340.667 32.6019L340.672 32.6075L340.677 32.6132L342.168 31.28ZM342.168 169.34L340.683 168L340.68 168.004L342.168 169.34ZM208.008 169.34L209.496 168.004L209.492 168L208.008 169.34ZM236.088 143.6L234.44 144.733L234.444 144.74L236.088 143.6ZM314.088 143.6L315.731 144.74L315.736 144.733L314.088 143.6ZM314.088 57.02L312.427 58.1344L312.431 58.1411L314.088 57.02ZM236.088 57.02L237.744 58.1411L237.748 58.1344L236.088 57.02ZM185.828 100.96C185.828 72.9338 193.763 50.2103 209.499 32.6132L206.517 29.9468C190.013 48.403 181.828 72.1329 181.828 100.96H185.828ZM209.509 32.6019C225.723 14.1922 247.508 4.94 275.088 4.94V0.939998C246.507 0.939998 223.573 10.5811 206.507 29.9581L209.509 32.6019ZM275.088 4.94C302.667 4.94 324.453 14.1922 340.667 32.6019L343.669 29.9581C326.603 10.5811 303.668 0.939998 275.088 0.939998V4.94ZM340.677 32.6132C356.413 50.2103 364.348 72.9338 364.348 100.96H368.348C368.348 72.1329 360.163 48.403 343.659 29.9468L340.677 32.6132ZM364.348 100.96C364.348 128.279 356.421 150.57 340.683 168L343.652 170.68C360.154 152.404 368.348 129.108 368.348 100.96H364.348ZM340.68 168.004C324.29 186.252 302.496 195.42 275.088 195.42V199.42C303.493 199.42 326.419 189.868 343.656 170.676L340.68 168.004ZM275.088 195.42C247.68 195.42 225.886 186.252 209.496 168.004L206.52 170.676C223.756 189.868 246.682 199.42 275.088 199.42V195.42ZM209.492 168C193.754 150.57 185.828 128.279 185.828 100.96H181.828C181.828 129.108 190.021 152.404 206.523 170.68L209.492 168ZM222.648 100.96C222.648 118.582 226.526 133.222 234.44 144.733L237.736 142.467C230.396 131.791 226.648 118.005 226.648 100.96H222.648ZM234.444 144.74C243.862 158.324 257.502 165.1 275.088 165.1V161.1C258.7 161.1 246.34 154.876 237.731 142.46L234.444 144.74ZM275.088 165.1C292.673 165.1 306.313 158.324 315.731 144.74L312.444 142.46C303.836 154.876 291.476 161.1 275.088 161.1V165.1ZM315.736 144.733C323.649 133.222 327.528 118.582 327.528 100.96H323.528C323.528 118.005 319.779 131.791 312.44 142.467L315.736 144.733ZM327.528 100.96C327.528 82.6614 323.657 67.5885 315.744 55.8989L312.431 58.1411C319.772 68.9848 323.528 83.2052 323.528 100.96H327.528ZM315.748 55.9056C306.502 42.1273 292.85 35.26 275.088 35.26V39.26C291.646 39.26 303.993 45.566 312.427 58.1344L315.748 55.9056ZM275.088 35.26C257.326 35.26 243.673 42.1273 234.427 55.9056L237.748 58.1344C246.182 45.566 258.53 39.26 275.088 39.26V35.26ZM234.431 55.8989C226.518 67.5885 222.648 82.6614 222.648 100.96H226.648C226.648 83.2052 230.404 68.9848 237.744 58.1411L234.431 55.8989ZM403.351 193H401.351V195H403.351V193ZM403.351 7.35999V5.35999H401.351V7.35999H403.351ZM543.231 22.44L544.645 21.0258L544.639 21.0197L544.633 21.0137L543.231 22.44ZM528.411 105.12L527.657 103.268L526.411 103.775V105.12H528.411ZM528.411 105.64H526.411V107.194L527.916 107.578L528.411 105.64ZM555.451 149.06L557.446 148.921L557.446 148.92L555.451 149.06ZM557.011 171.42L555.016 171.559L555.018 171.593L555.022 171.626L557.011 171.42ZM563.251 193V195H567.155L564.874 191.831L563.251 193ZM522.431 193L520.579 193.755L521.086 195H522.431V193ZM518.011 171.94L516.019 172.117L516.021 172.139L516.023 172.161L518.011 171.94ZM515.931 148.54L517.923 148.363L517.919 148.315L517.912 148.267L515.931 148.54ZM506.831 126.96L505.445 128.402L505.458 128.415L505.472 128.428L506.831 126.96ZM444.171 120.46V118.46H442.171V120.46H444.171ZM444.171 193V195H446.171V193H444.171ZM444.171 39.08V37.08H442.171V39.08H444.171ZM444.171 91.34H442.171V93.34H444.171V91.34ZM405.351 193V7.35999H401.351V193H405.351ZM403.351 9.35999H503.451V5.35999H403.351V9.35999ZM503.451 9.35999C519.297 9.35999 532.028 14.2316 541.829 23.8662L544.633 21.0137C533.98 10.5417 520.191 5.35999 503.451 5.35999V9.35999ZM541.817 23.8542C551.129 33.1662 555.791 44.6954 555.791 58.58H559.791C559.791 43.6913 554.747 31.1271 544.645 21.0258L541.817 23.8542ZM555.791 58.58C555.791 69.8252 553.404 79.073 548.755 86.4374C544.114 93.7891 537.125 99.4134 527.657 103.268L529.165 106.972C539.284 102.853 546.985 96.7343 552.137 88.5726C557.282 80.4236 559.791 70.3881 559.791 58.58H555.791ZM526.411 105.12V105.64H530.411V105.12H526.411ZM527.916 107.578C535.556 109.528 541.455 113.866 545.693 120.672C549.967 127.534 552.602 136.993 553.456 149.2L557.446 148.92C556.566 136.34 553.829 126.169 549.089 118.558C544.314 110.89 537.56 105.912 528.906 103.702L527.916 107.578ZM553.456 149.199C553.976 156.653 554.496 164.106 555.016 171.559L559.006 171.281C558.486 163.827 557.966 156.374 557.446 148.921L553.456 149.199ZM555.022 171.626C556.071 181.767 558.192 189.397 561.628 194.169L564.874 191.831C562.07 187.937 560.031 181.18 559 171.214L555.022 171.626ZM563.251 191H522.431V195H563.251V191ZM524.283 192.245C522.482 187.825 521.033 181.025 519.999 171.719L516.023 172.161C517.069 181.575 518.566 188.815 520.579 193.755L524.283 192.245ZM520.003 171.763C519.985 171.557 519.956 171.238 519.938 171.032C519.92 170.826 519.891 170.506 519.873 170.3C519.855 170.095 519.826 169.775 519.808 169.569C519.79 169.363 519.761 169.044 519.743 168.838C519.725 168.632 519.696 168.313 519.678 168.107C519.66 167.901 519.631 167.581 519.613 167.375C519.595 167.17 519.566 166.85 519.548 166.644C519.53 166.438 519.501 166.119 519.483 165.913C519.465 165.707 519.436 165.388 519.418 165.182C519.4 164.976 519.371 164.656 519.353 164.45C519.335 164.245 519.306 163.925 519.288 163.719C519.27 163.513 519.241 163.194 519.223 162.988C519.205 162.782 519.176 162.463 519.158 162.257C519.14 162.051 519.111 161.731 519.093 161.525C519.075 161.323 519.046 160.996 519.028 160.794C519.01 160.592 518.981 160.265 518.963 160.063C518.917 159.543 518.879 159.12 518.833 158.6C518.787 158.08 518.749 157.658 518.703 157.138C518.657 156.618 518.619 156.195 518.573 155.675C518.527 155.155 518.489 154.733 518.443 154.213C518.397 153.693 518.359 153.27 518.313 152.75C518.267 152.23 518.229 151.808 518.183 151.288C518.137 150.768 518.099 150.345 518.053 149.825C518.007 149.305 517.969 148.883 517.923 148.363L513.939 148.717C513.957 148.919 513.986 149.246 514.004 149.448C514.022 149.651 514.051 149.977 514.069 150.18C514.087 150.382 514.116 150.709 514.134 150.911C514.152 151.113 514.181 151.44 514.199 151.642C514.217 151.844 514.246 152.171 514.264 152.373C514.282 152.576 514.311 152.902 514.329 153.105C514.347 153.307 514.376 153.634 514.394 153.836C514.412 154.038 514.441 154.365 514.459 154.567C514.477 154.769 514.506 155.096 514.524 155.298C514.542 155.501 514.571 155.827 514.589 156.03C514.607 156.232 514.636 156.559 514.654 156.761C514.672 156.963 514.701 157.29 514.719 157.492C514.737 157.694 514.766 158.021 514.784 158.223C514.802 158.426 514.831 158.752 514.849 158.955C514.867 159.157 514.896 159.484 514.914 159.686C514.932 159.888 514.961 160.215 514.979 160.417C515.027 160.959 515.061 161.338 515.109 161.88C515.156 162.414 515.191 162.808 515.239 163.342C515.286 163.876 515.321 164.27 515.369 164.805C515.416 165.339 515.451 165.733 515.499 166.267C515.546 166.802 515.581 167.195 515.629 167.73C515.676 168.264 515.711 168.658 515.759 169.192C515.806 169.727 515.841 170.12 515.889 170.655C515.936 171.189 515.971 171.583 516.019 172.117L520.003 171.763ZM517.912 148.267C516.497 138.009 513.359 130.279 508.19 125.492L505.472 128.428C509.663 132.308 512.591 138.964 513.95 148.813L517.912 148.267ZM508.217 125.518C503.167 120.662 495.261 118.46 484.991 118.46V122.46C494.827 122.46 501.482 124.591 505.445 128.402L508.217 125.518ZM484.991 118.46H444.171V122.46H484.991V118.46ZM442.171 120.46V193H446.171V120.46H442.171ZM444.171 191H403.351V195H444.171V191ZM442.171 39.08V91.34H446.171V39.08H442.171ZM444.171 93.34H488.891V89.34H444.171V93.34ZM488.891 93.34C498.532 93.34 506.134 91.0658 511.324 86.164C516.536 81.2419 518.971 73.9984 518.971 64.82H514.971C514.971 73.3216 512.726 79.3381 508.578 83.256C504.408 87.1941 497.97 89.34 488.891 89.34V93.34ZM518.971 64.82C518.971 55.8848 516.526 48.829 511.302 44.0407C506.112 39.2826 498.518 37.08 488.891 37.08V41.08C497.984 41.08 504.43 43.1674 508.6 46.9893C512.736 50.781 514.971 56.5952 514.971 64.82H518.971ZM488.891 37.08H444.171V41.08H488.891V37.08Z" fill="black"/>
</svg>
