<svg width="318" height="53" viewBox="0 0 318 53" fill="none" xmlns="http://www.w3.org/2000/svg">
<path d="M2.536 33.832V31.832H0.552064L0.536065 33.8159L2.536 33.832ZM12.264 33.832H14.264V31.832H12.264V33.832ZM15.336 40.36L16.517 38.7459L16.5143 38.744L15.336 40.36ZM28.136 41.192L27.2862 39.3815L27.282 39.3835L28.136 41.192ZM24.232 30.696L23.6852 32.6198L23.6895 32.621L24.232 30.696ZM11.112 26.728L12.0532 24.9633L12.017 24.944L11.9801 24.9262L11.112 26.728ZM9.512 5.608L8.36796 3.96748L8.35863 3.97406L9.512 5.608ZM33.896 5.608L35.0442 3.97041L35.04 3.96751L33.896 5.608ZM39.464 16.936V18.936H41.464V16.936H39.464ZM29.736 16.936L27.7391 17.0469L27.844 18.936H29.736V16.936ZM16.04 11.176L15.011 9.46101L14.9932 9.47169L14.9757 9.48273L16.04 11.176ZM16.296 18.856L17.1418 17.0436L17.1341 17.0401L16.296 18.856ZM27.432 22.12L26.9343 24.0571L26.9469 24.0603L27.432 22.12ZM35.432 25.192L34.332 26.8623L34.3407 26.8681L34.3495 26.8737L35.432 25.192ZM36.136 45.928L37.3972 47.4802L37.4003 47.4777L36.136 45.928ZM8.424 46.184L7.23229 47.7902L7.23959 47.7956L8.424 46.184ZM2.536 35.832H12.264V31.832H2.536V35.832ZM10.264 33.832C10.264 37.2356 11.5217 40.054 14.1577 41.976L16.5143 38.744C15.0543 37.6793 14.264 36.1458 14.264 33.832H10.264ZM14.155 41.9741C16.3507 43.5807 19.157 44.28 22.376 44.28V40.28C19.707 40.28 17.8199 39.6993 16.517 38.7459L14.155 41.9741ZM22.376 44.28C24.8757 44.28 27.1095 43.8885 28.99 43.0005L27.282 39.3835C26.0905 39.9462 24.4843 40.28 22.376 40.28V44.28ZM28.9858 43.0025C30.2774 42.3962 31.3735 41.5576 32.1414 40.4292C32.9176 39.2888 33.272 37.9786 33.272 36.584H29.272C29.272 37.2801 29.1038 37.7832 28.8346 38.1788C28.5572 38.5864 28.0853 39.0064 27.2862 39.3815L28.9858 43.0025ZM33.272 36.584C33.272 34.584 32.3343 32.9132 30.7951 31.6258C29.3146 30.3876 27.2496 29.4685 24.7745 28.771L23.6895 32.621C25.9077 33.2461 27.3628 33.9698 28.2289 34.6942C29.0363 35.3695 29.272 35.9813 29.272 36.584H33.272ZM24.7788 28.7722C20.7289 27.6212 17.6215 26.7181 15.451 26.0616C14.3644 25.733 13.5239 25.4696 12.922 25.2698C12.2451 25.0452 12.0318 24.9519 12.0532 24.9633L10.1708 28.4927C10.5122 28.6748 11.0855 28.8748 11.662 29.0662C12.3134 29.2824 13.193 29.5577 14.293 29.8904C16.4958 30.5566 19.6285 31.4668 23.6852 32.6198L24.7788 28.7722ZM11.9801 24.9262C9.88737 23.9179 8.43678 22.6787 7.50223 21.2598C6.57309 19.8492 6.072 18.1374 6.072 16.04H2.072C2.072 18.8066 2.74425 21.3081 4.16177 23.4601C5.57389 25.604 7.6433 27.2768 10.2439 28.5298L11.9801 24.9262ZM6.072 16.04C6.072 12.303 7.56318 9.43171 10.6654 7.24193L8.35863 3.97406C4.20749 6.90428 2.072 10.9877 2.072 16.04H6.072ZM10.656 7.24849C13.5163 5.2538 16.9855 4.216 21.16 4.216V0.216C16.2892 0.216 11.993 1.43953 8.36797 3.96751L10.656 7.24849ZM21.16 4.216C26.131 4.216 29.9391 5.28685 32.752 7.24849L35.04 3.96751C31.3676 1.40648 26.685 0.216 21.16 0.216V4.216ZM32.7478 7.24558C35.871 9.4354 37.464 12.5687 37.464 16.936H41.464C41.464 11.4046 39.345 6.98593 35.0442 3.97042L32.7478 7.24558ZM39.464 14.936H29.736V18.936H39.464V14.936ZM31.7329 16.8251C31.5803 14.0772 30.5714 11.7476 28.5042 10.1642C26.5112 8.6377 23.8149 8.024 20.712 8.024V12.024C23.3691 12.024 25.0568 12.5623 26.0718 13.3398C27.0126 14.0604 27.6357 15.1868 27.7391 17.0469L31.7329 16.8251ZM20.712 8.024C18.5976 8.024 16.6659 8.46809 15.011 9.46101L17.069 12.891C17.9741 12.3479 19.157 12.024 20.712 12.024V8.024ZM14.9757 9.48273C12.9059 10.7837 11.8 12.764 11.8 15.208H15.8C15.8 14.1534 16.1874 13.4456 17.1043 12.8693L14.9757 9.48273ZM11.8 15.208C11.8 16.389 12.1011 17.5147 12.7734 18.4974C13.4375 19.4681 14.3774 20.1732 15.4579 20.6719L17.1341 17.0401C16.5506 16.7708 16.2425 16.4839 16.0746 16.2386C15.9149 16.0053 15.8 15.691 15.8 15.208H11.8ZM15.4502 20.6684C16.2474 21.0404 17.6361 21.4995 19.4775 22.0393C21.3641 22.5922 23.8524 23.2652 26.9343 24.0571L27.9297 20.1829C24.8676 19.3961 22.4279 18.7358 20.6025 18.2007C18.732 17.6525 17.6246 17.2689 17.1418 17.0436L15.4502 20.6684ZM26.9469 24.0603C30.4526 24.9367 32.8625 25.8946 34.332 26.8623L36.532 23.5217C34.5028 22.1854 31.5794 21.0953 27.9171 20.1797L26.9469 24.0603ZM34.3495 26.8737C37.486 28.8926 39 31.6705 39 35.432H43C43 30.3188 40.802 26.27 36.5145 23.5103L34.3495 26.8737ZM39 35.432C39 39.2108 37.6278 42.1299 34.8717 44.3783L37.4003 47.4777C41.1296 44.4354 43 40.3572 43 35.432H39ZM34.8748 44.3758C31.9296 46.7688 27.7166 48.088 21.992 48.088V52.088C28.2994 52.088 33.5158 50.6339 37.3972 47.4802L34.8748 44.3758ZM21.992 48.088C16.8053 48.088 12.728 46.8651 9.60841 44.5724L7.23959 47.7956C11.2027 50.7082 16.1707 52.088 21.992 52.088V48.088ZM9.61569 44.5778C6.2018 42.0449 4.49799 38.5529 4.53593 33.8481L0.536065 33.8159C0.488673 39.6925 2.7102 44.4351 7.23231 47.7902L9.61569 44.5778ZM53.1865 9.192L54.6774 10.5252L54.6824 10.5195L54.6874 10.5139L53.1865 9.192ZM86.2105 9.192L84.7096 10.5139L84.7146 10.5195L84.7196 10.5252L86.2105 9.192ZM86.2105 43.176L84.7261 41.8357L84.7225 41.8396L86.2105 43.176ZM53.1865 43.176L54.6745 41.8396L54.6709 41.8357L53.1865 43.176ZM60.0985 36.84L58.4504 37.9731L58.4549 37.9796L60.0985 36.84ZM79.2985 36.84L80.9421 37.9796L80.9466 37.9731L79.2985 36.84ZM79.2985 15.528L77.6378 16.6424L77.6423 16.6491L79.2985 15.528ZM60.0985 15.528L61.7547 16.6491L61.7592 16.6424L60.0985 15.528ZM49.2345 26.344C49.2345 19.7471 51.0935 14.533 54.6774 10.5252L51.6956 7.85883C47.3435 12.7257 45.2345 18.9462 45.2345 26.344H49.2345ZM54.6874 10.5139C58.3574 6.34692 63.2869 4.216 69.6985 4.216V0.216C62.2861 0.216 56.2076 2.73575 51.6856 7.87012L54.6874 10.5139ZM69.6985 4.216C76.1101 4.216 81.0396 6.34692 84.7096 10.5139L87.7114 7.87012C83.1894 2.73575 77.1109 0.216 69.6985 0.216V4.216ZM84.7196 10.5252C88.3035 14.533 90.1625 19.7471 90.1625 26.344H94.1625C94.1625 18.9462 92.0535 12.7257 87.7014 7.85883L84.7196 10.5252ZM90.1625 26.344C90.1625 32.7563 88.3118 37.8644 84.7261 41.8357L87.6949 44.5163C92.0452 39.6982 94.1625 33.585 94.1625 26.344H90.1625ZM84.7225 41.8396C81.007 45.9765 76.0692 48.088 69.6985 48.088V52.088C77.0665 52.088 83.1366 49.5916 87.6985 44.5124L84.7225 41.8396ZM69.6985 48.088C63.3278 48.088 58.39 45.9765 54.6745 41.8396L51.6985 44.5124C56.2604 49.5916 62.3306 52.088 69.6985 52.088V48.088ZM54.6709 41.8357C51.0852 37.8644 49.2345 32.7563 49.2345 26.344H45.2345C45.2345 33.585 47.3518 39.6982 51.7021 44.5163L54.6709 41.8357ZM55.2825 26.344C55.2825 30.8995 56.286 34.8249 58.4504 37.9731L61.7466 35.7069C60.1563 33.3938 59.2825 30.3219 59.2825 26.344H55.2825ZM58.4549 37.9796C61.0786 41.7638 64.9184 43.64 69.6985 43.64V39.64C66.1159 39.64 63.5557 38.3162 61.7421 35.7004L58.4549 37.9796ZM69.6985 43.64C74.4786 43.64 78.3184 41.7638 80.9421 37.9796L77.6549 35.7004C75.8413 38.3162 73.2811 39.64 69.6985 39.64V43.64ZM80.9466 37.9731C83.111 34.8249 84.1145 30.8995 84.1145 26.344H80.1145C80.1145 30.3219 79.2407 33.3938 77.6504 35.7069L80.9466 37.9731ZM84.1145 26.344C84.1145 21.6348 83.1184 17.6032 80.9547 14.4069L77.6423 16.6491C79.2333 18.9995 80.1145 22.1786 80.1145 26.344H84.1145ZM80.9592 14.4136C78.3773 10.566 74.5246 8.664 69.6985 8.664V12.664C73.3204 12.664 75.8677 14.0047 77.6378 16.6424L80.9592 14.4136ZM69.6985 8.664C64.8724 8.664 61.0197 10.566 58.4378 14.4136L61.7592 16.6424C63.5293 14.0047 66.0766 12.664 69.6985 12.664V8.664ZM58.4423 14.4069C56.2786 17.6032 55.2825 21.6348 55.2825 26.344H59.2825C59.2825 22.1786 60.1637 18.9995 61.7547 16.6491L58.4423 14.4069ZM101.271 49H99.271V51H101.271V49ZM101.271 3.304V1.304H99.271V3.304H101.271ZM135.703 7.016L137.117 5.60179L137.111 5.59574L137.105 5.58975L135.703 7.016ZM132.055 27.368L131.301 25.5156L130.055 26.0228V27.368H132.055ZM132.055 27.496H130.055V29.0495L131.56 29.4338L132.055 27.496ZM138.711 38.184L140.706 38.0448L140.706 38.0445L138.711 38.184ZM139.095 43.688L137.1 43.8272L137.102 43.8605L137.106 43.8938L139.095 43.688ZM140.631 49V51H144.535L142.254 47.8314L140.631 49ZM130.583 49L128.731 49.7546L129.238 51H130.583V49ZM129.495 43.816L127.503 43.9931L127.505 44.015L127.507 44.0369L129.495 43.816ZM128.983 38.056L130.975 37.8789L130.971 37.8307L130.964 37.7827L128.983 38.056ZM126.743 32.744L125.357 34.1857L125.37 34.1987L125.384 34.2115L126.743 32.744ZM111.319 31.144V29.144H109.319V31.144H111.319ZM111.319 49V51H113.319V49H111.319ZM111.319 11.112V9.112H109.319V11.112H111.319ZM111.319 23.976H109.319V25.976H111.319V23.976ZM103.271 49V3.304H99.271V49H103.271ZM101.271 5.304H125.911V1.304H101.271V5.304ZM125.911 5.304C129.475 5.304 132.21 6.38627 134.301 8.44225L137.105 5.58975C134.162 2.69639 130.369 1.304 125.911 1.304V5.304ZM134.289 8.43021C136.283 10.4249 137.287 12.8727 137.287 15.912H141.287C141.287 11.8686 139.901 8.38579 137.117 5.60179L134.289 8.43021ZM137.287 15.912C137.287 18.4679 136.745 20.4474 135.788 21.9644C134.838 23.4687 133.386 24.6668 131.301 25.5156L132.809 29.2204C135.545 28.1066 137.709 26.4139 139.17 24.0996C140.623 21.798 141.287 19.0308 141.287 15.912H137.287ZM130.055 27.368V27.496H134.055V27.368H130.055ZM131.56 29.4338C133.058 29.8163 134.188 30.6427 135.029 31.9933C135.905 33.3998 136.516 35.46 136.716 38.3235L140.706 38.0445C140.48 34.8066 139.767 32.0349 138.425 29.8787C137.047 27.6666 135.062 26.1997 132.55 25.5582L131.56 29.4338ZM136.716 38.3232C136.844 40.1579 136.972 41.9925 137.1 43.8272L141.09 43.5488C140.962 41.7141 140.834 39.8795 140.706 38.0448L136.716 38.3232ZM137.106 43.8938C137.371 46.4562 137.924 48.6632 139.008 50.1686L142.254 47.8314C141.802 47.2035 141.331 45.8692 141.084 43.4822L137.106 43.8938ZM140.631 47H130.583V51H140.631V47ZM132.435 48.2454C132.072 47.3529 131.733 45.8448 131.483 43.5951L127.507 44.0369C127.769 46.3952 128.156 48.3431 128.731 49.7546L132.435 48.2454ZM131.487 43.6389C131.476 43.518 131.434 43.0398 131.423 42.9189C131.412 42.798 131.37 42.3198 131.359 42.1989C131.348 42.078 131.306 41.5998 131.295 41.4789C131.285 41.3652 131.241 40.8727 131.231 40.7589C131.228 40.7225 131.226 40.7054 131.223 40.6689C131.22 40.6325 131.218 40.6154 131.215 40.5789C131.212 40.5425 131.21 40.5254 131.207 40.4889C131.204 40.4525 131.202 40.4354 131.199 40.3989C131.196 40.3625 131.194 40.3454 131.191 40.3089C131.188 40.2725 131.186 40.2554 131.183 40.2189C131.18 40.1825 131.178 40.1654 131.175 40.1289C131.172 40.0925 131.17 40.0754 131.167 40.0389C131.164 40.0025 131.162 39.9854 131.159 39.9489C131.156 39.9125 131.154 39.8954 131.151 39.8589C131.148 39.8225 131.146 39.8054 131.143 39.7689C131.14 39.7325 131.138 39.7154 131.135 39.6789C131.132 39.6425 131.13 39.6254 131.127 39.5889C131.124 39.5525 131.122 39.5354 131.119 39.4989C131.116 39.4625 131.114 39.4454 131.111 39.4089C131.108 39.3725 131.106 39.3554 131.103 39.3189C131.1 39.2825 131.098 39.2654 131.095 39.2289C131.092 39.1925 131.09 39.1754 131.087 39.1389C131.084 39.1025 131.082 39.0854 131.079 39.0489C131.076 39.0125 131.074 38.9954 131.071 38.9589C131.068 38.9225 131.066 38.9054 131.063 38.8689C131.06 38.8325 131.058 38.8154 131.055 38.7789C131.052 38.7425 131.05 38.7254 131.047 38.6889C131.044 38.6525 131.042 38.6354 131.039 38.5989C131.036 38.5625 131.034 38.5454 131.031 38.5089C131.028 38.4725 131.026 38.4554 131.023 38.4189C131.02 38.3825 131.018 38.3654 131.015 38.3289C131.012 38.2925 131.01 38.2754 131.007 38.2389C131.004 38.2025 131.002 38.1854 130.999 38.1489C130.996 38.1125 130.994 38.0954 130.991 38.0589C130.988 38.0225 130.986 38.0054 130.983 37.9689C130.98 37.9325 130.978 37.9154 130.975 37.8789L126.991 38.2331C127 38.3397 127.045 38.8464 127.055 38.9531C127.064 39.0597 127.109 39.5664 127.119 39.6731C127.128 39.7797 127.173 40.2864 127.183 40.3931C127.193 40.5033 127.237 41.0029 127.247 41.1131C127.25 41.1504 127.276 41.4357 127.279 41.4731C127.282 41.5104 127.308 41.7957 127.311 41.8331C127.314 41.8704 127.34 42.1558 127.343 42.1931C127.346 42.2304 127.372 42.5158 127.375 42.5531C127.378 42.5904 127.404 42.8757 127.407 42.9131C127.41 42.9504 127.436 43.2357 127.439 43.2731C127.442 43.3104 127.468 43.5957 127.471 43.6331C127.474 43.6704 127.5 43.9557 127.503 43.9931L131.487 43.6389ZM130.964 37.7827C130.595 35.1041 129.743 32.7959 128.102 31.2765L125.384 34.2115C126.047 34.8254 126.689 36.0586 127.002 38.3293L130.964 37.7827ZM128.129 31.3023C126.476 29.7128 124.059 29.144 121.367 29.144V33.144C123.625 33.144 124.791 33.6419 125.357 34.1857L128.129 31.3023ZM121.367 29.144H111.319V33.144H121.367V29.144ZM109.319 31.144V49H113.319V31.144H109.319ZM111.319 47H101.271V51H111.319V47ZM109.319 11.112V23.976H113.319V11.112H109.319ZM111.319 25.976H122.327V21.976H111.319V25.976ZM122.327 25.976C124.912 25.976 127.222 25.3679 128.884 23.798C130.568 22.2079 131.239 19.9624 131.239 17.448H127.239C127.239 19.2856 126.758 20.3041 126.138 20.89C125.496 21.4961 124.35 21.976 122.327 21.976V25.976ZM131.239 17.448C131.239 14.9808 130.558 12.776 128.862 11.2217C127.2 9.69756 124.898 9.112 122.327 9.112V13.112C124.364 13.112 125.518 13.5824 126.16 14.1703C126.768 14.728 127.239 15.6912 127.239 17.448H131.239ZM122.327 9.112H111.319V13.112H122.327V9.112ZM144.835 49L142.965 48.2903L141.936 51H144.835V49ZM162.178 3.304V1.304H160.798L160.309 2.59429L162.178 3.304ZM172.482 3.304L174.356 2.60348L173.87 1.304H172.482V3.304ZM189.57 49V51H192.454L191.444 48.2995L189.57 49ZM179.139 49L177.245 49.6432L177.706 51H179.139V49ZM175.682 38.824L177.576 38.1808L177.115 36.824H175.682V38.824ZM158.594 38.824V36.824H157.178L156.708 38.1596L158.594 38.824ZM155.01 49V51H156.427L156.897 49.6644L155.01 49ZM167.171 14.568V12.568H165.758L165.286 13.899L167.171 14.568ZM161.219 31.336L159.334 30.667L158.386 33.336H161.219V31.336ZM173.059 31.336V33.336H175.86L174.95 30.6862L173.059 31.336ZM167.299 14.568L169.19 13.9182L168.726 12.568H167.299V14.568ZM146.704 49.7097L164.048 4.0137L160.309 2.59429L142.965 48.2903L146.704 49.7097ZM162.178 5.304H172.482V1.304H162.178V5.304ZM170.609 4.00452L187.697 49.7005L191.444 48.2995L174.356 2.60348L170.609 4.00452ZM189.57 47H179.139V51H189.57V47ZM181.032 48.3568L177.576 38.1808L173.789 39.4672L177.245 49.6432L181.032 48.3568ZM175.682 36.824H158.594V40.824H175.682V36.824ZM156.708 38.1596L153.124 48.3356L156.897 49.6644L160.481 39.4884L156.708 38.1596ZM155.01 47H144.835V51H155.01V47ZM165.286 13.899L159.334 30.667L163.103 32.005L169.055 15.237L165.286 13.899ZM161.219 33.336H173.059V29.336H161.219V33.336ZM174.95 30.6862L169.19 13.9182L165.407 15.2178L171.167 31.9858L174.95 30.6862ZM167.299 12.568H167.171V16.568H167.299V12.568ZM195.751 49H193.751V51H195.751V49ZM195.751 3.304V1.304H193.751V3.304H195.751ZM205.735 3.304L207.433 2.24751L206.846 1.304H205.735V3.304ZM224.807 33.96L223.109 35.0165L223.696 35.96H224.807V33.96ZM224.935 33.96V35.96H226.935V33.96H224.935ZM224.935 3.304V1.304H222.935V3.304H224.935ZM234.343 3.304H236.343V1.304H234.343V3.304ZM234.343 49V51H236.343V49H234.343ZM224.295 49L222.596 50.0555L223.183 51H224.295V49ZM205.287 18.408L206.986 17.3525L206.399 16.408H205.287V18.408ZM205.159 18.408V16.408H203.159V18.408H205.159ZM205.159 49V51H207.159V49H205.159ZM197.751 49V3.304H193.751V49H197.751ZM195.751 5.304H205.735V1.304H195.751V5.304ZM204.037 4.36049L223.109 35.0165L226.505 32.9035L207.433 2.24751L204.037 4.36049ZM224.807 35.96H224.935V31.96H224.807V35.96ZM226.935 33.96V3.304H222.935V33.96H226.935ZM224.935 5.304H234.343V1.304H224.935V5.304ZM232.343 3.304V49H236.343V3.304H232.343ZM234.343 47H224.295V51H234.343V47ZM225.994 47.9445L206.986 17.3525L203.588 19.4635L222.596 50.0555L225.994 47.9445ZM205.287 16.408H205.159V20.408H205.287V16.408ZM203.159 18.408V49H207.159V18.408H203.159ZM205.159 47H195.751V51H205.159V47ZM245.428 49H243.428V51H245.428V49ZM245.428 3.304V1.304H243.428V3.304H245.428ZM255.477 3.304H257.477V1.304H255.477V3.304ZM255.477 49V51H257.477V49H255.477ZM247.428 49V3.304H243.428V49H247.428ZM245.428 5.304H255.477V1.304H245.428V5.304ZM253.477 3.304V49H257.477V3.304H253.477ZM255.477 47H245.428V51H255.477V47ZM266.544 49H264.544V51H266.544V49ZM266.544 3.304V1.304H264.544V3.304H266.544ZM280.688 3.304L282.581 2.65998L282.12 1.304H280.688V3.304ZM291.375 34.728L289.482 35.372L289.943 36.728H291.375V34.728ZM291.504 34.728V36.728H292.961L293.407 35.3406L291.504 34.728ZM301.616 3.304V1.304H300.158L299.712 2.69135L301.616 3.304ZM315.76 3.304H317.76V1.304H315.76V3.304ZM315.76 49V51H317.76V49H315.76ZM306.352 49H304.352V51H306.352V49ZM306.352 16.616H308.352V14.616H306.352V16.616ZM306.224 16.616V14.616H304.799L304.333 15.9623L306.224 16.616ZM295.023 49V51H296.448L296.914 49.6537L295.023 49ZM287.28 49L285.391 49.6595L285.86 51H287.28V49ZM276.079 16.936L277.968 16.2765L277.499 14.936H276.079V16.936ZM275.952 16.936V14.936H273.952V16.936H275.952ZM275.952 49V51H277.952V49H275.952ZM268.544 49V3.304H264.544V49H268.544ZM266.544 5.304H280.688V1.304H266.544V5.304ZM278.794 3.94801L289.482 35.372L293.269 34.084L282.581 2.65998L278.794 3.94801ZM291.375 36.728H291.504V32.728H291.375V36.728ZM293.407 35.3406L303.519 3.91664L299.712 2.69135L289.6 34.1154L293.407 35.3406ZM301.616 5.304H315.76V1.304H301.616V5.304ZM313.76 3.304V49H317.76V3.304H313.76ZM315.76 47H306.352V51H315.76V47ZM308.352 49V16.616H304.352V49H308.352ZM306.352 14.616H306.224V18.616H306.352V14.616ZM304.333 15.9623L293.133 48.3463L296.914 49.6537L308.114 17.2697L304.333 15.9623ZM295.023 47H287.28V51H295.023V47ZM289.168 48.3405L277.968 16.2765L274.191 17.5955L285.391 49.6595L289.168 48.3405ZM276.079 14.936H275.952V18.936H276.079V14.936ZM273.952 16.936V49H277.952V16.936H273.952ZM275.952 47H266.544V51H275.952V47Z" fill="black"/>
</svg>
