<svg width="278" height="53" viewBox="0 0 278 53" fill="none" xmlns="http://www.w3.org/2000/svg">
<path d="M2.416 49H0.416V51H2.416V49ZM2.416 3.304V1.304H0.416V3.304H2.416ZM12.4 3.304L14.0982 2.24751L13.5112 1.304H12.4V3.304ZM31.472 33.96L29.7738 35.0165L30.3608 35.96H31.472V33.96ZM31.6 33.96V35.96H33.6V33.96H31.6ZM31.6 3.304V1.304H29.6V3.304H31.6ZM41.008 3.304H43.008V1.304H41.008V3.304ZM41.008 49V51H43.008V49H41.008ZM30.96 49L29.2612 50.0555L29.8481 51H30.96V49ZM11.952 18.408L13.6508 17.3525L13.0639 16.408H11.952V18.408ZM11.824 18.408V16.408H9.824V18.408H11.824ZM11.824 49V51H13.824V49H11.824ZM4.416 49V3.304H0.416V49H4.416ZM2.416 5.304H12.4V1.304H2.416V5.304ZM10.7018 4.36049L29.7738 35.0165L33.1702 32.9035L14.0982 2.24751L10.7018 4.36049ZM31.472 35.96H31.6V31.96H31.472V35.96ZM33.6 33.96V3.304H29.6V33.96H33.6ZM31.6 5.304H41.008V1.304H31.6V5.304ZM39.008 3.304V49H43.008V3.304H39.008ZM41.008 47H30.96V51H41.008V47ZM32.6588 47.9445L13.6508 17.3525L10.2532 19.4635L29.2612 50.0555L32.6588 47.9445ZM11.952 16.408H11.824V20.408H11.952V16.408ZM9.824 18.408V49H13.824V18.408H9.824ZM11.824 47H2.416V51H11.824V47ZM52.0935 49H50.0935V51H52.0935V49ZM52.0935 3.304V1.304H50.0935V3.304H52.0935ZM62.1415 3.304H64.1415V1.304H62.1415V3.304ZM62.1415 49V51H64.1415V49H62.1415ZM54.0935 49V3.304H50.0935V49H54.0935ZM52.0935 5.304H62.1415V1.304H52.0935V5.304ZM60.1415 3.304V49H64.1415V3.304H60.1415ZM62.1415 47H52.0935V51H62.1415V47ZM73.2085 49H71.2085V51H73.2085V49ZM73.2085 3.304V1.304H71.2085V3.304H73.2085ZM83.2565 3.304H85.2565V1.304H83.2565V3.304ZM83.2565 22.248H81.2565V27.2857L84.7119 23.6198L83.2565 22.248ZM101.113 3.304V1.304H100.249L99.6571 1.93219L101.113 3.304ZM113.657 3.304L115.078 4.71063L118.449 1.304H113.657V3.304ZM95.8005 21.352L94.3787 19.9454L93.1983 21.1385L94.1685 22.508L95.8005 21.352ZM115.385 49V51H119.252L117.017 47.844L115.385 49ZM102.777 49L101.115 50.113L101.709 51H102.777V49ZM89.0165 28.456L90.6782 27.343L89.3159 25.3091L87.5945 27.0496L89.0165 28.456ZM83.2565 34.28L81.8345 32.8736L81.2565 33.458V34.28H83.2565ZM83.2565 49V51H85.2565V49H83.2565ZM75.2085 49V3.304H71.2085V49H75.2085ZM73.2085 5.304H83.2565V1.304H73.2085V5.304ZM81.2565 3.304V22.248H85.2565V3.304H81.2565ZM84.7119 23.6198L102.568 4.6758L99.6571 1.93219L81.8011 20.8762L84.7119 23.6198ZM101.113 5.304H113.657V1.304H101.113V5.304ZM112.235 1.89737L94.3787 19.9454L97.2223 22.7586L115.078 4.71063L112.235 1.89737ZM94.1685 22.508L113.752 50.156L117.017 47.844L97.4326 20.196L94.1685 22.508ZM115.385 47H102.777V51H115.385V47ZM104.438 47.887L90.6782 27.343L87.3548 29.569L101.115 50.113L104.438 47.887ZM87.5945 27.0496L81.8345 32.8736L84.6785 35.6864L90.4385 29.8624L87.5945 27.0496ZM81.2565 34.28V49H85.2565V34.28H81.2565ZM83.2565 47H73.2085V51H83.2565V47ZM121.636 49H119.636V51H121.636V49ZM121.636 3.304V1.304H119.636V3.304H121.636ZM155.812 3.304H157.812V1.304H155.812V3.304ZM155.812 11.752V13.752H157.812V11.752H155.812ZM131.684 11.752V9.752H129.684V11.752H131.684ZM131.684 21.544H129.684V23.544H131.684V21.544ZM153.828 21.544H155.828V19.544H153.828V21.544ZM153.828 29.352V31.352H155.828V29.352H153.828ZM131.684 29.352V27.352H129.684V29.352H131.684ZM131.684 40.552H129.684V42.552H131.684V40.552ZM156.324 40.552H158.324V38.552H156.324V40.552ZM156.324 49V51H158.324V49H156.324ZM123.636 49V3.304H119.636V49H123.636ZM121.636 5.304H155.812V1.304H121.636V5.304ZM153.812 3.304V11.752H157.812V3.304H153.812ZM155.812 9.752H131.684V13.752H155.812V9.752ZM129.684 11.752V21.544H133.684V11.752H129.684ZM131.684 23.544H153.828V19.544H131.684V23.544ZM151.828 21.544V29.352H155.828V21.544H151.828ZM153.828 27.352H131.684V31.352H153.828V27.352ZM129.684 29.352V40.552H133.684V29.352H129.684ZM131.684 42.552H156.324V38.552H131.684V42.552ZM154.324 40.552V49H158.324V40.552H154.324ZM156.324 47H121.636V51H156.324V47ZM164.352 35.432H162.352V37.432H164.352V35.432ZM164.352 27.624V25.624H162.352V27.624H164.352ZM183.616 27.624H185.616V25.624H183.616V27.624ZM183.616 35.432V37.432H185.616V35.432H183.616ZM166.352 35.432V27.624H162.352V35.432H166.352ZM164.352 29.624H183.616V25.624H164.352V29.624ZM181.616 27.624V35.432H185.616V27.624H181.616ZM183.616 33.432H164.352V37.432H183.616V33.432ZM190.798 33.832V31.832H188.815L188.799 33.8159L190.798 33.832ZM200.527 33.832H202.527V31.832H200.527V33.832ZM203.598 40.36L204.78 38.7459L204.777 38.744L203.598 40.36ZM216.398 41.192L215.549 39.3815L215.544 39.3835L216.398 41.192ZM212.494 30.696L211.948 32.6198L211.952 32.621L212.494 30.696ZM199.374 26.728L200.316 24.9633L200.28 24.944L200.243 24.9262L199.374 26.728ZM197.774 5.608L196.63 3.96748L196.621 3.97406L197.774 5.608ZM222.158 5.608L223.307 3.97041L223.303 3.96751L222.158 5.608ZM227.727 16.936V18.936H229.727V16.936H227.727ZM217.999 16.936L216.002 17.0469L216.107 18.936H217.999V16.936ZM204.302 11.176L203.273 9.46101L203.256 9.47169L203.238 9.48273L204.302 11.176ZM204.559 18.856L205.404 17.0436L205.397 17.0401L204.559 18.856ZM215.695 22.12L215.197 24.0571L215.209 24.0603L215.695 22.12ZM223.695 25.192L222.595 26.8623L222.603 26.8681L222.612 26.8737L223.695 25.192ZM224.398 45.928L225.66 47.4802L225.663 47.4777L224.398 45.928ZM196.686 46.184L195.495 47.7902L195.502 47.7956L196.686 46.184ZM190.798 35.832H200.527V31.832H190.798V35.832ZM198.527 33.832C198.527 37.2356 199.784 40.054 202.42 41.976L204.777 38.744C203.317 37.6793 202.527 36.1458 202.527 33.832H198.527ZM202.417 41.9741C204.613 43.5807 207.419 44.28 210.639 44.28V40.28C207.97 40.28 206.082 39.6993 204.78 38.7459L202.417 41.9741ZM210.639 44.28C213.138 44.28 215.372 43.8885 217.253 43.0005L215.544 39.3835C214.353 39.9462 212.747 40.28 210.639 40.28V44.28ZM217.248 43.0025C218.54 42.3962 219.636 41.5576 220.404 40.4292C221.18 39.2888 221.535 37.9786 221.535 36.584H217.535C217.535 37.2801 217.366 37.7832 217.097 38.1788C216.82 38.5864 216.348 39.0064 215.549 39.3815L217.248 43.0025ZM221.535 36.584C221.535 34.584 220.597 32.9132 219.058 31.6258C217.577 30.3876 215.512 29.4685 213.037 28.771L211.952 32.621C214.17 33.2461 215.625 33.9698 216.491 34.6942C217.299 35.3695 217.535 35.9813 217.535 36.584H221.535ZM213.041 28.7722C208.991 27.6212 205.884 26.7181 203.713 26.0616C202.627 25.733 201.786 25.4696 201.185 25.2698C200.508 25.0452 200.294 24.9519 200.316 24.9633L198.433 28.4927C198.775 28.6748 199.348 28.8748 199.924 29.0662C200.576 29.2824 201.455 29.5577 202.556 29.8904C204.758 30.5566 207.891 31.4668 211.948 32.6198L213.041 28.7722ZM200.243 24.9262C198.15 23.9179 196.699 22.6787 195.765 21.2598C194.836 19.8492 194.335 18.1374 194.335 16.04H190.335C190.335 18.8066 191.007 21.3081 192.424 23.4601C193.836 25.604 195.906 27.2768 198.506 28.5298L200.243 24.9262ZM194.335 16.04C194.335 12.303 195.826 9.43171 198.928 7.24193L196.621 3.97406C192.47 6.90428 190.335 10.9877 190.335 16.04H194.335ZM198.919 7.24849C201.779 5.2538 205.248 4.216 209.423 4.216V0.216C204.552 0.216 200.255 1.43953 196.63 3.96751L198.919 7.24849ZM209.423 4.216C214.394 4.216 218.202 5.28685 221.014 7.24849L223.303 3.96751C219.63 1.40648 214.947 0.216 209.423 0.216V4.216ZM221.01 7.24558C224.133 9.4354 225.727 12.5687 225.727 16.936H229.727C229.727 11.4046 227.607 6.98593 223.307 3.97042L221.01 7.24558ZM227.727 14.936H217.999V18.936H227.727V14.936ZM219.995 16.8251C219.843 14.0772 218.834 11.7476 216.767 10.1642C214.774 8.6377 212.077 8.024 208.975 8.024V12.024C211.632 12.024 213.319 12.5623 214.334 13.3398C215.275 14.0604 215.898 15.1868 216.002 17.0469L219.995 16.8251ZM208.975 8.024C206.86 8.024 204.928 8.46809 203.273 9.46101L205.331 12.891C206.237 12.3479 207.42 12.024 208.975 12.024V8.024ZM203.238 9.48273C201.168 10.7837 200.062 12.764 200.062 15.208H204.062C204.062 14.1534 204.45 13.4456 205.367 12.8693L203.238 9.48273ZM200.062 15.208C200.062 16.389 200.364 17.5147 201.036 18.4974C201.7 19.4681 202.64 20.1732 203.72 20.6719L205.397 17.0401C204.813 16.7708 204.505 16.4839 204.337 16.2386C204.177 16.0053 204.062 15.691 204.062 15.208H200.062ZM203.713 20.6684C204.51 21.0404 205.899 21.4995 207.74 22.0393C209.627 22.5922 212.115 23.2652 215.197 24.0571L216.192 20.1829C213.13 19.3961 210.69 18.7358 208.865 18.2007C206.994 17.6525 205.887 17.2689 205.404 17.0436L203.713 20.6684ZM215.209 24.0603C218.715 24.9367 221.125 25.8946 222.595 26.8623L224.794 23.5217C222.765 22.1854 219.842 21.0953 216.18 20.1797L215.209 24.0603ZM222.612 26.8737C225.749 28.8926 227.262 31.6705 227.262 35.432H231.262C231.262 30.3188 229.064 26.27 224.777 23.5103L222.612 26.8737ZM227.262 35.432C227.262 39.2108 225.89 42.1299 223.134 44.3783L225.663 47.4777C229.392 44.4354 231.262 40.3572 231.262 35.432H227.262ZM223.137 44.3758C220.192 46.7688 215.979 48.088 210.255 48.088V52.088C216.562 52.088 221.778 50.6339 225.66 47.4802L223.137 44.3758ZM210.255 48.088C205.068 48.088 200.991 46.8651 197.871 44.5724L195.502 47.7956C199.465 50.7082 204.433 52.088 210.255 52.088V48.088ZM197.878 44.5778C194.464 42.0449 192.76 38.5529 192.798 33.8481L188.799 33.8159C188.751 39.6925 190.973 44.4351 195.495 47.7902L197.878 44.5778ZM247.529 28.648V26.648H245.529V28.648H247.529ZM247.529 41.192H245.529V43.192H247.529V41.192ZM237.481 49H235.481V51H237.481V49ZM237.481 3.304V1.304H235.481V3.304H237.481ZM267.369 24.168L266.497 22.3681L261.812 24.6384L266.812 26.0888L267.369 24.168ZM270.761 45.864L269.595 44.2393L269.592 44.2414L270.761 45.864ZM247.529 11.112V9.112H245.529V11.112H247.529ZM247.529 21.8H245.529V23.8H247.529V21.8ZM245.529 28.648V41.192H249.529V28.648H245.529ZM247.529 43.192H258.281V39.192H247.529V43.192ZM258.281 43.192C260.974 43.192 263.365 42.6549 265.108 41.2419C266.932 39.7637 267.705 37.6139 267.705 35.176H263.705C263.705 36.7487 263.24 37.607 262.59 38.1341C261.859 38.7265 260.537 39.192 258.281 39.192V43.192ZM267.705 35.176C267.705 32.6358 266.992 30.3795 265.237 28.7954C263.521 27.2464 261.144 26.648 258.473 26.648V30.648C260.623 30.648 261.862 31.1376 262.557 31.7646C263.213 32.3565 263.705 33.3642 263.705 35.176H267.705ZM258.473 26.648H247.529V30.648H258.473V26.648ZM239.481 49V3.304H235.481V49H239.481ZM237.481 5.304H258.985V1.304H237.481V5.304ZM258.985 5.304C263.646 5.304 266.773 6.21798 268.703 7.71582C270.536 9.139 271.577 11.3186 271.577 14.632H275.577C275.577 10.3934 274.186 6.909 271.155 4.55618C268.221 2.27801 264.052 1.304 258.985 1.304V5.304ZM271.577 14.632C271.577 16.4792 271.142 17.97 270.349 19.1888C269.551 20.4142 268.308 21.4904 266.497 22.3681L268.241 25.9678C270.568 24.8403 272.43 23.3244 273.701 21.3712C274.977 19.4113 275.577 17.1368 275.577 14.632H271.577ZM266.812 26.0888C269.276 26.8036 270.954 27.9569 272.037 29.4526C273.126 30.9574 273.753 33.0042 273.753 35.752H277.753C277.753 32.3985 276.983 29.4639 275.277 27.1074C273.565 24.7417 271.051 23.1538 267.926 22.2472L266.812 26.0888ZM273.753 35.752C273.753 39.5069 272.362 42.2524 269.595 44.2394L271.927 47.4886C275.816 44.6969 277.753 40.7011 277.753 35.752H273.753ZM269.592 44.2414C267.112 46.0285 263.84 47 259.625 47V51C264.456 51 268.608 49.8808 271.93 47.4866L269.592 44.2414ZM259.625 47H237.481V51H259.625V47ZM245.529 11.112V21.8H249.529V11.112H245.529ZM247.529 23.8H257.705V19.8H247.529V23.8ZM257.705 23.8C260.005 23.8 262.104 23.2961 263.639 21.9374C265.22 20.5376 265.849 18.549 265.849 16.36H261.849C261.849 17.7977 261.454 18.529 260.987 18.9426C260.474 19.3973 259.501 19.8 257.705 19.8V23.8ZM265.849 16.36C265.849 14.1318 265.087 12.1645 263.33 10.8311C261.678 9.57665 259.437 9.112 256.937 9.112V13.112C259.045 13.112 260.26 13.522 260.912 14.0169C261.459 14.4328 261.849 15.0895 261.849 16.36H265.849ZM256.937 9.112H247.529V13.112H256.937V9.112Z" fill="black"/>
</svg>
