<svg width="263" height="113" viewBox="0 0 263 113" fill="none" xmlns="http://www.w3.org/2000/svg">
<path d="M2.536 33.832V31.832H0.552064L0.536065 33.8159L2.536 33.832ZM12.264 33.832H14.264V31.832H12.264V33.832ZM15.336 40.36L16.517 38.7459L16.5143 38.744L15.336 40.36ZM28.136 41.192L27.2862 39.3815L27.282 39.3835L28.136 41.192ZM24.232 30.696L23.6852 32.6198L23.6895 32.621L24.232 30.696ZM11.112 26.728L12.0532 24.9633L12.017 24.944L11.9801 24.9262L11.112 26.728ZM9.512 5.608L8.36796 3.96748L8.35863 3.97406L9.512 5.608ZM33.896 5.608L35.0442 3.97041L35.04 3.96751L33.896 5.608ZM39.464 16.936V18.936H41.464V16.936H39.464ZM29.736 16.936L27.7391 17.0469L27.844 18.936H29.736V16.936ZM16.04 11.176L15.011 9.46101L14.9932 9.47169L14.9757 9.48273L16.04 11.176ZM16.296 18.856L17.1418 17.0436L17.1341 17.0401L16.296 18.856ZM27.432 22.12L26.9343 24.0571L26.9469 24.0603L27.432 22.12ZM35.432 25.192L34.332 26.8623L34.3407 26.8681L34.3495 26.8737L35.432 25.192ZM36.136 45.928L37.3972 47.4802L37.4003 47.4777L36.136 45.928ZM8.424 46.184L7.23229 47.7902L7.23959 47.7956L8.424 46.184ZM2.536 35.832H12.264V31.832H2.536V35.832ZM10.264 33.832C10.264 37.2356 11.5217 40.054 14.1577 41.976L16.5143 38.744C15.0543 37.6793 14.264 36.1458 14.264 33.832H10.264ZM14.155 41.9741C16.3507 43.5807 19.157 44.28 22.376 44.28V40.28C19.707 40.28 17.8199 39.6993 16.517 38.7459L14.155 41.9741ZM22.376 44.28C24.8757 44.28 27.1095 43.8885 28.99 43.0005L27.282 39.3835C26.0905 39.9462 24.4843 40.28 22.376 40.28V44.28ZM28.9858 43.0025C30.2774 42.3962 31.3735 41.5576 32.1414 40.4292C32.9176 39.2888 33.272 37.9786 33.272 36.584H29.272C29.272 37.2801 29.1038 37.7832 28.8346 38.1788C28.5572 38.5864 28.0853 39.0064 27.2862 39.3815L28.9858 43.0025ZM33.272 36.584C33.272 34.584 32.3343 32.9132 30.7951 31.6258C29.3146 30.3876 27.2496 29.4685 24.7745 28.771L23.6895 32.621C25.9077 33.2461 27.3628 33.9698 28.2289 34.6942C29.0363 35.3695 29.272 35.9813 29.272 36.584H33.272ZM24.7788 28.7722C20.7289 27.6212 17.6215 26.7181 15.451 26.0616C14.3644 25.733 13.5239 25.4696 12.922 25.2698C12.2451 25.0452 12.0318 24.9519 12.0532 24.9633L10.1708 28.4927C10.5122 28.6748 11.0855 28.8748 11.662 29.0662C12.3134 29.2824 13.193 29.5577 14.293 29.8904C16.4958 30.5566 19.6285 31.4668 23.6852 32.6198L24.7788 28.7722ZM11.9801 24.9262C9.88737 23.9179 8.43678 22.6787 7.50223 21.2598C6.57309 19.8492 6.072 18.1374 6.072 16.04H2.072C2.072 18.8066 2.74425 21.3081 4.16177 23.4601C5.57389 25.604 7.6433 27.2768 10.2439 28.5298L11.9801 24.9262ZM6.072 16.04C6.072 12.303 7.56318 9.43171 10.6654 7.24193L8.35863 3.97406C4.20749 6.90428 2.072 10.9877 2.072 16.04H6.072ZM10.656 7.24849C13.5163 5.2538 16.9855 4.216 21.16 4.216V0.216C16.2892 0.216 11.993 1.43953 8.36797 3.96751L10.656 7.24849ZM21.16 4.216C26.131 4.216 29.9391 5.28685 32.752 7.24849L35.04 3.96751C31.3676 1.40648 26.685 0.216 21.16 0.216V4.216ZM32.7478 7.24558C35.871 9.4354 37.464 12.5687 37.464 16.936H41.464C41.464 11.4046 39.345 6.98593 35.0442 3.97042L32.7478 7.24558ZM39.464 14.936H29.736V18.936H39.464V14.936ZM31.7329 16.8251C31.5803 14.0772 30.5714 11.7476 28.5042 10.1642C26.5112 8.6377 23.8149 8.024 20.712 8.024V12.024C23.3691 12.024 25.0568 12.5623 26.0718 13.3398C27.0126 14.0604 27.6357 15.1868 27.7391 17.0469L31.7329 16.8251ZM20.712 8.024C18.5976 8.024 16.6659 8.46809 15.011 9.46101L17.069 12.891C17.9741 12.3479 19.157 12.024 20.712 12.024V8.024ZM14.9757 9.48273C12.9059 10.7837 11.8 12.764 11.8 15.208H15.8C15.8 14.1534 16.1874 13.4456 17.1043 12.8693L14.9757 9.48273ZM11.8 15.208C11.8 16.389 12.1011 17.5147 12.7734 18.4974C13.4375 19.4681 14.3774 20.1732 15.4579 20.6719L17.1341 17.0401C16.5506 16.7708 16.2425 16.4839 16.0746 16.2386C15.9149 16.0053 15.8 15.691 15.8 15.208H11.8ZM15.4502 20.6684C16.2474 21.0404 17.6361 21.4995 19.4775 22.0393C21.3641 22.5922 23.8524 23.2652 26.9343 24.0571L27.9297 20.1829C24.8676 19.3961 22.4279 18.7358 20.6025 18.2007C18.732 17.6525 17.6246 17.2689 17.1418 17.0436L15.4502 20.6684ZM26.9469 24.0603C30.4526 24.9367 32.8625 25.8946 34.332 26.8623L36.532 23.5217C34.5028 22.1854 31.5794 21.0953 27.9171 20.1797L26.9469 24.0603ZM34.3495 26.8737C37.486 28.8926 39 31.6705 39 35.432H43C43 30.3188 40.802 26.27 36.5145 23.5103L34.3495 26.8737ZM39 35.432C39 39.2108 37.6278 42.1299 34.8717 44.3783L37.4003 47.4777C41.1296 44.4354 43 40.3572 43 35.432H39ZM34.8748 44.3758C31.9296 46.7688 27.7166 48.088 21.992 48.088V52.088C28.2994 52.088 33.5158 50.6339 37.3972 47.4802L34.8748 44.3758ZM21.992 48.088C16.8053 48.088 12.728 46.8651 9.60841 44.5724L7.23959 47.7956C11.2027 50.7082 16.1707 52.088 21.992 52.088V48.088ZM9.61569 44.5778C6.2018 42.0449 4.49799 38.5529 4.53593 33.8481L0.536065 33.8159C0.488673 39.6925 2.7102 44.4351 7.23231 47.7902L9.61569 44.5778ZM59.3305 49H57.3305V51H59.3305V49ZM59.3305 11.752H61.3305V9.752H59.3305V11.752ZM45.6345 11.752H43.6345V13.752H45.6345V11.752ZM45.6345 3.304V1.304H43.6345V3.304H45.6345ZM83.0745 3.304H85.0745V1.304H83.0745V3.304ZM83.0745 11.752V13.752H85.0745V11.752H83.0745ZM69.3785 11.752V9.752H67.3785V11.752H69.3785ZM69.3785 49V51H71.3785V49H69.3785ZM61.3305 49V11.752H57.3305V49H61.3305ZM59.3305 9.752H45.6345V13.752H59.3305V9.752ZM47.6345 11.752V3.304H43.6345V11.752H47.6345ZM45.6345 5.304H83.0745V1.304H45.6345V5.304ZM81.0745 3.304V11.752H85.0745V3.304H81.0745ZM83.0745 9.752H69.3785V13.752H83.0745V9.752ZM67.3785 11.752V49H71.3785V11.752H67.3785ZM69.3785 47H59.3305V51H69.3785V47ZM90.5835 49H88.5835V51H90.5835V49ZM90.5835 3.304V1.304H88.5835V3.304H90.5835ZM125.016 7.016L126.43 5.60179L126.424 5.59574L126.418 5.58975L125.016 7.016ZM121.368 27.368L120.613 25.5156L119.368 26.0228V27.368H121.368ZM121.368 27.496H119.368V29.0495L120.873 29.4338L121.368 27.496ZM128.024 38.184L130.019 38.0448L130.019 38.0445L128.024 38.184ZM128.408 43.688L126.412 43.8272L126.415 43.8605L126.418 43.8938L128.408 43.688ZM129.944 49V51H133.848L131.567 47.8314L129.944 49ZM119.896 49L118.043 49.7546L118.551 51H119.896V49ZM118.808 43.816L116.815 43.9931L116.817 44.015L116.82 44.0369L118.808 43.816ZM118.296 38.056L120.288 37.8789L120.283 37.8307L120.277 37.7827L118.296 38.056ZM116.056 32.744L114.669 34.1857L114.683 34.1987L114.697 34.2115L116.056 32.744ZM100.632 31.144V29.144H98.6315V31.144H100.632ZM100.632 49V51H102.632V49H100.632ZM100.632 11.112V9.112H98.6315V11.112H100.632ZM100.632 23.976H98.6315V25.976H100.632V23.976ZM92.5835 49V3.304H88.5835V49H92.5835ZM90.5835 5.304H115.224V1.304H90.5835V5.304ZM115.224 5.304C118.787 5.304 121.522 6.38627 123.613 8.44225L126.418 5.58975C123.474 2.69639 119.681 1.304 115.224 1.304V5.304ZM123.601 8.43021C125.596 10.4249 126.6 12.8727 126.6 15.912H130.6C130.6 11.8686 129.214 8.38579 126.43 5.60179L123.601 8.43021ZM126.6 15.912C126.6 18.4679 126.058 20.4474 125.1 21.9644C124.151 23.4687 122.699 24.6668 120.613 25.5156L122.122 29.2204C124.858 28.1066 127.022 26.4139 128.483 24.0996C129.936 21.798 130.6 19.0308 130.6 15.912H126.6ZM119.368 27.368V27.496H123.368V27.368H119.368ZM120.873 29.4338C122.371 29.8163 123.501 30.6427 124.342 31.9933C125.218 33.3998 125.828 35.46 126.028 38.3235L130.019 38.0445C129.792 34.8066 129.08 32.0349 127.737 29.8787C126.36 27.6666 124.375 26.1997 121.862 25.5582L120.873 29.4338ZM126.028 38.3232C126.156 40.1579 126.284 41.9925 126.412 43.8272L130.403 43.5488C130.275 41.7141 130.147 39.8795 130.019 38.0448L126.028 38.3232ZM126.418 43.8938C126.683 46.4562 127.237 48.6632 128.32 50.1686L131.567 47.8314C131.114 47.2035 130.644 45.8692 130.397 43.4822L126.418 43.8938ZM129.944 47H119.896V51H129.944V47ZM121.748 48.2454C121.384 47.3529 121.045 45.8448 120.795 43.5951L116.82 44.0369C117.082 46.3952 117.468 48.3431 118.043 49.7546L121.748 48.2454ZM120.8 43.6389C120.789 43.518 120.746 43.0398 120.736 42.9189C120.725 42.798 120.682 42.3198 120.672 42.1989C120.661 42.078 120.618 41.5998 120.608 41.4789C120.598 41.3652 120.554 40.8727 120.544 40.7589C120.54 40.7225 120.539 40.7054 120.536 40.6689C120.532 40.6325 120.531 40.6154 120.528 40.5789C120.524 40.5425 120.523 40.5254 120.52 40.4889C120.516 40.4525 120.515 40.4354 120.512 40.3989C120.508 40.3625 120.507 40.3454 120.504 40.3089C120.5 40.2725 120.499 40.2554 120.496 40.2189C120.492 40.1825 120.491 40.1654 120.488 40.1289C120.484 40.0925 120.483 40.0754 120.48 40.0389C120.476 40.0025 120.475 39.9854 120.472 39.9489C120.468 39.9125 120.467 39.8954 120.464 39.8589C120.46 39.8225 120.459 39.8054 120.456 39.7689C120.452 39.7325 120.451 39.7154 120.448 39.6789C120.444 39.6425 120.443 39.6254 120.44 39.5889C120.436 39.5525 120.435 39.5354 120.432 39.4989C120.428 39.4625 120.427 39.4454 120.424 39.4089C120.42 39.3725 120.419 39.3554 120.416 39.3189C120.412 39.2825 120.411 39.2654 120.408 39.2289C120.404 39.1925 120.403 39.1754 120.4 39.1389C120.396 39.1025 120.395 39.0854 120.392 39.0489C120.388 39.0125 120.387 38.9954 120.384 38.9589C120.38 38.9225 120.379 38.9054 120.376 38.8689C120.372 38.8325 120.371 38.8154 120.368 38.7789C120.364 38.7425 120.363 38.7254 120.36 38.6889C120.356 38.6525 120.355 38.6354 120.352 38.5989C120.348 38.5625 120.347 38.5454 120.344 38.5089C120.34 38.4725 120.339 38.4554 120.336 38.4189C120.332 38.3825 120.331 38.3654 120.328 38.3289C120.324 38.2925 120.323 38.2754 120.32 38.2389C120.316 38.2025 120.315 38.1854 120.312 38.1489C120.308 38.1125 120.307 38.0954 120.304 38.0589C120.3 38.0225 120.299 38.0054 120.296 37.9689C120.292 37.9325 120.291 37.9154 120.288 37.8789L116.303 38.2331C116.313 38.3397 116.358 38.8464 116.367 38.9531C116.377 39.0597 116.422 39.5664 116.431 39.6731C116.441 39.7797 116.486 40.2864 116.495 40.3931C116.505 40.5033 116.55 41.0029 116.559 41.1131C116.563 41.1504 116.588 41.4357 116.591 41.4731C116.595 41.5104 116.62 41.7957 116.623 41.8331C116.627 41.8704 116.652 42.1557 116.655 42.1931C116.659 42.2304 116.684 42.5157 116.687 42.5531C116.691 42.5904 116.716 42.8757 116.719 42.9131C116.723 42.9504 116.748 43.2357 116.751 43.2731C116.755 43.3104 116.78 43.5957 116.783 43.6331C116.787 43.6704 116.812 43.9557 116.815 43.9931L120.8 43.6389ZM120.277 37.7827C119.907 35.1041 119.055 32.7959 117.414 31.2765L114.697 34.2115C115.36 34.8254 116.001 36.0586 116.314 38.3293L120.277 37.7827ZM117.442 31.3023C115.789 29.7128 113.371 29.144 110.68 29.144V33.144C112.937 33.144 114.104 33.6419 114.669 34.1857L117.442 31.3023ZM110.68 29.144H100.632V33.144H110.68V29.144ZM98.6315 31.144V49H102.632V31.144H98.6315ZM100.632 47H90.5835V51H100.632V47ZM98.6315 11.112V23.976H102.632V11.112H98.6315ZM100.632 25.976H111.64V21.976H100.632V25.976ZM111.64 25.976C114.224 25.976 116.535 25.3679 118.197 23.798C119.88 22.2079 120.552 19.9624 120.552 17.448H116.552C116.552 19.2856 116.071 20.3041 115.45 20.89C114.808 21.4961 113.663 21.976 111.64 21.976V25.976ZM120.552 17.448C120.552 14.9808 119.871 12.776 118.175 11.2217C116.512 9.69756 114.211 9.112 111.64 9.112V13.112C113.676 13.112 114.831 13.5824 115.472 14.1703C116.08 14.728 116.552 15.6912 116.552 17.448H120.552ZM111.64 9.112H100.632V13.112H111.64V9.112ZM139.011 49H137.011V51H139.011V49ZM139.011 3.304V1.304H137.011V3.304H139.011ZM173.187 3.304H175.187V1.304H173.187V3.304ZM173.187 11.752V13.752H175.187V11.752H173.187ZM149.059 11.752V9.752H147.059V11.752H149.059ZM149.059 21.544H147.059V23.544H149.059V21.544ZM171.203 21.544H173.203V19.544H171.203V21.544ZM171.203 29.352V31.352H173.203V29.352H171.203ZM149.059 29.352V27.352H147.059V29.352H149.059ZM149.059 40.552H147.059V42.552H149.059V40.552ZM173.699 40.552H175.699V38.552H173.699V40.552ZM173.699 49V51H175.699V49H173.699ZM141.011 49V3.304H137.011V49H141.011ZM139.011 5.304H173.187V1.304H139.011V5.304ZM171.187 3.304V11.752H175.187V3.304H171.187ZM173.187 9.752H149.059V13.752H173.187V9.752ZM147.059 11.752V21.544H151.059V11.752H147.059ZM149.059 23.544H171.203V19.544H149.059V23.544ZM169.203 21.544V29.352H173.203V21.544H169.203ZM171.203 27.352H149.059V31.352H171.203V27.352ZM147.059 29.352V40.552H151.059V29.352H147.059ZM149.059 42.552H173.699V38.552H149.059V42.552ZM171.699 40.552V49H175.699V40.552H171.699ZM173.699 47H139.011V51H173.699V47ZM182.751 49H180.751V51H182.751V49ZM182.751 3.304V1.304H180.751V3.304H182.751ZM216.927 3.304H218.927V1.304H216.927V3.304ZM216.927 11.752V13.752H218.927V11.752H216.927ZM192.799 11.752V9.752H190.799V11.752H192.799ZM192.799 21.544H190.799V23.544H192.799V21.544ZM214.943 21.544H216.943V19.544H214.943V21.544ZM214.943 29.352V31.352H216.943V29.352H214.943ZM192.799 29.352V27.352H190.799V29.352H192.799ZM192.799 40.552H190.799V42.552H192.799V40.552ZM217.439 40.552H219.439V38.552H217.439V40.552ZM217.439 49V51H219.439V49H217.439ZM184.751 49V3.304H180.751V49H184.751ZM182.751 5.304H216.927V1.304H182.751V5.304ZM214.927 3.304V11.752H218.927V3.304H214.927ZM216.927 9.752H192.799V13.752H216.927V9.752ZM190.799 11.752V21.544H194.799V11.752H190.799ZM192.799 23.544H214.943V19.544H192.799V23.544ZM212.943 21.544V29.352H216.943V21.544H212.943ZM214.943 27.352H192.799V31.352H214.943V27.352ZM190.799 29.352V40.552H194.799V29.352H190.799ZM192.799 42.552H217.439V38.552H192.799V42.552ZM215.439 40.552V49H219.439V40.552H215.439ZM217.439 47H182.751V51H217.439V47ZM236.603 49H234.603V51H236.603V49ZM236.603 11.752H238.603V9.752H236.603V11.752ZM222.907 11.752H220.907V13.752H222.907V11.752ZM222.907 3.304V1.304H220.907V3.304H222.907ZM260.347 3.304H262.347V1.304H260.347V3.304ZM260.347 11.752V13.752H262.347V11.752H260.347ZM246.651 11.752V9.752H244.651V11.752H246.651ZM246.651 49V51H248.651V49H246.651ZM238.603 49V11.752H234.603V49H238.603ZM236.603 9.752H222.907V13.752H236.603V9.752ZM224.907 11.752V3.304H220.907V11.752H224.907ZM222.907 5.304H260.347V1.304H222.907V5.304ZM258.347 3.304V11.752H262.347V3.304H258.347ZM260.347 9.752H246.651V13.752H260.347V9.752ZM244.651 11.752V49H248.651V11.752H244.651ZM246.651 47H236.603V51H246.651V47ZM5.416 109H3.416V111H5.416V109ZM5.416 63.304V61.304H3.416V63.304H5.416ZM37.544 63.304H39.544V61.304H37.544V63.304ZM37.544 71.752V73.752H39.544V71.752H37.544ZM15.464 71.752V69.752H13.464V71.752H15.464ZM15.464 82.312H13.464V84.312H15.464V82.312ZM34.6 82.312H36.6V80.312H34.6V82.312ZM34.6 90.12V92.12H36.6V90.12H34.6ZM15.464 90.12V88.12H13.464V90.12H15.464ZM15.464 109V111H17.464V109H15.464ZM7.416 109V63.304H3.416V109H7.416ZM5.416 65.304H37.544V61.304H5.416V65.304ZM35.544 63.304V71.752H39.544V63.304H35.544ZM37.544 69.752H15.464V73.752H37.544V69.752ZM13.464 71.752V82.312H17.464V71.752H13.464ZM15.464 84.312H34.6V80.312H15.464V84.312ZM32.6 82.312V90.12H36.6V82.312H32.6ZM34.6 88.12H15.464V92.12H34.6V88.12ZM13.464 90.12V109H17.464V90.12H13.464ZM15.464 107H5.416V111H15.464V107ZM49.5615 69.192L51.0524 70.5252L51.0574 70.5195L51.0624 70.5139L49.5615 69.192ZM82.5855 69.192L81.0846 70.5139L81.0896 70.5195L81.0946 70.5252L82.5855 69.192ZM82.5855 103.176L81.1011 101.836L81.0975 101.84L82.5855 103.176ZM49.5615 103.176L51.0495 101.84L51.0459 101.836L49.5615 103.176ZM56.4735 96.84L54.8254 97.9731L54.8299 97.9796L56.4735 96.84ZM75.6735 96.84L77.3171 97.9796L77.3216 97.9731L75.6735 96.84ZM75.6735 75.528L74.0128 76.6424L74.0173 76.6491L75.6735 75.528ZM56.4735 75.528L58.1297 76.6491L58.1342 76.6424L56.4735 75.528ZM45.6095 86.344C45.6095 79.7471 47.4685 74.533 51.0524 70.5252L48.0706 67.8588C43.7185 72.7257 41.6095 78.9462 41.6095 86.344H45.6095ZM51.0624 70.5139C54.7324 66.3469 59.6619 64.216 66.0735 64.216V60.216C58.6611 60.216 52.5826 62.7357 48.0606 67.8701L51.0624 70.5139ZM66.0735 64.216C72.4851 64.216 77.4146 66.3469 81.0846 70.5139L84.0864 67.8701C79.5644 62.7357 73.4859 60.216 66.0735 60.216V64.216ZM81.0946 70.5252C84.6785 74.533 86.5375 79.7471 86.5375 86.344H90.5375C90.5375 78.9462 88.4285 72.7257 84.0764 67.8588L81.0946 70.5252ZM86.5375 86.344C86.5375 92.7563 84.6868 97.8644 81.1011 101.836L84.0699 104.516C88.4202 99.6982 90.5375 93.585 90.5375 86.344H86.5375ZM81.0975 101.84C77.382 105.976 72.4442 108.088 66.0735 108.088V112.088C73.4415 112.088 79.5116 109.592 84.0735 104.512L81.0975 101.84ZM66.0735 108.088C59.7028 108.088 54.765 105.976 51.0495 101.84L48.0735 104.512C52.6354 109.592 58.7056 112.088 66.0735 112.088V108.088ZM51.0459 101.836C47.4602 97.8644 45.6095 92.7563 45.6095 86.344H41.6095C41.6095 93.585 43.7268 99.6982 48.0771 104.516L51.0459 101.836ZM51.6575 86.344C51.6575 90.8995 52.661 94.8249 54.8254 97.9731L58.1216 95.7069C56.5313 93.3938 55.6575 90.3219 55.6575 86.344H51.6575ZM54.8299 97.9796C57.4536 101.764 61.2934 103.64 66.0735 103.64V99.64C62.4909 99.64 59.9307 98.3162 58.1171 95.7004L54.8299 97.9796ZM66.0735 103.64C70.8536 103.64 74.6934 101.764 77.3171 97.9796L74.0299 95.7004C72.2163 98.3162 69.6561 99.64 66.0735 99.64V103.64ZM77.3216 97.9731C79.486 94.8249 80.4895 90.8995 80.4895 86.344H76.4895C76.4895 90.3219 75.6157 93.3938 74.0254 95.7069L77.3216 97.9731ZM80.4895 86.344C80.4895 81.6348 79.4934 77.6032 77.3297 74.4069L74.0173 76.6491C75.6083 78.9995 76.4895 82.1785 76.4895 86.344H80.4895ZM77.3342 74.4136C74.7523 70.566 70.8996 68.664 66.0735 68.664V72.664C69.6954 72.664 72.2427 74.0047 74.0128 76.6424L77.3342 74.4136ZM66.0735 68.664C61.2474 68.664 57.3947 70.566 54.8128 74.4136L58.1342 76.6424C59.9043 74.0047 62.4516 72.664 66.0735 72.664V68.664ZM54.8173 74.4069C52.6536 77.6032 51.6575 81.6348 51.6575 86.344H55.6575C55.6575 82.1785 56.5387 78.9995 58.1297 76.6491L54.8173 74.4069ZM101.614 69.192L103.105 70.5252L103.11 70.5195L103.115 70.5139L101.614 69.192ZM134.638 69.192L133.137 70.5139L133.142 70.5195L133.147 70.5252L134.638 69.192ZM134.638 103.176L133.154 101.836L133.15 101.84L134.638 103.176ZM101.614 103.176L103.102 101.84L103.098 101.836L101.614 103.176ZM108.526 96.84L106.878 97.9731L106.882 97.9796L108.526 96.84ZM127.726 96.84L129.37 97.9796L129.374 97.9731L127.726 96.84ZM127.726 75.528L126.065 76.6424L126.07 76.6491L127.726 75.528ZM108.526 75.528L110.182 76.6491L110.187 76.6424L108.526 75.528ZM97.662 86.344C97.662 79.7471 99.521 74.533 103.105 70.5252L100.123 67.8588C95.771 72.7257 93.662 78.9462 93.662 86.344H97.662ZM103.115 70.5139C106.785 66.3469 111.714 64.216 118.126 64.216V60.216C110.714 60.216 104.635 62.7357 100.113 67.8701L103.115 70.5139ZM118.126 64.216C124.538 64.216 129.467 66.3469 133.137 70.5139L136.139 67.8701C131.617 62.7357 125.538 60.216 118.126 60.216V64.216ZM133.147 70.5252C136.731 74.533 138.59 79.7471 138.59 86.344H142.59C142.59 78.9462 140.481 72.7257 136.129 67.8588L133.147 70.5252ZM138.59 86.344C138.59 92.7563 136.739 97.8644 133.154 101.836L136.122 104.516C140.473 99.6982 142.59 93.585 142.59 86.344H138.59ZM133.15 101.84C129.435 105.976 124.497 108.088 118.126 108.088V112.088C125.494 112.088 131.564 109.592 136.126 104.512L133.15 101.84ZM118.126 108.088C111.755 108.088 106.817 105.976 103.102 101.84L100.126 104.512C104.688 109.592 110.758 112.088 118.126 112.088V108.088ZM103.098 101.836C99.5127 97.8644 97.662 92.7563 97.662 86.344H93.662C93.662 93.585 95.7793 99.6982 100.13 104.516L103.098 101.836ZM103.71 86.344C103.71 90.8995 104.714 94.8249 106.878 97.9731L110.174 95.7069C108.584 93.3938 107.71 90.3219 107.71 86.344H103.71ZM106.882 97.9796C109.506 101.764 113.346 103.64 118.126 103.64V99.64C114.543 99.64 111.983 98.3162 110.17 95.7004L106.882 97.9796ZM118.126 103.64C122.906 103.64 126.746 101.764 129.37 97.9796L126.082 95.7004C124.269 98.3162 121.709 99.64 118.126 99.64V103.64ZM129.374 97.9731C131.538 94.8249 132.542 90.8995 132.542 86.344H128.542C128.542 90.3219 127.668 93.3938 126.078 95.7069L129.374 97.9731ZM132.542 86.344C132.542 81.6348 131.546 77.6032 129.382 74.4069L126.07 76.6491C127.661 78.9995 128.542 82.1785 128.542 86.344H132.542ZM129.387 74.4136C126.805 70.566 122.952 68.664 118.126 68.664V72.664C121.748 72.664 124.295 74.0047 126.065 76.6424L129.387 74.4136ZM118.126 68.664C113.3 68.664 109.447 70.566 106.865 74.4136L110.187 76.6424C111.957 74.0047 114.504 72.664 118.126 72.664V68.664ZM106.87 74.4069C104.706 77.6032 103.71 81.6348 103.71 86.344H107.71C107.71 82.1785 108.591 78.9995 110.182 76.6491L106.87 74.4069ZM149.699 109H147.699V111H149.699V109ZM149.699 63.304V61.304H147.699V63.304H149.699ZM184.195 68.936L182.764 70.3339L182.772 70.3421L182.78 70.3502L184.195 68.936ZM185.027 102.408L186.562 103.69L186.563 103.688L185.027 102.408ZM159.747 71.752V69.752H157.747V71.752H159.747ZM159.747 100.552H157.747V102.552H159.747V100.552ZM176.579 97.48L175.152 96.0786L175.149 96.0808L176.579 97.48ZM177.283 75.848L178.866 74.6259L178.859 74.6167L177.283 75.848ZM151.699 109V63.304H147.699V109H151.699ZM149.699 65.304H169.411V61.304H149.699V65.304ZM169.411 65.304C175.163 65.304 179.538 67.0326 182.764 70.3339L185.625 67.5381C181.512 63.33 176.032 61.304 169.411 61.304V65.304ZM182.78 70.3502C186.268 73.8381 188.147 78.918 188.147 85.896H192.147C192.147 78.1967 190.057 71.9699 185.609 67.5218L182.78 70.3502ZM188.147 85.896C188.147 92.481 186.525 97.4862 183.49 101.128L186.563 103.688C190.355 99.1378 192.147 93.135 192.147 85.896H188.147ZM183.491 101.126C180.271 104.983 175.676 107 169.411 107V111C176.628 111 182.443 108.622 186.562 103.69L183.491 101.126ZM169.411 107H149.699V111H169.411V107ZM157.747 71.752V100.552H161.747V71.752H157.747ZM159.747 102.552H168.707V98.552H159.747V102.552ZM168.707 102.552C172.41 102.552 175.575 101.363 178.008 98.8792L175.149 96.0808C173.571 97.6927 171.489 98.552 168.707 98.552V102.552ZM178.005 98.8814C180.846 95.9896 182.099 91.8606 182.099 86.856H178.099C178.099 91.238 177.005 94.1917 175.152 96.0786L178.005 98.8814ZM182.099 86.856C182.099 81.7526 181.132 77.5623 178.866 74.6259L175.699 77.0701C177.187 78.9977 178.099 82.1461 178.099 86.856H182.099ZM178.859 74.6167C176.216 71.2342 172.061 69.752 166.915 69.752V73.752C171.326 73.752 174.082 75.0005 175.706 77.0793L178.859 74.6167ZM166.915 69.752H159.747V73.752H166.915V69.752Z" fill="black"/>
</svg>
