<svg width="44" height="67" viewBox="0 0 44 67" fill="none" xmlns="http://www.w3.org/2000/svg">
<g filter="url(#filter0_d)">
<rect x="5" y="24" width="34" height="34" stroke="black" stroke-width="2"/>
</g>
<path d="M21.7071 0.292891C21.3166 -0.0976334 20.6834 -0.0976333 20.2929 0.292891L13.9289 6.65685C13.5384 7.04738 13.5384 7.68054 13.9289 8.07107C14.3195 8.46159 14.9526 8.46159 15.3431 8.07107L21 2.41421L26.6569 8.07107C27.0474 8.46159 27.6805 8.46159 28.0711 8.07107C28.4616 7.68054 28.4616 7.04738 28.0711 6.65685L21.7071 0.292891ZM22 31L22 0.999998L20 0.999998L20 31L22 31Z" fill="black"/>
<path d="M15.3483 49.18C14.3643 49.18 13.6203 48.85 13.1163 48.19C12.6123 47.53 12.3603 46.546 12.3603 45.238V39.604H13.9443V44.932C13.9443 46.852 14.6103 47.812 15.9423 47.812C16.5903 47.812 17.1963 47.608 17.7603 47.2C18.3363 46.78 18.7623 46.21 19.0383 45.49V39.604H20.6223V47.056C20.6223 47.428 20.7903 47.62 21.1263 47.632V49C20.9463 49.024 20.8023 49.036 20.6943 49.036C20.5983 49.048 20.5023 49.054 20.4063 49.054C20.0943 49.054 19.8303 48.964 19.6143 48.784C19.4103 48.592 19.3023 48.358 19.2903 48.082L19.2543 46.984C18.8343 47.692 18.2823 48.238 17.5983 48.622C16.9143 48.994 16.1643 49.18 15.3483 49.18ZM28.9489 49.18C28.1689 49.18 27.4789 48.988 26.8789 48.604C26.2909 48.22 25.8229 47.734 25.4749 47.146V52.834H23.8909V39.604H25.2949V41.368C25.6669 40.792 26.1469 40.33 26.7349 39.982C27.3349 39.622 27.9949 39.442 28.7149 39.442C29.3629 39.442 29.9569 39.574 30.4969 39.838C31.0369 40.102 31.5049 40.462 31.9009 40.918C32.2969 41.362 32.6029 41.878 32.8189 42.466C33.0469 43.054 33.1609 43.666 33.1609 44.302C33.1609 44.974 33.0589 45.61 32.8549 46.21C32.6509 46.798 32.3629 47.314 31.9909 47.758C31.6189 48.19 31.1749 48.538 30.6589 48.802C30.1429 49.054 29.5729 49.18 28.9489 49.18ZM28.4629 47.812C28.9309 47.812 29.3509 47.716 29.7229 47.524C30.1069 47.32 30.4309 47.056 30.6949 46.732C30.9709 46.396 31.1809 46.018 31.3249 45.598C31.4689 45.178 31.5409 44.746 31.5409 44.302C31.5409 43.834 31.4569 43.39 31.2889 42.97C31.1209 42.538 30.8929 42.166 30.6049 41.854C30.3169 41.53 29.9749 41.278 29.5789 41.098C29.1949 40.906 28.7749 40.81 28.3189 40.81C28.0309 40.81 27.7309 40.87 27.4189 40.99C27.1189 41.098 26.8309 41.248 26.5549 41.44C26.2909 41.62 26.0569 41.842 25.8529 42.106C25.6609 42.358 25.5349 42.628 25.4749 42.916V45.598C25.6069 45.91 25.7749 46.204 25.9789 46.48C26.1829 46.744 26.4169 46.978 26.6809 47.182C26.9449 47.374 27.2269 47.53 27.5269 47.65C27.8269 47.758 28.1389 47.812 28.4629 47.812Z" fill="black"/>
<defs>
<filter id="filter0_d" x="0" y="23" width="44" height="44" filterUnits="userSpaceOnUse" color-interpolation-filters="sRGB">
<feFlood flood-opacity="0" result="BackgroundImageFix"/>
<feColorMatrix in="SourceAlpha" type="matrix" values="0 0 0 0 0 0 0 0 0 0 0 0 0 0 0 0 0 0 127 0"/>
<feOffset dy="4"/>
<feGaussianBlur stdDeviation="2"/>
<feColorMatrix type="matrix" values="0 0 0 0 0 0 0 0 0 0 0 0 0 0 0 0 0 0 0.25 0"/>
<feBlend mode="normal" in2="BackgroundImageFix" result="effect1_dropShadow"/>
<feBlend mode="normal" in="SourceGraphic" in2="effect1_dropShadow" result="shape"/>
</filter>
</defs>
</svg>
